# Blender 5.2.0 LTS
# www.blender.org
mtllib wrist_yaw_0167.mtl
o tool_wrist.001
v -0.000001 0.279149 0.042242
v -0.005056 0.285761 0.042104
v -0.003199 0.286832 0.042105
v -0.007680 0.282365 0.042104
v -0.006625 0.284192 0.042104
v -0.008259 0.278097 0.042104
v -0.008259 0.280202 0.042104
v -0.006626 0.274109 0.042104
v -0.007679 0.275932 0.042104
v -0.003199 0.271466 0.042105
v -0.005056 0.272538 0.042104
v 0.001054 0.270893 0.042105
v -0.001056 0.270893 0.042105
v -0.007178 0.282075 0.040113
v -0.006123 0.283902 0.040113
v -0.002909 0.286331 0.040113
v -0.004766 0.285259 0.040113
v 0.007175 0.282078 0.040113
v 0.006124 0.283899 0.040113
v 0.007678 0.278098 0.040113
v 0.007678 0.280201 0.040113
v 0.002928 0.286325 0.040113
v 0.004749 0.285274 0.040113
v -0.001053 0.286828 0.040113
v 0.001052 0.286828 0.040113
v 0.005112 0.277143 -0.040621
v 0.004392 0.275897 -0.040621
v -0.003526 0.274919 -0.037908
v -0.002061 0.274073 -0.037908
v -0.005069 0.277064 -0.040621
v -0.004376 0.275862 -0.040621
v -0.005418 0.278506 -0.040621
v -0.005433 0.279885 -0.040621
v 0.002648 0.272417 0.042242
v 0.004505 0.273488 0.042242
v -0.001056 0.271990 0.042242
v 0.001054 0.271990 0.042242
v 0.005054 0.272538 0.042104
v 0.003197 0.271466 0.042105
v 0.007679 0.275938 0.042104
v 0.006620 0.274104 0.042104
v 0.008258 0.280201 0.042104
v 0.008258 0.278098 0.042104
v 0.007677 0.282368 0.042104
v 0.006626 0.284189 0.042104
v 0.004490 0.284826 0.042242
v 0.002669 0.285877 0.042242
v 0.006726 0.281819 0.042242
v 0.005675 0.283640 0.042242
v 0.003218 0.286827 0.042105
v 0.005039 0.285776 0.042104
v -0.001053 0.287406 0.042105
v 0.001051 0.287406 0.042105
v 0.005112 0.277150 -0.037908
v 0.004388 0.275895 -0.037908
v 0.002029 0.274056 -0.037908
v 0.003436 0.274868 -0.037908
v -0.000794 0.273721 -0.037908
v 0.000629 0.273721 -0.037908
v -0.004369 0.275858 -0.037908
v -0.005070 0.277072 -0.037908
v 0.005428 0.279837 -0.037908
v 0.005428 0.278463 -0.037908
v 0.005670 0.274653 0.042242
v 0.006728 0.276486 0.042242
v 0.007160 0.278098 0.042242
v 0.007160 0.280201 0.042242
v 0.001052 0.286310 0.042242
v -0.001053 0.286310 0.042242
v -0.002650 0.285882 0.042242
v -0.004507 0.284810 0.042242
v -0.005675 0.283643 0.042242
v -0.006729 0.281816 0.042242
v -0.007161 0.280202 0.042242
v -0.007161 0.278097 0.042242
v -0.006728 0.276480 0.042242
v -0.005676 0.274657 0.042242
v -0.004507 0.273488 0.042242
v -0.002650 0.272416 0.042242
v -0.000001 0.279143 -0.037547
v -0.002144 0.284177 -0.037908
v -0.003355 0.283478 -0.037908
v -0.005103 0.281168 -0.037908
v -0.004374 0.282432 -0.037908
v -0.005430 0.279893 -0.037908
v -0.005415 0.278502 -0.037908
v 0.000859 0.284581 -0.037908
v -0.000630 0.284581 -0.037908
v 0.002296 0.284082 -0.037908
v 0.003420 0.283443 -0.037908
v 0.005062 0.281245 -0.040621
v 0.004338 0.282499 -0.040621
v 0.005063 0.281236 -0.037908
v 0.004331 0.282505 -0.037908
v 0.005431 0.279830 -0.040621
v 0.005431 0.278470 -0.040621
v 0.000623 0.273718 -0.040621
v -0.000787 0.273718 -0.040621
v 0.003435 0.274867 -0.040621
v 0.002031 0.274056 -0.040621
v 0.002302 0.284083 -0.040621
v 0.003414 0.283451 -0.040621
v -0.000630 0.284581 -0.040621
v 0.000859 0.284581 -0.040621
v -0.003355 0.283479 -0.040621
v -0.002146 0.284177 -0.040621
v -0.005102 0.281176 -0.040621
v -0.004380 0.282428 -0.040621
v -0.002062 0.274073 -0.040621
v -0.003525 0.274917 -0.040621
v 0.006118 0.274394 0.040113
v 0.007177 0.276227 0.040113
v 0.002907 0.271968 0.040113
v 0.004764 0.273040 0.040113
v -0.007177 0.276221 0.040113
v -0.006125 0.274399 0.040113
v -0.007680 0.280202 0.040113
v -0.007680 0.278097 0.040113
v -0.002909 0.271968 0.040113
v -0.004766 0.273040 0.040113
v -0.001056 0.271471 0.040113
v 0.001054 0.271471 0.040113
v -0.002910 0.286331 -0.040431
v -0.002813 0.286164 -0.040621
v -0.002892 0.286310 -0.040526
v -0.002857 0.286249 -0.040596
v -0.004670 0.285092 -0.040621
v -0.004767 0.285260 -0.040431
v -0.004721 0.285173 -0.040596
v -0.004757 0.285234 -0.040526
v -0.006124 0.283902 -0.040431
v -0.005956 0.283806 -0.040621
v -0.006098 0.283893 -0.040526
v -0.006037 0.283857 -0.040596
v -0.007011 0.281978 -0.040621
v -0.007178 0.282075 -0.040431
v -0.007096 0.282022 -0.040596
v -0.007157 0.282058 -0.040526
v 0.001052 0.286828 -0.040431
v 0.001052 0.286635 -0.040621
v 0.001056 0.286801 -0.040526
v 0.001056 0.286730 -0.040596
v -0.001053 0.286635 -0.040621
v -0.001053 0.286828 -0.040431
v -0.001058 0.286730 -0.040596
v -0.001058 0.286801 -0.040526
v 0.004750 0.285275 -0.040431
v 0.004653 0.285107 -0.040621
v 0.004740 0.285249 -0.040526
v 0.004705 0.285188 -0.040596
v 0.002832 0.286158 -0.040621
v 0.002929 0.286326 -0.040431
v 0.002876 0.286243 -0.040596
v 0.002911 0.286304 -0.040526
v 0.007176 0.282079 -0.040431
v 0.007008 0.281982 -0.040621
v 0.007154 0.282061 -0.040526
v 0.007093 0.282026 -0.040596
v 0.005957 0.283803 -0.040621
v 0.006125 0.283900 -0.040431
v 0.006038 0.283855 -0.040596
v 0.006099 0.283890 -0.040526
v 0.006119 0.274394 -0.040431
v 0.005952 0.274491 -0.040621
v 0.006094 0.274403 -0.040526
v 0.006032 0.274439 -0.040596
v 0.007010 0.276324 -0.040621
v 0.007178 0.276227 -0.040431
v 0.007095 0.276280 -0.040596
v 0.007156 0.276244 -0.040526
v 0.002908 0.271967 -0.040431
v 0.002811 0.272135 -0.040621
v 0.002890 0.271988 -0.040526
v 0.002855 0.272050 -0.040596
v 0.004668 0.273207 -0.040621
v 0.004765 0.273039 -0.040431
v 0.004720 0.273126 -0.040596
v 0.004755 0.273065 -0.040526
v -0.007680 0.280202 -0.040431
v -0.007486 0.280202 -0.040621
v -0.007653 0.280206 -0.040526
v -0.007582 0.280206 -0.040596
v -0.007486 0.278097 -0.040621
v -0.007680 0.278097 -0.040431
v -0.007582 0.278092 -0.040596
v -0.007653 0.278092 -0.040526
v -0.001056 0.271471 -0.040431
v -0.001056 0.271665 -0.040621
v -0.001060 0.271498 -0.040526
v -0.001060 0.271569 -0.040596
v 0.001054 0.271665 -0.040621
v 0.001054 0.271471 -0.040431
v 0.001059 0.271569 -0.040596
v 0.001059 0.271498 -0.040526
v -0.004767 0.273039 -0.040431
v -0.004670 0.273207 -0.040621
v -0.004757 0.273065 -0.040526
v -0.004721 0.273126 -0.040596
v -0.002813 0.272135 -0.040621
v -0.002910 0.271967 -0.040431
v -0.002857 0.272050 -0.040596
v -0.002892 0.271988 -0.040526
v -0.007178 0.276221 -0.040431
v -0.007010 0.276318 -0.040621
v -0.007157 0.276239 -0.040526
v -0.007095 0.276274 -0.040596
v -0.005958 0.274495 -0.040621
v -0.006126 0.274398 -0.040431
v -0.006038 0.274443 -0.040596
v -0.006100 0.274408 -0.040526
v 0.007678 0.278098 -0.040431
v 0.007485 0.278098 -0.040621
v 0.007651 0.278093 -0.040526
v 0.007580 0.278093 -0.040596
v 0.007485 0.280201 -0.040621
v 0.007678 0.280201 -0.040431
v 0.007580 0.280205 -0.040596
v 0.007651 0.280205 -0.040526
v -0.003439 0.287249 0.041818
v -0.003537 0.287418 0.041560
v -0.005394 0.286346 0.041561
v -0.005296 0.286177 0.041818
v -0.007041 0.284432 0.041818
v -0.007210 0.284530 0.041561
v -0.008265 0.282702 0.041561
v -0.008096 0.282605 0.041818
v -0.008739 0.280202 0.041818
v -0.008935 0.280202 0.041561
v -0.008935 0.278097 0.041561
v -0.008739 0.278097 0.041818
v -0.008095 0.275692 0.041818
v -0.008264 0.275594 0.041561
v -0.007212 0.273771 0.041561
v -0.007042 0.273869 0.041818
v -0.001056 0.270411 0.041817
v -0.001056 0.270215 0.041559
v 0.001054 0.270215 0.041560
v 0.001054 0.270411 0.041817
v -0.005296 0.272122 0.041818
v -0.005394 0.271953 0.041561
v -0.003537 0.270881 0.041561
v -0.003439 0.271050 0.041818
v 0.003437 0.271050 0.041818
v 0.003535 0.270881 0.041560
v 0.005392 0.271953 0.041561
v 0.005294 0.272122 0.041818
v 0.008264 0.275600 0.041561
v 0.008095 0.275697 0.041818
v 0.007036 0.273864 0.041818
v 0.007206 0.273766 0.041561
v 0.008934 0.280201 0.041561
v 0.008738 0.280201 0.041818
v 0.008738 0.278098 0.041818
v 0.008933 0.278098 0.041561
v 0.008093 0.282608 0.041818
v 0.008262 0.282706 0.041561
v 0.007211 0.284527 0.041561
v 0.007041 0.284429 0.041818
v 0.001052 0.287889 0.041817
v 0.001052 0.288084 0.041560
v -0.001053 0.288084 0.041559
v -0.001053 0.287889 0.041817
v 0.005279 0.286192 0.041818
v 0.005377 0.286361 0.041561
v 0.003556 0.287412 0.041560
v 0.003458 0.287243 0.041818
v -0.001053 0.288071 0.041129
v -0.001053 0.288141 0.041345
v 0.001052 0.288141 0.041345
v 0.001052 0.288071 0.041129
v -0.008922 0.278097 0.041129
v -0.008993 0.278097 0.041345
v -0.008993 0.280202 0.041345
v -0.008922 0.280202 0.041129
v -0.007201 0.273777 0.041129
v -0.007262 0.273742 0.041345
v -0.008314 0.275565 0.041345
v -0.008253 0.275600 0.041129
v -0.005423 0.271903 0.041345
v -0.005387 0.271964 0.041129
v -0.003531 0.270892 0.041129
v -0.003566 0.270831 0.041345
v -0.007260 0.284559 0.041345
v -0.007199 0.284523 0.041129
v -0.008254 0.282696 0.041129
v -0.008315 0.282731 0.041345
v -0.003566 0.287468 0.041345
v -0.003531 0.287407 0.041129
v -0.005387 0.286335 0.041129
v -0.005423 0.286396 0.041345
v 0.008921 0.280201 0.041129
v 0.008991 0.280201 0.041345
v 0.008991 0.278098 0.041345
v 0.008921 0.278098 0.041129
v 0.007256 0.273738 0.041345
v 0.007195 0.273773 0.041129
v 0.008253 0.275606 0.041129
v 0.008314 0.275571 0.041345
v 0.005386 0.271964 0.041129
v 0.005421 0.271903 0.041345
v 0.003564 0.270831 0.041345
v 0.003529 0.270892 0.041129
v 0.001054 0.270229 0.041129
v 0.001054 0.270158 0.041345
v -0.001056 0.270158 0.041345
v -0.001056 0.270229 0.041129
v 0.003550 0.287401 0.041129
v 0.003585 0.287462 0.041345
v 0.005406 0.286411 0.041345
v 0.005370 0.286350 0.041129
v 0.008312 0.282735 0.041345
v 0.008251 0.282700 0.041129
v 0.007200 0.284521 0.041129
v 0.007261 0.284556 0.041345
vn 0.3826 0.9239 -0.0000
vn 0.3821 0.9145 -0.1332
vn 0.1262 0.9830 -0.1332
vn 0.1305 0.9914 -0.0000
vn -0.1305 -0.9915 -0.0000
vn -0.1262 -0.9830 -0.1332
vn 0.1262 -0.9830 -0.1332
vn 0.1305 -0.9915 -0.0000
vn -0.3826 -0.9239 -0.0000
vn -0.3820 -0.9145 -0.1331
vn 0.7934 0.6087 -0.0000
vn 0.7882 0.6008 -0.1332
vn 0.6008 0.7882 -0.1332
vn 0.6087 0.7934 -0.0000
vn -0.7882 0.6008 -0.1332
vn -0.9145 0.3820 -0.1332
vn -0.9239 0.3826 -0.0000
vn -0.7934 0.6087 -0.0000
vn -0.9830 0.1262 -0.1332
vn -0.9915 0.1305 -0.0000
vn 0.6087 -0.7934 -0.0000
vn 0.6008 -0.7882 -0.1333
vn 0.7882 -0.6008 -0.1332
vn 0.7934 -0.6087 -0.0000
vn -0.9830 -0.1262 -0.1332
vn -0.9145 -0.3820 -0.1332
vn -0.9239 -0.3826 -0.0000
vn -0.9915 -0.1305 -0.0000
vn 0.9145 -0.3820 -0.1332
vn 0.9830 -0.1262 -0.1332
vn 0.9915 -0.1305 -0.0000
vn 0.9239 -0.3826 -0.0000
vn 0.3820 -0.9145 -0.1333
vn 0.3826 -0.9239 -0.0000
vn -0.7934 -0.6087 -0.0000
vn -0.7882 -0.6008 -0.1332
vn -0.6008 -0.7882 -0.1332
vn -0.6087 -0.7934 -0.0000
vn 0.9915 0.1305 -0.0000
vn 0.9830 0.1262 -0.1332
vn 0.9145 0.3820 -0.1332
vn 0.9239 0.3826 -0.0000
vn -0.1304 0.9915 -0.0000
vn -0.1261 0.9830 -0.1333
vn -0.3820 0.9145 -0.1332
vn -0.3826 0.9239 -0.0000
vn -0.6008 0.7882 -0.1332
vn -0.6087 0.7934 -0.0000
vn -0.0000 -0.0000 1.0000
vn 0.0675 0.0097 0.9977
vn 0.0633 0.0253 0.9977
vn -0.0536 0.0422 0.9977
vn -0.0422 0.0536 0.9977
vn -0.2106 0.2705 0.9394
vn -0.2705 0.2106 0.9394
vn -0.8332 -0.3461 0.4313
vn -0.9224 -0.3853 -0.0257
vn -0.7949 -0.6062 -0.0257
vn -0.7163 -0.5485 0.4314
vn -0.0471 -0.3397 0.9394
vn -0.0097 -0.0672 0.9977
vn -0.0253 -0.0632 0.9977
vn -0.1290 -0.3177 0.9394
vn -0.0422 -0.0536 0.9977
vn -0.0536 -0.0422 0.9977
vn -0.2705 -0.2106 0.9394
vn -0.2106 -0.2705 0.9394
vn -0.0675 0.0097 0.9977
vn -0.0633 0.0253 0.9977
vn -0.3176 0.1290 0.9394
vn -0.3395 0.0471 0.9394
vn -0.5015 -0.3922 -0.7712
vn -0.6622 -0.5073 -0.5515
vn -0.7704 -0.3198 -0.5515
vn -0.5904 -0.2382 -0.7712
vn -0.0000 -0.0000 -1.0000
vn -0.1397 0.0194 -0.9900
vn -0.1307 0.0529 -0.9900
vn 0.9224 -0.3853 -0.0257
vn 0.9915 -0.1275 -0.0257
vn 0.8946 -0.1168 0.4314
vn 0.8332 -0.3461 0.4313
vn 0.6266 -0.2585 0.7353
vn 0.3176 -0.1290 0.9394
vn 0.2705 -0.2106 0.9394
vn 0.5371 -0.4134 0.7353
vn 0.3395 0.0471 0.9394
vn 0.3176 0.1290 0.9394
vn 0.0471 0.3397 0.9394
vn 0.0097 0.0672 0.9977
vn 0.0253 0.0632 0.9977
vn 0.1290 0.3177 0.9394
vn 0.6062 -0.7949 -0.0257
vn 0.7949 -0.6062 -0.0257
vn 0.7163 -0.5485 0.4314
vn 0.5485 -0.7163 0.4313
vn 0.0422 0.0536 0.9977
vn 0.0536 0.0422 0.9977
vn 0.2705 0.2106 0.9394
vn 0.2106 0.2705 0.9394
vn 0.3462 -0.8333 0.4311
vn 0.3853 -0.9224 -0.0260
vn 0.0675 -0.0097 0.9977
vn 0.0633 -0.0253 0.9977
vn 0.3395 -0.0471 0.9394
vn 0.0653 -0.0080 -0.9978
vn 0.0608 -0.0247 -0.9978
vn 0.9923 0.1236 -0.0008
vn 0.9287 0.3708 -0.0009
vn 0.9285 0.3714 -0.0009
vn 0.9924 0.1233 -0.0008
vn -0.4134 0.5372 0.7352
vn -0.5371 0.4134 0.7353
vn 0.1397 -0.0194 -0.9900
vn 0.1307 -0.0529 -0.9900
vn -0.6062 0.7949 -0.0258
vn -0.7949 0.6062 -0.0257
vn -0.7163 0.5485 0.4313
vn -0.5485 0.7163 0.4314
vn -0.6718 0.0894 0.7353
vn -0.6718 -0.0894 0.7353
vn -0.3395 -0.0471 0.9394
vn -0.0895 0.6725 0.7347
vn -0.0471 0.3397 0.9394
vn 0.0895 0.6724 0.7347
vn -0.3703 0.9289 -0.0004
vn -0.1171 0.9931 -0.0007
vn -0.1175 0.9931 -0.0007
vn -0.8271 0.1083 -0.5515
vn -0.7704 0.3198 -0.5515
vn -0.5904 0.2382 -0.7712
vn -0.6304 0.0890 -0.7712
vn -0.9224 0.3853 -0.0257
vn -0.8331 0.3461 0.4314
vn -0.0633 -0.0253 0.9977
vn -0.0675 -0.0097 0.9977
vn -0.3176 -0.1290 0.9394
vn 0.0471 -0.3397 0.9394
vn 0.0895 -0.6724 0.7347
vn 0.2585 -0.6268 0.7350
vn 0.1290 -0.3177 0.9394
vn 0.0253 -0.0632 0.9977
vn 0.0097 -0.0672 0.9977
vn 0.0890 -0.6304 -0.7712
vn 0.1082 -0.8270 -0.5516
vn -0.1083 -0.8271 -0.5516
vn -0.0890 -0.6304 -0.7712
vn -0.5073 -0.6622 -0.5515
vn -0.3922 -0.5015 -0.7712
vn -0.2382 -0.5904 -0.7712
vn -0.3198 -0.7704 -0.5516
vn 0.2382 0.5904 -0.7712
vn 0.3198 0.7704 -0.5516
vn 0.5073 0.6622 -0.5515
vn 0.3922 0.5014 -0.7712
vn -0.8946 0.1169 0.4314
vn -0.9915 0.1275 -0.0257
vn -0.9915 -0.1275 -0.0257
vn -0.8946 -0.1168 0.4314
vn 0.0890 0.6303 -0.7712
vn 0.1083 0.8270 -0.5517
vn -0.0253 0.0632 0.9977
vn -0.0097 0.0672 0.9977
vn -0.1290 0.3177 0.9394
vn -0.3922 0.5015 -0.7712
vn -0.5073 0.6622 -0.5515
vn -0.3198 0.7704 -0.5515
vn -0.2382 0.5904 -0.7712
vn -0.7977 -0.6030 -0.0010
vn -0.7980 -0.6026 -0.0010
vn -0.9251 -0.3798 -0.0010
vn -0.9252 -0.3794 -0.0010
vn -0.0244 0.0612 -0.9978
vn -0.0077 0.0656 -0.9978
vn 0.0656 0.0081 -0.9978
vn 0.0611 0.0245 -0.9978
vn 0.0089 0.0652 -0.9978
vn 0.0255 0.0608 -0.9978
vn 0.0413 0.0509 -0.9978
vn 0.0534 0.0388 -0.9978
vn 0.3821 -0.9241 -0.0003
vn 0.1299 -0.9915 -0.0002
vn 0.3820 -0.9242 -0.0003
vn -0.3853 -0.9224 -0.0260
vn -0.1276 -0.9915 -0.0261
vn -0.1169 -0.8949 0.4307
vn -0.3462 -0.8333 0.4311
vn 0.8271 0.1083 -0.5515
vn 0.6304 0.0890 -0.7712
vn 0.5904 0.2381 -0.7712
vn 0.7704 0.3198 -0.5515
vn 0.3853 0.9224 -0.0259
vn 0.1276 0.9915 -0.0262
vn 0.1169 0.8949 0.4307
vn 0.3462 0.8333 0.4311
vn 0.5014 0.3922 -0.7712
vn 0.6622 0.5073 -0.5515
vn -0.1083 0.8270 -0.5517
vn -0.0890 0.6304 -0.7712
vn 0.6719 -0.0894 0.7353
vn 0.6719 0.0894 0.7353
vn -0.0895 -0.6724 0.7347
vn -0.4134 -0.5372 0.7352
vn -0.2585 -0.6268 0.7350
vn 0.0422 -0.0536 0.9977
vn 0.0536 -0.0422 0.9977
vn 0.7975 -0.6034 -0.0009
vn 0.6139 -0.7894 -0.0005
vn 0.6140 -0.7893 -0.0005
vn 0.7972 -0.6037 -0.0009
vn -0.0654 0.0078 -0.9978
vn -0.0610 0.0243 -0.9978
vn -0.9919 -0.1270 -0.0009
vn -0.9918 -0.1275 -0.0009
vn -0.9931 0.1176 -0.0008
vn -0.9286 0.3710 -0.0007
vn -0.9288 0.3706 -0.0007
vn -0.9930 0.1180 -0.0008
vn -0.0108 -0.0646 -0.9979
vn -0.0274 -0.0603 -0.9978
vn 0.9928 -0.1199 -0.0008
vn 0.9928 -0.1194 -0.0008
vn 0.9260 -0.3776 -0.0008
vn 0.9261 -0.3772 -0.0008
vn -0.0402 -0.0518 -0.9978
vn -0.0524 -0.0397 -0.9978
vn 0.0526 -0.0398 -0.9978
vn 0.0404 -0.0519 -0.9978
vn 0.6295 0.7770 -0.0005
vn 0.8093 0.5874 -0.0009
vn 0.8091 0.5876 -0.0009
vn 0.6296 0.7769 -0.0005
vn 0.1169 -0.8949 0.4308
vn 0.1275 -0.9915 -0.0261
vn -0.4124 -0.9110 -0.0010
vn -0.1659 -0.9862 -0.0004
vn -0.4126 -0.9109 -0.0010
vn -0.0609 -0.0250 -0.9978
vn -0.0653 -0.0084 -0.9978
vn 0.0529 -0.1307 -0.9900
vn 0.0194 -0.1396 -0.9900
vn -0.6118 -0.7910 -0.0010
vn -0.6123 -0.7906 -0.0010
vn 0.1350 0.9908 -0.0007
vn 0.3871 0.9220 -0.0003
vn 0.3870 0.9221 -0.0003
vn 0.1355 0.9908 -0.0007
vn 0.8271 -0.1083 -0.5515
vn 0.7704 -0.3198 -0.5515
vn 0.5904 -0.2382 -0.7712
vn 0.6304 -0.0890 -0.7712
vn -0.0531 0.0392 -0.9978
vn -0.0410 0.0514 -0.9978
vn 0.0195 0.1397 -0.9900
vn 0.0529 0.1307 -0.9900
vn 0.0867 0.1112 -0.9900
vn 0.1112 0.0867 -0.9900
vn -0.0867 -0.1112 -0.9900
vn -0.1112 -0.0867 -0.9900
vn 0.1307 0.0529 -0.9900
vn 0.1397 0.0194 -0.9900
vn -0.0195 -0.1397 -0.9900
vn -0.0530 -0.1307 -0.9900
vn -0.1112 0.0867 -0.9900
vn -0.0867 0.1112 -0.9900
vn 0.1112 -0.0867 -0.9900
vn 0.0867 -0.1112 -0.9900
vn -0.1307 -0.0529 -0.9900
vn -0.1397 -0.0194 -0.9900
vn 0.7949 0.6062 -0.0257
vn 0.6062 0.7949 -0.0258
vn 0.5485 0.7163 0.4313
vn 0.7163 0.5485 0.4313
vn 0.0252 -0.0609 -0.9978
vn 0.0085 -0.0653 -0.9978
vn 0.4134 0.5372 0.7352
vn 0.2585 0.6268 0.7350
vn 0.2106 -0.2705 0.9394
vn -0.0529 0.1307 -0.9900
vn -0.0194 0.1397 -0.9900
vn 0.3198 -0.7704 -0.5516
vn 0.2382 -0.5904 -0.7712
vn 0.6622 -0.5073 -0.5515
vn 0.5015 -0.3922 -0.7712
vn -0.6266 0.2585 0.7353
vn -0.5371 -0.4134 0.7353
vn 0.5073 -0.6622 -0.5515
vn 0.3922 -0.5015 -0.7712
vn 0.9915 0.1275 -0.0257
vn 0.9224 0.3853 -0.0257
vn 0.8331 0.3461 0.4314
vn 0.8946 0.1168 0.4314
vn -0.1276 0.9915 -0.0262
vn -0.1169 0.8949 0.4307
vn -0.3461 0.8333 0.4311
vn -0.3853 0.9224 -0.0259
vn -0.8271 -0.1083 -0.5515
vn -0.6304 -0.0890 -0.7712
vn 0.6266 0.2585 0.7353
vn 0.5371 0.4134 0.7353
vn 0.4134 -0.5372 0.7352
vn -0.6235 0.7818 -0.0004
vn -0.6234 0.7819 -0.0004
vn -0.6622 0.5073 -0.5515
vn -0.5015 0.3922 -0.7712
vn -0.5485 -0.7163 0.4313
vn -0.6062 -0.7949 -0.0257
vn -0.8047 0.5937 -0.0008
vn -0.8046 0.5939 -0.0008
vn -0.6266 -0.2585 0.7353
vn -0.2585 0.6268 0.7350
vn -0.4063 -0.3149 -0.8578
vn -0.4759 -0.1942 -0.8578
vn -0.6883 -0.5294 -0.4960
vn -0.8027 -0.3311 -0.4960
vn -0.0695 0.5093 -0.8578
vn 0.0696 0.5093 -0.8578
vn -0.1143 0.8607 -0.4961
vn 0.1143 0.8607 -0.4961
vn -0.4759 0.1942 -0.8578
vn -0.4062 0.3149 -0.8578
vn -0.8027 0.3311 -0.4960
vn -0.6883 0.5294 -0.4960
vn 0.0695 -0.5093 -0.8578
vn -0.0695 -0.5092 -0.8578
vn 0.1143 -0.8607 -0.4960
vn -0.1143 -0.8608 -0.4960
vn -0.3149 0.4062 -0.8578
vn -0.1942 0.4759 -0.8578
vn -0.5294 0.6882 -0.4960
vn -0.3311 0.8027 -0.4960
vn -0.1942 -0.4759 -0.8578
vn -0.3149 -0.4063 -0.8578
vn -0.3311 -0.8027 -0.4960
vn -0.5294 -0.6883 -0.4960
vn 0.5093 0.0695 -0.8578
vn 0.5093 -0.0695 -0.8578
vn 0.8607 0.1143 -0.4960
vn 0.8608 -0.1143 -0.4960
vn 0.4759 -0.1942 -0.8578
vn 0.4063 -0.3149 -0.8578
vn 0.8027 -0.3311 -0.4960
vn 0.6883 -0.5294 -0.4960
vn 0.3149 -0.4063 -0.8578
vn 0.1942 -0.4759 -0.8578
vn 0.5294 -0.6882 -0.4960
vn 0.3311 -0.8027 -0.4960
vn -0.5093 -0.0695 -0.8578
vn -0.5092 0.0695 -0.8578
vn -0.8607 -0.1143 -0.4960
vn -0.8607 0.1143 -0.4960
vn 0.4063 0.3149 -0.8578
vn 0.4759 0.1942 -0.8578
vn 0.6883 0.5294 -0.4960
vn 0.8027 0.3311 -0.4960
vn 0.1942 0.4759 -0.8578
vn 0.3149 0.4063 -0.8578
vn 0.3311 0.8027 -0.4960
vn 0.5295 0.6882 -0.4960
vt 0.007025 0.709966
vt 0.236601 0.710639
vt 0.236594 0.715988
vt 0.007041 0.715524
vt 0.007768 0.785363
vt 0.236909 0.782806
vt 0.236970 0.788793
vt 0.008436 0.791137
vt 0.007487 0.779906
vt 0.236857 0.777525
vt 0.007115 0.698424
vt 0.236631 0.699503
vt 0.236613 0.704854
vt 0.007117 0.703959
vt 0.236617 0.738256
vt 0.236636 0.744063
vt 0.007069 0.744963
vt 0.007116 0.738855
vt 0.236659 0.749402
vt 0.006955 0.750450
vt 0.007661 0.663942
vt 0.236854 0.666163
vt 0.236806 0.671435
vt 0.007400 0.669521
vt 0.236689 0.755196
vt 0.236722 0.760542
vt 0.007175 0.761970
vt 0.007051 0.756400
vt 0.236758 0.677257
vt 0.236719 0.682586
vt 0.007218 0.681145
vt 0.007327 0.675629
vt 0.008537 0.652415
vt 0.236969 0.654990
vt 0.236912 0.660267
vt 0.007964 0.657756
vt 0.007301 0.768108
vt 0.236763 0.766335
vt 0.236805 0.771626
vt 0.007278 0.773720
vt 0.007115 0.687042
vt 0.236682 0.688370
vt 0.236654 0.693720
vt 0.007195 0.692475
vt 0.006967 0.721559
vt 0.236592 0.721781
vt 0.236595 0.727071
vt 0.007007 0.727076
vt 0.236605 0.732971
vt 0.006984 0.733271
vt 0.581978 0.119201
vt 0.565730 0.131305
vt 0.563379 0.127253
vt 0.584346 0.099037
vt 0.579713 0.099027
vt 0.578921 0.096019
vt 0.585154 0.096034
vt 0.606043 0.109656
vt 0.606665 0.109424
vt 0.608262 0.115410
vt 0.607603 0.115519
vt 0.600411 0.133520
vt 0.598219 0.131326
vt 0.600546 0.127325
vt 0.603543 0.128137
vt 0.602116 0.121526
vt 0.602129 0.116884
vt 0.605137 0.116094
vt 0.605119 0.122337
vt 0.594112 0.102931
vt 0.590055 0.100578
vt 0.590863 0.097577
vt 0.596310 0.100731
vt 0.002809 0.767714
vt 0.002848 0.762375
vt 0.593537 0.291693
vt 0.590225 0.288443
vt 0.594732 0.282897
vt 0.599211 0.287387
vt 0.572143 0.143793
vt 0.565547 0.139975
vt 0.565969 0.139464
vt 0.572377 0.143174
vt 0.572666 0.142286
vt 0.573112 0.140766
vt 0.578824 0.142309
vt 0.578436 0.143846
vt 0.563546 0.133493
vt 0.560389 0.128062
vt 0.563470 0.104894
vt 0.565685 0.107089
vt 0.563336 0.111174
vt 0.560327 0.110380
vt 0.585705 0.145422
vt 0.578131 0.145418
vt 0.578241 0.144762
vt 0.585598 0.144769
vt 0.561826 0.116876
vt 0.561840 0.121579
vt 0.558843 0.122386
vt 0.558817 0.116083
vt 0.591546 0.143192
vt 0.591776 0.143813
vt 0.569877 0.135441
vt 0.573915 0.137776
vt 0.567694 0.137633
vt 0.585547 0.294556
vt 0.587462 0.296510
vt 0.578562 0.303422
vt 0.583066 0.293084
vt 0.580154 0.292209
vt 0.581126 0.284756
vt 0.586057 0.286120
vt 0.578541 0.094474
vt 0.585538 0.094491
vt 0.567099 0.318258
vt 0.562425 0.323703
vt 0.558052 0.319228
vt 0.563709 0.315051
vt 0.578241 0.092896
vt 0.585844 0.092919
vt 0.585735 0.093575
vt 0.578349 0.093555
vt 0.597419 0.099588
vt 0.601628 0.103815
vt 0.600479 0.104918
vt 0.566557 0.099527
vt 0.567673 0.100688
vt 0.562311 0.103779
vt 0.559959 0.300589
vt 0.561485 0.295919
vt 0.568191 0.298854
vt 0.567460 0.301735
vt 0.002895 0.750901
vt 0.002813 0.744620
vt 0.591837 0.094533
vt 0.591603 0.095158
vt 0.600616 0.111181
vt 0.598274 0.107109
vt 0.603621 0.110386
vt 0.596206 0.137691
vt 0.597308 0.138847
vt 0.591257 0.142303
vt 0.590820 0.140777
vt 0.590028 0.137785
vt 0.594030 0.135490
vt 0.004408 0.791682
vt 0.003570 0.786316
vt 0.002906 0.774343
vt 0.003154 0.779758
vt 0.002777 0.709428
vt 0.002882 0.704276
vt 0.598048 0.098893
vt 0.598470 0.098379
vt 0.602844 0.102764
vt 0.602328 0.103188
vt 0.002785 0.715858
vt 0.573907 0.100574
vt 0.569873 0.102898
vt 0.573114 0.097566
vt 0.002633 0.732766
vt 0.002715 0.727435
vt 0.579977 0.314607
vt 0.580921 0.322242
vt 0.575922 0.321992
vt 0.576961 0.314670
vt 0.569730 0.296351
vt 0.571701 0.294463
vt 0.574722 0.292832
vt 0.577256 0.292160
vt 0.597316 0.305826
vt 0.595974 0.311101
vt 0.588815 0.307967
vt 0.589753 0.304879
vt 0.606587 0.129116
vt 0.602760 0.135686
vt 0.602252 0.135266
vt 0.605963 0.128881
vt 0.003114 0.686593
vt 0.003052 0.692784
vt 0.557271 0.109421
vt 0.561093 0.102725
vt 0.561609 0.103147
vt 0.557895 0.109651
vt 0.002911 0.697873
vt 0.002696 0.721031
vt 0.566593 0.138770
vt 0.562409 0.134595
vt 0.601557 0.134635
vt 0.606662 0.122719
vt 0.605073 0.128586
vt 0.584240 0.139319
vt 0.579628 0.139313
vt 0.595909 0.296142
vt 0.597308 0.301017
vt 0.589814 0.301977
vt 0.589077 0.299051
vt 0.571625 0.312388
vt 0.569687 0.310379
vt 0.571041 0.320761
vt 0.574117 0.313769
vt 0.587313 0.310649
vt 0.585025 0.312788
vt 0.582630 0.314025
vt 0.572103 0.285602
vt 0.576378 0.284799
vt 0.597932 0.139545
vt 0.598349 0.140057
vt 0.593201 0.315502
vt 0.589147 0.318888
vt 0.552978 0.299597
vt 0.554623 0.293603
vt 0.585355 0.321061
vt 0.563860 0.291742
vt 0.567047 0.288550
vt 0.003043 0.681621
vt 0.003057 0.675241
vt 0.568108 0.307843
vt 0.567364 0.305048
vt 0.598968 0.319808
vt 0.594355 0.324219
vt 0.587982 0.327714
vt 0.581863 0.329233
vt 0.569085 0.279269
vt 0.575104 0.277683
vt 0.574652 0.329097
vt 0.568606 0.327389
vt 0.558270 0.287339
vt 0.562672 0.282952
vt 0.602842 0.293752
vt 0.604468 0.299837
vt 0.554504 0.312917
vt 0.552945 0.306948
vt 0.559985 0.306146
vt 0.561385 0.310711
vt 0.582315 0.277680
vt 0.588405 0.279281
vt 0.555734 0.123089
vt 0.555691 0.115412
vt 0.556350 0.115520
vt 0.556388 0.122978
vt 0.557270 0.115711
vt 0.558791 0.109941
vt 0.585029 0.142314
vt 0.604458 0.307336
vt 0.602775 0.313457
vt 0.003601 0.657685
vt 0.004597 0.651045
vt 0.003012 0.669953
vt 0.591310 0.096051
vt 0.606682 0.115711
vt 0.003181 0.663275
vt 0.561209 0.135640
vt 0.557359 0.129039
vt 0.557981 0.128805
vt 0.561719 0.135221
vt 0.565506 0.098309
vt 0.565927 0.098824
vt 0.572385 0.095135
vt 0.572155 0.094511
vt 0.002833 0.755925
vt 0.558870 0.128511
vt 0.557303 0.122778
vt 0.585403 0.143853
vt 0.002674 0.739331
vt 0.607579 0.122919
vt 0.608235 0.123030
vt 0.605149 0.109944
vt 0.572675 0.096030
vt 0.575087 0.277342
vt 0.582331 0.277339
vt 0.575074 0.276995
vt 0.582344 0.276992
vt 0.575057 0.276651
vt 0.582361 0.276645
vt 0.603084 0.313620
vt 0.599255 0.320002
vt 0.603398 0.313789
vt 0.599550 0.320196
vt 0.603714 0.313954
vt 0.599848 0.320398
vt 0.599501 0.287200
vt 0.603152 0.293595
vt 0.599799 0.287014
vt 0.603464 0.293433
vt 0.600095 0.286823
vt 0.603779 0.293274
vt 0.554320 0.293446
vt 0.557985 0.287153
vt 0.554013 0.293283
vt 0.557692 0.286966
vt 0.553702 0.293124
vt 0.557398 0.286773
vt 0.604814 0.299821
vt 0.604806 0.307355
vt 0.605168 0.299807
vt 0.605160 0.307371
vt 0.605518 0.299789
vt 0.605515 0.307390
vt 0.562487 0.282663
vt 0.568929 0.278962
vt 0.562302 0.282368
vt 0.568768 0.278652
vt 0.562113 0.282074
vt 0.568611 0.278340
vt 0.568446 0.327690
vt 0.562237 0.323985
vt 0.568281 0.327995
vt 0.562049 0.324274
vt 0.568119 0.328303
vt 0.561854 0.324566
vt 0.557764 0.319410
vt 0.554199 0.313070
vt 0.557469 0.319591
vt 0.553890 0.313228
vt 0.557176 0.319777
vt 0.553580 0.313382
vt 0.552605 0.306963
vt 0.552637 0.299578
vt 0.552259 0.306975
vt 0.552290 0.299562
vt 0.551916 0.306991
vt 0.551942 0.299542
vt 0.588561 0.278974
vt 0.594919 0.282609
vt 0.588722 0.278663
vt 0.595106 0.282314
vt 0.588879 0.278349
vt 0.595299 0.282015
vt 0.581874 0.329576
vt 0.574629 0.329437
vt 0.581881 0.329924
vt 0.574610 0.329784
vt 0.581893 0.330268
vt 0.574586 0.330131
vt 0.594536 0.324513
vt 0.588132 0.328022
vt 0.594717 0.324814
vt 0.588288 0.328335
vt 0.594902 0.325114
vt 0.588439 0.328650
vt 0.592059 0.144429
vt 0.585770 0.146122
vt 0.603335 0.136097
vt 0.598745 0.140623
vt 0.578068 0.146094
vt 0.571849 0.144431
vt 0.585912 0.092217
vt 0.592123 0.093916
vt 0.565156 0.140526
vt 0.560649 0.136040
vt 0.571868 0.093878
vt 0.578180 0.092219
vt 0.598879 0.097804
vt 0.603401 0.102372
vt 0.555000 0.115352
vt 0.556637 0.109133
vt 0.608937 0.123098
vt 0.607203 0.129404
vt 0.560523 0.102325
vt 0.565096 0.097728
vt 0.556734 0.129331
vt 0.555045 0.123156
vt 0.607308 0.109131
vt 0.608940 0.115350
s 1
usemtl tool_wrist
f 22/1/1 152/2/2 139/3/3 25/4/4
f 121/5/5 187/6/6 192/7/7 122/8/8
f 119/9/9 200/10/10 187/6/6 121/5/5
f 19/11/11 160/12/12 147/13/13 23/14/14
f 131/15/15 136/16/16 14/17/17 15/18/18
f 136/16/16 179/19/19 117/20/20 14/17/17
f 114/21/21 176/22/22 163/23/23 111/24/24
f 184/25/25 203/26/26 115/27/27 118/28/28
f 168/29/29 211/30/30 20/31/31 112/32/32
f 122/33/8 192/34/7 171/35/33 113/36/34
f 116/37/35 208/38/36 195/39/37 120/40/38
f 21/41/39 216/42/40 155/43/41 18/44/42
f 211/30/30 216/42/40 21/41/39 20/31/31
f 24/45/43 144/46/44 123/47/45 16/48/46
f 16/48/46 123/47/45 128/49/47 17/50/48
f 113/36/34 171/35/33 176/22/22 114/21/21
f 18/44/42 155/43/41 160/12/12 19/11/11
f 179/19/19 184/25/25 118/28/28 117/20/20
f 111/24/24 163/23/23 168/29/29 112/32/32
f 120/40/38 195/39/37 200/10/10 119/9/9
f 203/26/26 208/38/36 116/37/35 115/27/27
f 25/4/4 139/3/3 144/46/44 24/45/43
f 23/14/14 147/13/13 152/2/2 22/1/1
f 1/51/49 67/52/50 48/53/51
f 72/54/52 71/55/53 2/56/54 5/57/55
f 232/58/56 277/59/57 276/60/58 233/61/59
f 13/62/60 36/63/61 79/64/62 10/65/63
f 78/66/64 77/67/65 8/68/66 11/69/67
f 74/70/68 73/71/69 4/72/70 7/73/71
f 116/37/72 275/74/73 278/75/74 115/27/75
f 107/76/76 33/77/76 180/78/77 135/79/78
f 298/80/79 293/81/80 254/82/81 247/83/82
f 248/84/83 40/85/84 41/86/85 249/87/86
f 48/53/51 67/52/50 42/88/87 44/89/88
f 53/90/89 68/91/90 47/92/91 50/93/92
f 300/94/93 295/95/94 250/96/95 245/97/96
f 46/98/97 49/99/98 45/100/99 51/101/100
f 244/102/101 301/103/102 300/94/93 245/97/96
f 66/104/103 65/105/104 40/85/84 43/106/105
f 85/107/106 83/108/107 80/109/76
f 86/110/108 61/111/109 30/112/110 32/113/111
f 2/56/54 222/114/112 223/115/113 5/57/55
f 96/116/76 212/117/114 167/118/115 26/119/76
f 290/120/116 283/121/117 224/122/118 221/123/119
f 7/73/71 227/124/120 230/125/121 6/126/122
f 262/127/123 52/128/124 53/90/89 259/129/125
f 100/130/126 97/131/127 59/132/128 56/133/126
f 274/134/129 285/135/130 14/17/131 117/20/132
f 224/122/118 283/121/117 286/136/133 225/137/134
f 76/138/135 75/139/136 6/126/122 9/140/137
f 12/141/138 238/142/139 243/143/140 39/144/141
f 34/145/142 37/146/143 12/141/138 39/144/141
f 122/8/144 303/147/145 306/148/146 121/5/147
f 280/149/148 120/40/149 119/9/150 281/150/151
f 22/1/152 307/151/153 310/152/154 23/14/155
f 228/153/156 273/154/157 272/155/158 229/156/159
f 280/149/148 275/74/73 116/37/72 120/40/149
f 25/4/160 270/157/161 307/151/153 22/1/152
f 70/158/162 69/159/163 52/128/124 3/160/164
f 17/50/165 289/161/166 288/162/167 16/48/168
f 94/163/169 92/164/170 91/165/171 93/166/172
f 80/109/76 56/133/173 59/132/174
f 86/110/175 80/109/76 61/111/176
f 80/109/76 58/167/177 29/168/178
f 28/169/179 60/170/180 80/109/76
f 106/171/181 103/172/182 88/173/182 81/174/183
f 282/175/184 305/176/185 236/177/186 241/178/187
f 291/179/188 21/41/189 18/44/190 312/180/191
f 308/181/192 269/182/193 260/183/194 265/184/195
f 1/51/49 47/92/91 68/91/90
f 19/11/196 313/185/197 312/180/191 18/44/190
f 288/162/167 267/186/198 24/45/199 16/48/168
f 43/106/105 253/187/200 252/188/201 42/88/87
f 238/142/139 12/141/138 13/62/60 235/189/202
f 11/69/67 239/190/203 242/191/204 10/65/63
f 1/51/49 35/192/205 64/193/206
f 108/194/207 105/195/208 82/196/209 84/197/210
f 80/109/76 63/198/211 54/199/212
f 91/165/171 95/200/213 62/201/214 93/166/172
f 96/116/215 26/119/216 54/199/217 63/198/218
f 80/109/76 87/202/219 89/203/220
f 85/107/221 33/77/222 107/76/223 83/108/224
f 90/204/225 94/163/226 80/109/76
f 1/51/49 65/105/104 66/104/103
f 80/109/76 84/197/227 82/196/228
f 110/205/229 31/206/230 60/170/231 28/169/232
f 286/136/133 273/154/157 228/153/156 225/137/134
f 1/51/49 37/146/143 34/145/142
f 237/207/233 304/208/234 301/103/102 244/102/101
f 89/203/235 87/202/236 104/209/236 101/210/237
f 80/109/76 93/166/238 62/201/239
f 100/130/76 172/211/240 191/212/241 97/131/76
f 102/213/242 92/164/170 94/163/169 90/204/243
f 98/214/244 109/215/245 29/168/246 58/167/247
f 294/216/248 297/217/249 112/32/250 20/31/251
f 80/109/76 55/218/252 57/219/253
f 140/220/254 151/221/255 101/210/76 104/209/76
f 102/213/76 148/222/256 159/223/257 92/164/76
f 110/205/76 196/224/258 207/225/259 31/206/76
f 156/226/260 215/227/261 95/200/76 91/165/76
f 188/228/262 199/229/263 109/215/76 98/214/76
f 108/194/76 132/230/264 127/231/265 105/195/76
f 164/232/266 175/233/267 99/234/76 27/235/76
f 204/236/268 183/237/269 32/113/76 30/112/76
f 314/238/270 309/239/271 264/240/272 257/241/273
f 1/51/49 73/71/69 74/70/68
f 1/51/49 49/99/98 46/98/97
f 1/51/49 71/55/53 72/54/52
f 81/174/274 88/173/275 80/109/76
f 51/101/100 263/242/276 266/243/277 50/93/92
f 1/51/49 79/64/62 36/63/61
f 1/51/49 69/159/163 70/158/162
f 64/193/206 35/192/205 38/244/278 41/86/85
f 1/51/49 75/139/136 76/138/135
f 1/51/49 77/67/65 78/66/64
f 250/96/95 295/95/94 298/80/79 247/83/82
f 34/145/142 35/192/205 1/51/49
f 36/63/61 37/146/143 1/51/49
f 46/98/97 47/92/91 1/51/49
f 48/53/51 49/99/98 1/51/49
f 64/193/206 65/105/104 1/51/49
f 66/104/103 67/52/50 1/51/49
f 68/91/90 69/159/163 1/51/49
f 70/158/162 71/55/53 1/51/49
f 72/54/52 73/71/69 1/51/49
f 74/70/68 75/139/136 1/51/49
f 76/138/135 77/67/65 1/51/49
f 78/66/64 79/64/62 1/51/49
f 106/171/76 124/245/279 143/246/280 103/172/76
f 235/189/202 13/62/60 10/65/63 242/191/204
f 302/247/281 303/248/145 122/33/144 113/36/282
f 236/177/186 305/176/185 304/208/234 237/207/233
f 112/32/250 297/217/249 296/249/283 111/24/284
f 21/41/189 291/179/188 294/216/248 20/31/251
f 98/214/76 97/131/76 191/212/241 188/228/262
f 19/11/196 23/14/155 310/152/154 313/185/197
f 4/72/70 226/250/285 227/124/120 7/73/71
f 45/100/99 49/99/98 48/53/51 44/89/88
f 40/85/84 248/84/83 253/187/200 43/106/105
f 46/98/97 51/101/100 50/93/92 47/92/91
f 8/68/66 234/251/286 239/190/203 11/69/67
f 226/250/285 4/72/70 5/57/55 223/115/113
f 91/165/76 92/164/76 159/223/257 156/226/260
f 111/24/284 296/249/283 299/252/287 114/21/288
f 96/116/76 95/200/76 215/227/261 212/117/114
f 292/253/289 311/254/290 256/255/291 251/256/292
f 29/168/246 109/215/245 110/205/229 28/169/232
f 260/183/194 269/182/193 268/257/293 261/258/294
f 254/82/81 293/81/80 292/253/289 251/256/292
f 33/77/76 32/113/76 183/237/269 180/78/77
f 27/235/76 26/119/76 167/118/115 164/232/266
f 220/259/295 287/260/296 290/120/116 221/123/119
f 115/27/75 278/75/74 271/261/297 118/28/298
f 102/213/76 101/210/76 151/221/255 148/222/256
f 259/129/125 53/90/89 50/93/92 266/243/277
f 272/155/158 277/59/57 232/58/56 229/156/159
f 42/88/87 252/188/201 255/262/299 44/89/88
f 45/100/99 258/263/300 263/242/276 51/101/100
f 264/240/272 309/239/271 308/181/192 265/184/195
f 302/247/281 113/36/282 114/21/288 299/252/287
f 121/5/147 306/148/146 281/150/151 119/9/150
f 34/145/142 39/144/141 38/244/278 35/192/205
f 39/144/141 243/143/140 246/264/301 38/244/278
f 78/66/64 11/69/67 10/65/63 79/64/62
f 82/196/209 105/195/208 106/171/181 81/174/183
f 100/130/76 99/234/76 175/233/267 172/211/240
f 59/132/128 97/131/127 98/214/244 58/167/247
f 57/219/302 99/234/303 100/130/126 56/133/126
f 38/244/278 246/264/301 249/87/86 41/86/85
f 81/174/274 80/109/76 82/196/228
f 80/109/76 59/132/174 58/167/177
f 88/173/182 103/172/182 104/209/236 87/202/236
f 96/116/215 63/198/218 62/201/214 95/200/213
f 36/63/61 13/62/60 12/141/138 37/146/143
f 86/110/108 32/113/111 33/77/222 85/107/221
f 89/203/235 101/210/237 102/213/242 90/204/243
f 14/17/131 285/135/130 284/265/304 15/18/305
f 8/68/66 77/67/65 76/138/135 9/140/137
f 80/109/76 60/170/180 61/111/176
f 261/258/294 268/257/293 287/260/296 220/259/295
f 15/18/305 284/265/304 289/161/166 17/50/165
f 80/109/76 83/108/107 84/197/227
f 56/133/173 80/109/76 57/219/253
f 118/28/298 271/261/297 274/134/129 117/20/132
f 90/204/225 80/109/76 89/203/220
f 66/104/103 43/106/105 42/88/87 67/52/50
f 40/85/84 65/105/104 64/193/206 41/86/85
f 240/266/306 279/267/307 282/175/184 241/178/187
f 80/109/76 54/199/212 55/218/252
f 80/109/76 88/173/275 87/202/219
f 80/109/76 86/110/175 85/107/106
f 74/70/68 7/73/71 6/126/122 75/139/136
f 4/72/70 73/71/69 72/54/52 5/57/55
f 258/263/300 45/100/99 44/89/88 255/262/299
f 106/171/76 105/195/76 127/231/265 124/245/279
f 108/194/76 107/76/76 135/79/78 132/230/264
f 63/198/211 80/109/76 62/201/239
f 108/194/207 84/197/210 83/108/224 107/76/223
f 27/235/308 55/218/309 54/199/217 26/119/216
f 256/255/291 311/254/290 314/238/270 257/241/273
f 276/60/58 279/267/307 240/266/306 233/61/59
f 80/109/76 94/163/226 93/166/238
f 60/170/231 31/206/230 30/112/110 61/111/109
f 68/91/90 53/90/89 52/128/124 69/159/163
f 30/112/76 31/206/76 207/225/259 204/236/268
f 28/169/179 80/109/76 29/168/178
f 110/205/76 109/215/76 199/229/263 196/224/258
f 6/126/122 230/125/121 231/268/310 9/140/137
f 234/251/286 8/68/66 9/140/137 231/268/310
f 70/158/162 3/160/164 2/56/54 71/55/53
f 27/235/308 99/234/303 57/219/302 55/218/309
f 52/128/124 262/127/123 219/269/311 3/160/164
f 204/236/268 207/225/259 209/270/312 206/271/313
f 206/271/313 209/270/312 210/272/314 205/273/315
f 205/273/315 210/272/314 208/274/36 203/275/26
f 140/220/254 143/246/280 145/276/316 142/277/317
f 142/277/317 145/276/316 146/278/318 141/279/319
f 141/279/319 146/278/318 144/280/44 139/281/3
f 132/230/264 135/79/78 137/282/320 134/283/321
f 134/283/321 137/282/320 138/284/322 133/285/323
f 133/285/323 138/284/322 136/286/16 131/287/15
f 188/228/262 191/212/241 193/288/324 190/289/325
f 190/289/325 193/288/324 194/290/326 189/291/327
f 189/291/327 194/290/326 192/292/7 187/293/6
f 124/245/279 127/231/265 129/294/328 126/295/329
f 126/295/329 129/294/328 130/296/330 125/297/331
f 125/297/331 130/296/330 128/298/47 123/299/45
f 196/224/258 199/229/263 201/300/332 198/301/333
f 198/301/333 201/300/332 202/302/334 197/303/335
f 197/303/335 202/302/334 200/304/10 195/305/37
f 212/117/114 215/227/261 217/306/336 214/307/337
f 214/307/337 217/306/336 218/308/338 213/309/339
f 213/309/339 218/308/338 216/310/40 211/311/30
f 164/232/266 167/118/115 169/312/340 166/313/341
f 166/313/341 169/312/340 170/314/342 165/315/343
f 165/315/343 170/314/342 168/316/29 163/317/23
f 172/211/240 175/233/267 177/318/344 174/319/345
f 174/319/345 177/318/344 178/320/346 173/321/347
f 173/321/347 178/320/346 176/322/22 171/323/33
f 180/78/77 183/237/269 185/324/348 182/325/349
f 182/325/349 185/324/348 186/326/350 181/327/351
f 181/327/351 186/326/350 184/328/25 179/329/19
f 156/226/260 159/223/257 161/330/352 158/331/353
f 158/331/353 161/330/352 162/332/354 157/333/355
f 157/333/355 162/332/354 160/334/12 155/335/41
f 148/222/256 151/221/255 153/336/356 150/337/357
f 150/337/357 153/336/356 154/338/358 149/339/359
f 149/339/359 154/338/358 152/340/2 147/341/13
f 123/299/45 144/280/44 146/278/318 125/297/331
f 125/297/331 146/278/318 145/276/316 126/295/329
f 126/295/329 145/276/316 143/246/280 124/245/279
f 127/231/265 132/230/264 134/283/321 129/294/328
f 129/294/328 134/283/321 133/285/323 130/296/330
f 130/296/330 133/285/323 131/287/15 128/298/47
f 135/79/78 180/78/77 182/325/349 137/282/320
f 137/282/320 182/325/349 181/327/351 138/284/322
f 138/284/322 181/327/351 179/329/19 136/286/16
f 151/221/255 140/220/254 142/277/317 153/336/356
f 153/336/356 142/277/317 141/279/319 154/338/358
f 154/338/358 141/279/319 139/281/3 152/340/2
f 147/341/13 160/334/12 162/332/354 149/339/359
f 149/339/359 162/332/354 161/330/352 150/337/357
f 150/337/357 161/330/352 159/223/257 148/222/256
f 155/335/41 216/310/40 218/308/338 157/333/355
f 157/333/355 218/308/338 217/306/336 158/331/353
f 158/331/353 217/306/336 215/227/261 156/226/260
f 163/317/23 176/322/22 178/320/346 165/315/343
f 165/315/343 178/320/346 177/318/344 166/313/341
f 166/313/341 177/318/344 175/233/267 164/232/266
f 167/118/115 212/117/114 214/307/337 169/312/340
f 169/312/340 214/307/337 213/309/339 170/314/342
f 170/314/342 213/309/339 211/311/30 168/316/29
f 171/323/33 192/292/7 194/290/326 173/321/347
f 173/321/347 194/290/326 193/288/324 174/319/345
f 174/319/345 193/288/324 191/212/241 172/211/240
f 183/237/269 204/236/268 206/271/313 185/324/348
f 185/324/348 206/271/313 205/273/315 186/326/350
f 186/326/350 205/273/315 203/275/26 184/328/25
f 187/293/6 200/304/10 202/302/334 189/291/327
f 189/291/327 202/302/334 201/300/332 190/289/325
f 190/289/325 201/300/332 199/229/263 188/228/262
f 207/225/259 196/224/258 198/301/333 209/270/312
f 209/270/312 198/301/333 197/303/335 210/272/314
f 210/272/314 197/303/335 195/305/37 208/274/36
f 236/177/186 237/207/233 238/142/139 235/189/202
f 248/84/83 249/87/86 250/96/95 247/83/82
f 220/259/295 221/123/119 222/114/112 219/269/311
f 264/240/272 265/184/195 266/243/277 263/242/276
f 224/122/118 225/137/134 226/250/285 223/115/113
f 232/58/56 233/61/59 234/251/286 231/268/310
f 252/188/201 253/187/200 254/82/81 251/256/292
f 228/153/156 229/156/159 230/125/121 227/124/120
f 260/183/194 261/258/294 262/127/123 259/129/125
f 256/255/291 257/241/273 258/263/300 255/262/299
f 244/102/101 245/97/96 246/264/301 243/143/140
f 240/266/306 241/178/187 242/191/204 239/190/203
f 219/269/311 262/127/123 261/258/294 220/259/295
f 259/129/125 266/243/277 265/184/195 260/183/194
f 227/124/120 226/250/285 225/137/134 228/153/156
f 231/268/310 230/125/121 229/156/159 232/58/56
f 239/190/203 234/251/286 233/61/59 240/266/306
f 221/123/119 224/122/118 223/115/113 222/114/112
f 241/178/187 236/177/186 235/189/202 242/191/204
f 237/207/233 244/102/101 243/143/140 238/142/139
f 245/97/96 250/96/95 249/87/86 246/264/301
f 253/187/200 248/84/83 247/83/82 254/82/81
f 251/256/292 256/255/291 255/262/299 252/188/201
f 263/242/276 258/263/300 257/241/273 264/240/272
f 3/160/164 219/269/311 222/114/112 2/56/54
f 300/94/93 301/103/102 302/342/281 299/343/287
f 304/208/234 305/176/185 306/344/146 303/345/145
f 296/346/283 297/347/249 298/80/79 295/95/94
f 284/348/304 285/349/130 286/136/133 283/121/117
f 292/253/289 293/81/80 294/350/248 291/351/188
f 288/352/167 289/353/166 290/120/116 287/260/296
f 272/155/158 273/154/157 274/354/129 271/355/297
f 308/181/192 309/239/271 310/356/154 307/357/153
f 280/358/148 281/359/151 282/175/184 279/267/307
f 268/257/293 269/182/193 270/360/161 267/361/198
f 312/362/191 313/363/197 314/238/270 311/254/290
f 276/60/58 277/59/57 278/364/74 275/365/73
f 267/361/198 288/352/167 287/260/296 268/257/293
f 307/357/153 270/360/161 269/182/193 308/181/192
f 277/59/57 272/155/158 271/355/297 278/364/74
f 273/154/157 286/136/133 285/349/130 274/354/129
f 275/365/73 280/358/148 279/267/307 276/60/58
f 289/353/166 284/348/304 283/121/117 290/120/116
f 303/345/145 302/342/281 301/103/102 304/208/234
f 281/359/151 306/344/146 305/176/185 282/175/184
f 309/239/271 314/238/270 313/363/197 310/356/154
f 311/254/290 292/253/289 291/351/188 312/362/191
f 293/81/80 298/80/79 297/347/249 294/350/248
f 299/343/287 296/346/283 295/95/94 300/94/93
f 24/45/199 267/186/198 270/157/161 25/4/160
f 104/209/76 103/172/76 143/246/280 140/220/254
f 128/49/47 131/15/15 15/18/18 17/50/48
