# Blender 5.2.0 LTS
# www.blender.org
mtllib wrist_yaw_0112.mtl
o tool_wrist.001
v 0.000000 0.125975 -0.041777
v 0.005085 0.132626 -0.041641
v 0.003217 0.133704 -0.041641
v 0.007725 0.129209 -0.041641
v 0.006663 0.131048 -0.041641
v 0.008308 0.124916 -0.041641
v 0.008308 0.127034 -0.041641
v 0.006665 0.120904 -0.041641
v 0.007724 0.122738 -0.041641
v 0.003217 0.118246 -0.041641
v 0.005085 0.119324 -0.041641
v -0.001061 0.117669 -0.041642
v 0.001061 0.117669 -0.041642
v 0.007220 0.128918 -0.039671
v 0.006159 0.130756 -0.039671
v 0.002926 0.133199 -0.039671
v 0.004794 0.132121 -0.039671
v -0.007219 0.128921 -0.039671
v -0.006161 0.130753 -0.039671
v -0.007725 0.124917 -0.039671
v -0.007725 0.127033 -0.039671
v -0.002946 0.133194 -0.039671
v -0.004778 0.132136 -0.039671
v 0.001059 0.133700 -0.039671
v -0.001059 0.133700 -0.039671
v -0.005143 0.123957 0.040173
v -0.004419 0.122704 0.040173
v 0.003546 0.121720 0.037490
v 0.002072 0.120869 0.037490
v 0.005099 0.123877 0.040173
v 0.004401 0.122668 0.040173
v 0.005449 0.125328 0.040173
v 0.005464 0.126715 0.040173
v -0.002665 0.119202 -0.041777
v -0.004533 0.120280 -0.041777
v 0.001061 0.118773 -0.041777
v -0.001061 0.118773 -0.041777
v -0.005085 0.119324 -0.041641
v -0.003217 0.118246 -0.041641
v -0.007725 0.122744 -0.041641
v -0.006661 0.120900 -0.041641
v -0.008308 0.127033 -0.041641
v -0.008308 0.124918 -0.041641
v -0.007723 0.129213 -0.041641
v -0.006666 0.131045 -0.041641
v -0.004518 0.131685 -0.041777
v -0.002686 0.132743 -0.041777
v -0.006767 0.128661 -0.041777
v -0.005710 0.130493 -0.041777
v -0.003238 0.133698 -0.041641
v -0.005070 0.132641 -0.041641
v 0.001059 0.134281 -0.041642
v -0.001059 0.134281 -0.041642
v -0.005144 0.123964 0.037490
v -0.004415 0.122701 0.037490
v -0.002042 0.120851 0.037490
v -0.003457 0.121668 0.037490
v 0.000798 0.120514 0.037490
v -0.000633 0.120514 0.037490
v 0.004394 0.122664 0.037490
v 0.005100 0.123885 0.037490
v -0.005461 0.126667 0.037490
v -0.005461 0.125284 0.037490
v -0.005705 0.121452 -0.041777
v -0.006769 0.123296 -0.041777
v -0.007203 0.124918 -0.041777
v -0.007203 0.127033 -0.041777
v -0.001059 0.133178 -0.041777
v 0.001059 0.133178 -0.041777
v 0.002665 0.132748 -0.041777
v 0.004533 0.131670 -0.041777
v 0.005708 0.130496 -0.041777
v 0.006769 0.128658 -0.041777
v 0.007203 0.127034 -0.041777
v 0.007203 0.124916 -0.041777
v 0.006768 0.123290 -0.041777
v 0.005710 0.121456 -0.041777
v 0.004534 0.120280 -0.041777
v 0.002665 0.119202 -0.041777
v 0.000000 0.125968 0.037132
v 0.002156 0.131033 0.037490
v 0.003375 0.130330 0.037490
v 0.005133 0.128006 0.037490
v 0.004399 0.129277 0.037490
v 0.005461 0.126723 0.037490
v 0.005447 0.125324 0.037490
v -0.000865 0.131439 0.037490
v 0.000633 0.131439 0.037490
v -0.002311 0.130937 0.037490
v -0.003441 0.130294 0.037490
v -0.005093 0.128083 0.040173
v -0.004365 0.129345 0.040173
v -0.005094 0.128074 0.037490
v -0.004357 0.129350 0.037490
v -0.005464 0.126660 0.040173
v -0.005464 0.125292 0.040173
v -0.000628 0.120511 0.040173
v 0.000791 0.120511 0.040173
v -0.003457 0.121667 0.040173
v -0.002044 0.120851 0.040173
v -0.002317 0.130938 0.040173
v -0.003436 0.130302 0.040173
v 0.000633 0.131439 0.040173
v -0.000865 0.131439 0.040173
v 0.003374 0.130331 0.040173
v 0.002158 0.131033 0.040173
v 0.005132 0.128014 0.040173
v 0.004405 0.129273 0.040173
v 0.002074 0.120868 0.040173
v 0.003546 0.121718 0.040173
v -0.006156 0.121191 -0.039671
v -0.007221 0.123036 -0.039671
v -0.002926 0.118751 -0.039671
v -0.004793 0.119829 -0.039671
v 0.007219 0.123030 -0.039671
v 0.006160 0.121196 -0.039671
v 0.007725 0.127034 -0.039671
v 0.007725 0.124916 -0.039671
v 0.002926 0.118751 -0.039671
v 0.004794 0.119829 -0.039671
v 0.001061 0.118251 -0.039671
v -0.001061 0.118251 -0.039671
v 0.002926 0.133200 0.039984
v 0.002829 0.133031 0.040173
v 0.002909 0.133179 0.040079
v 0.002873 0.133117 0.040148
v 0.004697 0.131953 0.040173
v 0.004794 0.132122 0.039984
v 0.004749 0.132034 0.040148
v 0.004785 0.132096 0.040079
v 0.006160 0.130757 0.039984
v 0.005991 0.130659 0.040173
v 0.006134 0.130747 0.040079
v 0.006072 0.130711 0.040148
v 0.007052 0.128821 0.040173
v 0.007221 0.128918 0.039984
v 0.007137 0.128865 0.040148
v 0.007199 0.128901 0.040079
v -0.001059 0.133700 0.039984
v -0.001059 0.133505 0.040173
v -0.001063 0.133672 0.040079
v -0.001063 0.133601 0.040148
v 0.001059 0.133505 0.040173
v 0.001059 0.133700 0.039984
v 0.001064 0.133601 0.040148
v 0.001064 0.133673 0.040079
v -0.004779 0.132137 0.039984
v -0.004681 0.131968 0.040173
v -0.004769 0.132111 0.040079
v -0.004733 0.132049 0.040148
v -0.002850 0.133026 0.040173
v -0.002947 0.133194 0.039984
v -0.002894 0.133111 0.040148
v -0.002930 0.133173 0.040079
v -0.007219 0.128922 0.039984
v -0.007051 0.128825 0.040173
v -0.007198 0.128904 0.040079
v -0.007136 0.128869 0.040148
v -0.005993 0.130656 0.040173
v -0.006162 0.130754 0.039984
v -0.006074 0.130708 0.040148
v -0.006136 0.130744 0.040079
v -0.006157 0.121191 0.039984
v -0.005988 0.121288 0.040173
v -0.006131 0.121201 0.040079
v -0.006069 0.121236 0.040148
v -0.007052 0.123133 0.040173
v -0.007221 0.123035 0.039984
v -0.007138 0.123089 0.040148
v -0.007200 0.123053 0.040079
v -0.002926 0.118750 0.039984
v -0.002829 0.118919 0.040173
v -0.002908 0.118771 0.040079
v -0.002873 0.118833 0.040148
v -0.004697 0.119997 0.040173
v -0.004794 0.119828 0.039984
v -0.004749 0.119916 0.040148
v -0.004784 0.119854 0.040079
v 0.007725 0.127034 0.039984
v 0.007530 0.127034 0.040173
v 0.007698 0.127038 0.040079
v 0.007626 0.127038 0.040148
v 0.007530 0.124916 0.040173
v 0.007725 0.124916 0.039984
v 0.007626 0.124912 0.040148
v 0.007698 0.124912 0.040079
v 0.001061 0.118251 0.039984
v 0.001061 0.118446 0.040173
v 0.001066 0.118278 0.040079
v 0.001066 0.118349 0.040148
v -0.001061 0.118446 0.040173
v -0.001061 0.118251 0.039984
v -0.001066 0.118349 0.040148
v -0.001066 0.118278 0.040079
v 0.004794 0.119828 0.039984
v 0.004697 0.119997 0.040173
v 0.004785 0.119854 0.040079
v 0.004749 0.119916 0.040148
v 0.002829 0.118919 0.040173
v 0.002926 0.118750 0.039984
v 0.002873 0.118833 0.040148
v 0.002909 0.118771 0.040079
v 0.007220 0.123029 0.039984
v 0.007051 0.123127 0.040173
v 0.007199 0.123047 0.040079
v 0.007137 0.123083 0.040148
v 0.005993 0.121293 0.040173
v 0.006161 0.121195 0.039984
v 0.006074 0.121241 0.040148
v 0.006136 0.121205 0.040079
v -0.007725 0.124917 0.039984
v -0.007530 0.124917 0.040173
v -0.007698 0.124913 0.040079
v -0.007626 0.124913 0.040148
v -0.007530 0.127033 0.040173
v -0.007725 0.127033 0.039984
v -0.007626 0.127037 0.040148
v -0.007698 0.127037 0.040079
v 0.003459 0.134123 -0.041358
v 0.003557 0.134293 -0.041103
v 0.005425 0.133214 -0.041104
v 0.005327 0.133044 -0.041358
v 0.007082 0.131289 -0.041358
v 0.007252 0.131388 -0.041103
v 0.008313 0.129549 -0.041104
v 0.008143 0.129451 -0.041358
v 0.008791 0.127034 -0.041358
v 0.008988 0.127034 -0.041103
v 0.008988 0.124916 -0.041104
v 0.008791 0.124916 -0.041358
v 0.008142 0.122497 -0.041358
v 0.008313 0.122398 -0.041103
v 0.007254 0.120564 -0.041104
v 0.007084 0.120663 -0.041358
v 0.001061 0.117184 -0.041357
v 0.001061 0.116988 -0.041102
v -0.001061 0.116988 -0.041102
v -0.001061 0.117184 -0.041357
v 0.005327 0.118906 -0.041358
v 0.005425 0.118736 -0.041103
v 0.003557 0.117657 -0.041103
v 0.003459 0.117827 -0.041358
v -0.003459 0.117827 -0.041358
v -0.003557 0.117657 -0.041103
v -0.005425 0.118736 -0.041103
v -0.005327 0.118906 -0.041358
v -0.008314 0.122404 -0.041103
v -0.008144 0.122503 -0.041358
v -0.007079 0.120658 -0.041358
v -0.007249 0.120560 -0.041104
v -0.008988 0.127033 -0.041103
v -0.008791 0.127033 -0.041358
v -0.008791 0.124918 -0.041358
v -0.008988 0.124918 -0.041104
v -0.008142 0.129455 -0.041358
v -0.008312 0.129553 -0.041104
v -0.007255 0.131385 -0.041103
v -0.007084 0.131286 -0.041358
v -0.001059 0.134767 -0.041357
v -0.001059 0.134963 -0.041102
v 0.001059 0.134963 -0.041102
v 0.001059 0.134767 -0.041357
v -0.005311 0.133060 -0.041358
v -0.005410 0.133230 -0.041104
v -0.003578 0.134288 -0.041103
v -0.003480 0.134117 -0.041358
v 0.001059 0.134950 -0.040676
v 0.001059 0.135021 -0.040890
v -0.001059 0.135021 -0.040890
v -0.001059 0.134950 -0.040676
v 0.008975 0.124916 -0.040676
v 0.009046 0.124916 -0.040890
v 0.009046 0.127034 -0.040890
v 0.008975 0.127034 -0.040676
v 0.007243 0.120571 -0.040676
v 0.007304 0.120535 -0.040890
v 0.008363 0.122369 -0.040890
v 0.008302 0.122405 -0.040676
v 0.005454 0.118685 -0.040890
v 0.005419 0.118747 -0.040676
v 0.003551 0.117668 -0.040676
v 0.003586 0.117607 -0.040890
v 0.007303 0.131417 -0.040890
v 0.007241 0.131381 -0.040676
v 0.008302 0.129543 -0.040676
v 0.008364 0.129579 -0.040890
v 0.003586 0.134343 -0.040890
v 0.003551 0.134282 -0.040676
v 0.005419 0.133203 -0.040676
v 0.005454 0.133265 -0.040890
v -0.008975 0.127033 -0.040676
v -0.009046 0.127033 -0.040890
v -0.009046 0.124918 -0.040890
v -0.008975 0.124918 -0.040676
v -0.007300 0.120531 -0.040890
v -0.007238 0.120566 -0.040676
v -0.008303 0.122411 -0.040676
v -0.008364 0.122375 -0.040890
v -0.005419 0.118747 -0.040676
v -0.005454 0.118685 -0.040890
v -0.003586 0.117607 -0.040890
v -0.003551 0.117668 -0.040676
v -0.001061 0.117001 -0.040676
v -0.001061 0.116930 -0.040890
v 0.001061 0.116930 -0.040890
v 0.001061 0.117001 -0.040676
v -0.003572 0.134276 -0.040676
v -0.003607 0.134338 -0.040890
v -0.005439 0.133280 -0.040890
v -0.005403 0.133219 -0.040676
v -0.008363 0.129582 -0.040890
v -0.008301 0.129547 -0.040676
v -0.007244 0.131378 -0.040676
v -0.007305 0.131414 -0.040890
vn -0.3396 0.8289 0.4446
vn -0.3820 0.9142 0.1353
vn -0.1261 0.9827 0.1353
vn -0.1203 0.8876 0.4445
vn 0.1202 -0.8877 0.4445
vn 0.1261 -0.9827 0.1355
vn -0.1261 -0.9827 0.1355
vn -0.1202 -0.8877 0.4445
vn 0.3396 -0.8289 0.4445
vn 0.3820 -0.9142 0.1354
vn -0.7086 0.5480 0.4446
vn -0.7880 0.6006 0.1353
vn -0.6006 0.7880 0.1353
vn -0.5480 0.7086 0.4446
vn 0.7880 0.6006 0.1354
vn 0.9142 0.3820 0.1354
vn 0.8289 0.3396 0.4445
vn 0.7086 0.5480 0.4445
vn 0.9827 0.1261 0.1354
vn 0.8877 0.1202 0.4445
vn -0.5480 -0.7086 0.4445
vn -0.6006 -0.7880 0.1354
vn -0.7880 -0.6006 0.1353
vn -0.7086 -0.5480 0.4445
vn 0.9827 -0.1261 0.1354
vn 0.9142 -0.3820 0.1354
vn 0.8289 -0.3396 0.4445
vn 0.8877 -0.1202 0.4445
vn -0.9142 -0.3820 0.1354
vn -0.9827 -0.1261 0.1354
vn -0.8877 -0.1202 0.4445
vn -0.8289 -0.3396 0.4445
vn -0.3820 -0.9142 0.1354
vn -0.3396 -0.8289 0.4445
vn 0.7086 -0.5480 0.4445
vn 0.7880 -0.6006 0.1353
vn 0.6006 -0.7880 0.1354
vn 0.5480 -0.7086 0.4445
vn -0.8877 0.1202 0.4445
vn -0.9827 0.1261 0.1354
vn -0.9142 0.3820 0.1354
vn -0.8289 0.3396 0.4445
vn 0.1202 0.8877 0.4445
vn 0.1261 0.9827 0.1354
vn 0.3820 0.9142 0.1353
vn 0.3396 0.8289 0.4445
vn 0.6006 0.7880 0.1354
vn 0.5480 0.7086 0.4445
vn -0.0000 -0.0000 -1.0000
vn -0.0663 0.0096 -0.9978
vn -0.0623 0.0249 -0.9977
vn 0.0527 0.0415 -0.9977
vn 0.0415 0.0527 -0.9977
vn 0.2077 0.2668 -0.9411
vn 0.2668 0.2077 -0.9411
vn 0.8307 -0.3451 -0.4368
vn 0.9224 -0.3854 0.0261
vn 0.7949 -0.6062 0.0261
vn 0.7142 -0.5469 -0.4369
vn 0.0465 -0.3351 -0.9410
vn 0.0096 -0.0661 -0.9978
vn 0.0249 -0.0621 -0.9978
vn 0.1272 -0.3134 -0.9411
vn 0.0415 -0.0527 -0.9977
vn 0.0527 -0.0415 -0.9977
vn 0.2668 -0.2077 -0.9411
vn 0.2077 -0.2668 -0.9411
vn 0.0663 0.0096 -0.9978
vn 0.0623 0.0249 -0.9977
vn 0.3133 0.1272 -0.9411
vn 0.3349 0.0465 -0.9411
vn 0.6593 -0.5051 0.5569
vn 0.7671 -0.3184 0.5569
vn -0.0000 -0.0000 1.0000
vn 0.1374 0.0191 0.9903
vn 0.1286 0.0521 0.9903
vn -0.9224 -0.3854 0.0260
vn -0.9915 -0.1275 0.0261
vn -0.8919 -0.1165 -0.4369
vn -0.8307 -0.3451 -0.4368
vn -0.6213 -0.2562 -0.7405
vn -0.3133 -0.1272 -0.9411
vn -0.2668 -0.2077 -0.9411
vn -0.5326 -0.4099 -0.7405
vn -0.3349 0.0465 -0.9411
vn -0.3132 0.1272 -0.9411
vn -0.0465 0.3351 -0.9410
vn -0.0096 0.0661 -0.9978
vn -0.0249 0.0621 -0.9978
vn -0.1272 0.3134 -0.9411
vn -0.6062 -0.7949 0.0261
vn -0.7949 -0.6062 0.0261
vn -0.7142 -0.5469 -0.4369
vn -0.5469 -0.7142 -0.4368
vn -0.0415 0.0527 -0.9977
vn -0.0527 0.0415 -0.9977
vn -0.2668 0.2077 -0.9411
vn -0.2077 0.2668 -0.9411
vn -0.3451 -0.8308 -0.4366
vn -0.3854 -0.9224 0.0263
vn -0.0663 -0.0096 -0.9978
vn -0.0623 -0.0249 -0.9977
vn -0.3349 -0.0465 -0.9411
vn -0.0642 -0.0078 0.9979
vn -0.0598 -0.0243 0.9979
vn -0.9923 0.1236 0.0008
vn -0.9287 0.3708 0.0010
vn -0.9285 0.3714 0.0010
vn -0.9924 0.1233 0.0008
vn 0.4099 0.5326 -0.7405
vn 0.5325 0.4099 -0.7405
vn -0.1374 -0.0191 0.9903
vn -0.1286 -0.0521 0.9903
vn 0.6062 0.7949 0.0261
vn 0.7949 0.6062 0.0261
vn 0.7142 0.5469 -0.4368
vn 0.5469 0.7142 -0.4368
vn 0.6661 0.0887 -0.7405
vn 0.6661 -0.0887 -0.7405
vn 0.3349 -0.0465 -0.9411
vn 0.0888 0.6668 -0.7400
vn 0.0465 0.3351 -0.9411
vn -0.0887 0.6667 -0.7400
vn 0.3703 0.9289 0.0004
vn 0.1171 0.9931 0.0007
vn 0.1175 0.9931 0.0007
vn 0.8235 0.1078 0.5569
vn 0.7671 0.3184 0.5569
vn 0.9224 0.3854 0.0261
vn 0.8307 0.3451 -0.4369
vn 0.0623 -0.0249 -0.9977
vn 0.0663 -0.0096 -0.9978
vn 0.3132 -0.1272 -0.9411
vn -0.0465 -0.3351 -0.9410
vn -0.0887 -0.6667 -0.7400
vn -0.2563 -0.6215 -0.7403
vn -0.1272 -0.3134 -0.9411
vn -0.0249 -0.0621 -0.9978
vn -0.0096 -0.0661 -0.9978
vn -0.1078 -0.8234 0.5571
vn 0.1078 -0.8235 0.5570
vn 0.5051 -0.6593 0.5569
vn 0.3184 -0.7671 0.5570
vn -0.3184 0.7670 0.5570
vn -0.5051 0.6593 0.5569
vn 0.8920 0.1165 -0.4368
vn 0.9915 0.1275 0.0260
vn 0.9915 -0.1275 0.0261
vn 0.8919 -0.1165 -0.4369
vn -0.1078 0.8234 0.5571
vn 0.0249 0.0621 -0.9978
vn 0.0096 0.0661 -0.9978
vn 0.1272 0.3134 -0.9411
vn 0.5052 0.6593 0.5569
vn 0.3184 0.7671 0.5569
vn 0.7977 -0.6030 0.0010
vn 0.7980 -0.6026 0.0010
vn 0.9251 -0.3798 0.0010
vn 0.9253 -0.3794 0.0010
vn 0.0240 0.0601 0.9979
vn 0.0076 0.0645 0.9979
vn -0.0645 0.0080 0.9979
vn -0.0601 0.0241 0.9979
vn -0.0088 0.0641 0.9979
vn -0.0250 0.0598 0.9979
vn -0.0406 0.0500 0.9979
vn -0.0525 0.0381 0.9979
vn -0.3821 -0.9241 0.0003
vn -0.1299 -0.9915 0.0002
vn -0.3820 -0.9242 0.0003
vn 0.3854 -0.9224 0.0263
vn 0.1275 -0.9915 0.0265
vn 0.1166 -0.8923 -0.4362
vn 0.3451 -0.8308 -0.4366
vn -0.8235 0.1078 0.5569
vn -0.7671 0.3184 0.5569
vn -0.3854 0.9224 0.0263
vn -0.1275 0.9915 0.0266
vn -0.1165 0.8923 -0.4362
vn -0.3451 0.8308 -0.4366
vn -0.6593 0.5051 0.5569
vn 0.1078 0.8234 0.5571
vn -0.6662 -0.0887 -0.7405
vn -0.6661 0.0887 -0.7405
vn 0.0888 -0.6668 -0.7400
vn 0.4099 -0.5326 -0.7405
vn 0.2563 -0.6215 -0.7403
vn -0.0415 -0.0527 -0.9977
vn -0.0527 -0.0415 -0.9977
vn -0.7975 -0.6034 0.0009
vn -0.6139 -0.7894 0.0005
vn -0.6140 -0.7893 0.0005
vn -0.7972 -0.6037 0.0009
vn 0.0643 0.0077 0.9979
vn 0.0600 0.0239 0.9979
vn 0.9919 -0.1270 0.0009
vn 0.9918 -0.1275 0.0009
vn 0.9931 0.1176 0.0009
vn 0.9286 0.3710 0.0008
vn 0.9288 0.3706 0.0008
vn 0.9930 0.1180 0.0009
vn 0.0106 -0.0635 0.9979
vn 0.0269 -0.0593 0.9979
vn -0.9928 -0.1199 0.0008
vn -0.9928 -0.1194 0.0008
vn -0.9259 -0.3776 0.0008
vn -0.9261 -0.3772 0.0008
vn 0.0396 -0.0510 0.9979
vn 0.0516 -0.0390 0.9979
vn -0.0517 -0.0391 0.9979
vn -0.0397 -0.0511 0.9979
vn -0.6295 0.7770 0.0005
vn -0.8093 0.5874 0.0010
vn -0.8091 0.5876 0.0010
vn -0.6296 0.7769 0.0005
vn -0.1165 -0.8922 -0.4363
vn -0.1275 -0.9915 0.0265
vn 0.4124 -0.9110 0.0010
vn 0.1659 -0.9862 0.0004
vn 0.1659 -0.9861 0.0004
vn 0.4126 -0.9109 0.0010
vn 0.0598 -0.0246 0.9979
vn 0.0642 -0.0082 0.9979
vn -0.0521 -0.1286 0.9903
vn -0.0191 -0.1374 0.9903
vn 0.6118 -0.7910 0.0010
vn 0.6123 -0.7906 0.0010
vn -0.1350 0.9908 0.0007
vn -0.3871 0.9220 0.0003
vn -0.3870 0.9221 0.0003
vn -0.1355 0.9908 0.0007
vn -0.8235 -0.1078 0.5569
vn -0.7671 -0.3184 0.5569
vn 0.0522 0.0385 0.9979
vn 0.0403 0.0505 0.9979
vn -0.0191 0.1375 0.9903
vn -0.0521 0.1286 0.9903
vn -0.0853 0.1095 0.9903
vn -0.1095 0.0853 0.9903
vn 0.0853 -0.1095 0.9903
vn 0.1095 -0.0853 0.9903
vn -0.1286 0.0521 0.9903
vn -0.1375 0.0191 0.9903
vn 0.0191 -0.1374 0.9903
vn 0.0521 -0.1286 0.9903
vn 0.1095 0.0853 0.9903
vn 0.0853 0.1095 0.9903
vn -0.1095 -0.0853 0.9903
vn -0.0853 -0.1095 0.9903
vn 0.1286 -0.0521 0.9903
vn 0.1374 -0.0191 0.9903
vn -0.7949 0.6062 0.0261
vn -0.6062 0.7949 0.0262
vn -0.5469 0.7142 -0.4368
vn -0.7142 0.5469 -0.4368
vn -0.0248 -0.0599 0.9979
vn -0.0083 -0.0642 0.9979
vn -0.4099 0.5326 -0.7405
vn -0.2563 0.6215 -0.7403
vn -0.2077 -0.2668 -0.9411
vn 0.0521 0.1286 0.9903
vn 0.0191 0.1375 0.9903
vn -0.3184 -0.7670 0.5570
vn -0.6593 -0.5052 0.5569
vn 0.6213 0.2563 -0.7405
vn 0.5325 -0.4099 -0.7405
vn -0.5051 -0.6593 0.5569
vn -0.9915 0.1275 0.0260
vn -0.9224 0.3854 0.0261
vn -0.8307 0.3451 -0.4369
vn -0.8920 0.1165 -0.4368
vn 0.1275 0.9915 0.0266
vn 0.1166 0.8923 -0.4362
vn 0.3451 0.8308 -0.4366
vn 0.3854 0.9224 0.0262
vn 0.8235 -0.1078 0.5569
vn -0.6213 0.2562 -0.7405
vn -0.5325 0.4099 -0.7405
vn -0.4099 -0.5326 -0.7405
vn 0.6235 0.7818 0.0005
vn 0.6234 0.7819 0.0005
vn 0.6593 0.5052 0.5569
vn 0.5469 -0.7142 -0.4368
vn 0.6062 -0.7949 0.0261
vn 0.8047 0.5937 0.0008
vn 0.8045 0.5939 0.0008
vn 0.6213 -0.2562 -0.7405
vn 0.2563 0.6215 -0.7403
vn 0.4019 -0.3116 0.8611
vn 0.4708 -0.1921 0.8611
vn 0.6857 -0.5276 0.5014
vn 0.7998 -0.3298 0.5014
vn 0.0688 0.5038 0.8611
vn -0.0689 0.5038 0.8611
vn 0.1140 0.8576 0.5015
vn -0.1140 0.8576 0.5014
vn 0.4708 0.1921 0.8611
vn 0.4019 0.3116 0.8611
vn 0.7998 0.3298 0.5015
vn 0.6857 0.5276 0.5015
vn -0.0688 -0.5038 0.8611
vn 0.0688 -0.5038 0.8611
vn -0.1140 -0.8576 0.5015
vn 0.1140 -0.8576 0.5015
vn 0.3116 0.4019 0.8611
vn 0.1921 0.4708 0.8611
vn 0.5276 0.6857 0.5014
vn 0.3298 0.7998 0.5014
vn 0.1921 -0.4709 0.8610
vn 0.3116 -0.4019 0.8611
vn 0.3299 -0.7998 0.5014
vn 0.5276 -0.6857 0.5014
vn -0.5038 0.0688 0.8611
vn -0.5038 -0.0688 0.8611
vn -0.8576 0.1140 0.5015
vn -0.8576 -0.1140 0.5015
vn -0.4708 -0.1921 0.8611
vn -0.4019 -0.3116 0.8611
vn -0.7999 -0.3298 0.5014
vn -0.6858 -0.5276 0.5014
vn -0.3116 -0.4019 0.8611
vn -0.1921 -0.4708 0.8611
vn -0.5276 -0.6857 0.5014
vn -0.3299 -0.7998 0.5015
vn 0.5038 -0.0688 0.8611
vn 0.5038 0.0688 0.8611
vn 0.8576 -0.1140 0.5015
vn 0.8576 0.1140 0.5015
vn -0.4019 0.3116 0.8611
vn -0.4708 0.1921 0.8611
vn -0.6857 0.5276 0.5014
vn -0.7999 0.3298 0.5014
vn -0.1921 0.4708 0.8611
vn -0.3116 0.4019 0.8611
vn -0.3299 0.7999 0.5014
vn -0.5276 0.6857 0.5014
vt 0.254012 0.771931
vt 0.003016 0.771169
vt 0.003024 0.765222
vt 0.253995 0.765749
vt 0.253180 0.688073
vt 0.002666 0.690934
vt 0.002597 0.684277
vt 0.252433 0.681653
vt 0.253494 0.694142
vt 0.002725 0.696805
vt 0.253909 0.784768
vt 0.002981 0.783550
vt 0.003001 0.777600
vt 0.253908 0.778611
vt 0.002998 0.740464
vt 0.002976 0.734008
vt 0.253964 0.733004
vt 0.253912 0.739798
vt 0.002951 0.728073
vt 0.254091 0.726902
vt 0.253295 0.823115
vt 0.002726 0.820616
vt 0.002781 0.814756
vt 0.253587 0.816911
vt 0.002917 0.721631
vt 0.002879 0.715687
vt 0.253844 0.714091
vt 0.253983 0.720286
vt 0.002835 0.808282
vt 0.002880 0.802357
vt 0.253792 0.803982
vt 0.253669 0.810117
vt 0.252314 0.835935
vt 0.002594 0.833039
vt 0.002659 0.827172
vt 0.252954 0.829996
vt 0.253703 0.707264
vt 0.002832 0.709247
vt 0.002784 0.703364
vt 0.253728 0.701022
vt 0.253907 0.797426
vt 0.002922 0.795927
vt 0.002954 0.789980
vt 0.253819 0.791384
vt 0.254078 0.759037
vt 0.003026 0.758782
vt 0.003023 0.752901
vt 0.254033 0.752899
vt 0.003012 0.746340
vt 0.254060 0.746009
vt 0.749237 0.124950
vt 0.767319 0.111505
vt 0.769931 0.116014
vt 0.746584 0.147378
vt 0.751739 0.147393
vt 0.752618 0.150738
vt 0.745683 0.150717
vt 0.722477 0.135535
vt 0.721795 0.135788
vt 0.720028 0.129135
vt 0.720749 0.129017
vt 0.728749 0.109004
vt 0.731184 0.111447
vt 0.728591 0.115894
vt 0.725259 0.114988
vt 0.726838 0.122344
vt 0.726818 0.127507
vt 0.723473 0.128383
vt 0.723500 0.121438
vt 0.735722 0.143037
vt 0.740233 0.145659
vt 0.739332 0.148996
vt 0.733275 0.145482
vt 0.258665 0.707703
vt 0.258623 0.713640
vt 0.667260 0.202828
vt 0.670862 0.199145
vt 0.677029 0.204137
vt 0.672048 0.209121
vt 0.760188 0.097640
vt 0.767512 0.101889
vt 0.767049 0.102447
vt 0.759932 0.098317
vt 0.759613 0.099293
vt 0.759119 0.100976
vt 0.752769 0.099254
vt 0.753200 0.097553
vt 0.769750 0.109074
vt 0.773255 0.115117
vt 0.769808 0.140880
vt 0.767348 0.138438
vt 0.769963 0.133896
vt 0.773308 0.134782
vt 0.745124 0.095816
vt 0.753538 0.095829
vt 0.753416 0.096546
vt 0.745241 0.096530
vt 0.771648 0.127557
vt 0.771637 0.122326
vt 0.774970 0.121431
vt 0.774993 0.128441
vt 0.738629 0.098276
vt 0.738378 0.097595
vt 0.762712 0.106900
vt 0.758223 0.104299
vt 0.765142 0.104466
vt 0.664162 0.194037
vt 0.661977 0.196185
vt 0.654224 0.186237
vt 0.665803 0.191257
vt 0.666777 0.187995
vt 0.674933 0.189042
vt 0.673432 0.194515
vt 0.753039 0.152449
vt 0.745256 0.152426
vt 0.637749 0.173544
vt 0.631699 0.168360
vt 0.636663 0.163503
vt 0.641304 0.169778
vt 0.753370 0.154179
vt 0.744917 0.154151
vt 0.745037 0.153434
vt 0.753250 0.153459
vt 0.732046 0.146745
vt 0.727369 0.142040
vt 0.728642 0.140819
vt 0.766366 0.146839
vt 0.765131 0.145554
vt 0.771089 0.142116
vt 0.657338 0.165604
vt 0.662517 0.167291
vt 0.659318 0.174625
vt 0.656094 0.173812
vt 0.258572 0.726400
vt 0.258665 0.733385
vt 0.738258 0.152352
vt 0.738514 0.151668
vt 0.728496 0.133852
vt 0.731096 0.138385
vt 0.725153 0.134734
vt 0.733431 0.104369
vt 0.732213 0.103089
vt 0.738944 0.099254
vt 0.739425 0.100944
vt 0.740303 0.104271
vt 0.735849 0.106819
vt 0.256880 0.681048
vt 0.257816 0.687014
vt 0.258557 0.700329
vt 0.258279 0.694308
vt 0.258703 0.772529
vt 0.258586 0.778258
vt 0.731352 0.147510
vt 0.730889 0.148071
vt 0.726034 0.143193
vt 0.726598 0.142729
vt 0.258695 0.765377
vt 0.758199 0.145677
vt 0.762687 0.143096
vt 0.759080 0.149023
vt 0.258866 0.746571
vt 0.258775 0.752500
vt 0.641709 0.187843
vt 0.633355 0.188894
vt 0.633618 0.183344
vt 0.641633 0.184466
vt 0.662120 0.176342
vt 0.664236 0.178542
vt 0.666067 0.181919
vt 0.666826 0.184751
vt 0.651588 0.207038
vt 0.645738 0.205556
vt 0.649156 0.197720
vt 0.652615 0.198764
vt 0.721905 0.113908
vt 0.726164 0.106612
vt 0.726720 0.107073
vt 0.722587 0.114166
vt 0.258324 0.797926
vt 0.258395 0.791040
vt 0.776676 0.135839
vt 0.772424 0.143273
vt 0.771860 0.142811
vt 0.775993 0.135586
vt 0.258553 0.785381
vt 0.258795 0.759625
vt 0.766361 0.103209
vt 0.771009 0.107855
vt 0.727483 0.107767
vt 0.721792 0.121012
vt 0.723566 0.114491
vt 0.746742 0.102571
vt 0.751871 0.102584
vt 0.662327 0.205468
vt 0.656921 0.207024
vt 0.655861 0.198827
vt 0.659135 0.197997
vt 0.644178 0.178489
vt 0.646424 0.176316
vt 0.634976 0.177923
vt 0.642637 0.181280
vt 0.646153 0.196044
vt 0.643755 0.193487
vt 0.642366 0.190811
vt 0.673968 0.179033
vt 0.674873 0.183772
vt 0.731526 0.102322
vt 0.731070 0.101762
vt 0.640855 0.202491
vt 0.637096 0.198007
vt 0.658433 0.157865
vt 0.665076 0.159685
vt 0.634676 0.193810
vt 0.667149 0.169916
vt 0.670692 0.173442
vt 0.258402 0.803454
vt 0.258385 0.810550
vt 0.649260 0.174546
vt 0.652386 0.173709
vt 0.636093 0.208886
vt 0.631198 0.203787
vt 0.627309 0.196753
vt 0.625603 0.189970
vt 0.680978 0.175660
vt 0.682757 0.182328
vt 0.625727 0.181947
vt 0.627613 0.175227
vt 0.672020 0.163719
vt 0.676885 0.168586
vt 0.664985 0.213158
vt 0.658235 0.214965
vt 0.643664 0.159564
vt 0.650283 0.157832
vt 0.651178 0.165638
vt 0.646116 0.167195
vt 0.682788 0.190344
vt 0.681029 0.197104
vt 0.778395 0.120657
vt 0.778436 0.129186
vt 0.777715 0.129067
vt 0.777680 0.120778
vt 0.776704 0.128855
vt 0.775008 0.135268
vt 0.745868 0.099241
vt 0.649920 0.214958
vt 0.643133 0.213097
vt 0.257774 0.830074
vt 0.256661 0.837457
vt 0.258433 0.816431
vt 0.738836 0.150686
vt 0.721761 0.128805
vt 0.258243 0.823858
vt 0.772326 0.106708
vt 0.776597 0.114046
vt 0.775916 0.114302
vt 0.771768 0.107167
vt 0.767520 0.148175
vt 0.767060 0.147612
vt 0.759880 0.151708
vt 0.760133 0.152392
vt 0.258642 0.720814
vt 0.774938 0.114623
vt 0.776674 0.120997
vt 0.745455 0.097537
vt 0.258820 0.739267
vt 0.720784 0.120790
vt 0.720067 0.120668
vt 0.723460 0.135220
vt 0.759564 0.150724
vt 0.683134 0.182309
vt 0.683166 0.190362
vt 0.683516 0.182293
vt 0.683548 0.190375
vt 0.683896 0.182272
vt 0.683928 0.190391
vt 0.642954 0.213439
vt 0.635879 0.209204
vt 0.642768 0.213783
vt 0.635666 0.209528
vt 0.642588 0.214128
vt 0.635447 0.209853
vt 0.672256 0.209443
vt 0.665160 0.213501
vt 0.672461 0.209771
vt 0.665339 0.213845
vt 0.672669 0.210095
vt 0.665513 0.214189
vt 0.665250 0.159350
vt 0.672225 0.163404
vt 0.665429 0.159012
vt 0.672429 0.163082
vt 0.665603 0.158674
vt 0.672638 0.162761
vt 0.658254 0.215349
vt 0.649899 0.215343
vt 0.658269 0.215739
vt 0.649882 0.215733
vt 0.658288 0.216120
vt 0.649861 0.216120
vt 0.677203 0.168380
vt 0.681317 0.175487
vt 0.677526 0.168177
vt 0.681656 0.175309
vt 0.677845 0.167970
vt 0.681991 0.175138
vt 0.627278 0.175050
vt 0.631386 0.168152
vt 0.626942 0.174868
vt 0.631067 0.167945
vt 0.626605 0.174692
vt 0.630748 0.167732
vt 0.636461 0.163184
vt 0.643494 0.159225
vt 0.636262 0.162860
vt 0.643320 0.158886
vt 0.636059 0.162539
vt 0.643151 0.158547
vt 0.650267 0.157455
vt 0.658455 0.157488
vt 0.650253 0.157075
vt 0.658471 0.157107
vt 0.650236 0.156700
vt 0.658492 0.156727
vt 0.681368 0.197275
vt 0.677350 0.204344
vt 0.681710 0.197452
vt 0.677676 0.204549
vt 0.682053 0.197624
vt 0.678003 0.204759
vt 0.625223 0.189983
vt 0.625349 0.181923
vt 0.624839 0.189993
vt 0.624967 0.181902
vt 0.624459 0.190007
vt 0.624587 0.181878
vt 0.630874 0.203988
vt 0.626969 0.196920
vt 0.630544 0.204187
vt 0.626627 0.197092
vt 0.630218 0.204388
vt 0.626288 0.197258
vt 0.738069 0.096922
vt 0.745055 0.095050
vt 0.725536 0.106163
vt 0.730638 0.101141
vt 0.753607 0.095090
vt 0.760511 0.096943
vt 0.744843 0.154920
vt 0.737943 0.153027
vt 0.767939 0.101286
vt 0.772940 0.106272
vt 0.760447 0.153084
vt 0.753435 0.154920
vt 0.730441 0.148700
vt 0.725424 0.143620
vt 0.779191 0.129252
vt 0.777368 0.136155
vt 0.719298 0.120593
vt 0.721231 0.113593
vt 0.773048 0.143712
vt 0.767968 0.148811
vt 0.777281 0.113727
vt 0.779150 0.120584
vt 0.721092 0.136109
vt 0.719286 0.129199
s 1
usemtl tool_wrist
f 22/1/1 152/2/2 139/3/3 25/4/4
f 121/5/5 187/6/6 192/7/7 122/8/8
f 119/9/9 200/10/10 187/6/6 121/5/5
f 19/11/11 160/12/12 147/13/13 23/14/14
f 131/15/15 136/16/16 14/17/17 15/18/18
f 136/16/16 179/19/19 117/20/20 14/17/17
f 114/21/21 176/22/22 163/23/23 111/24/24
f 184/25/25 203/26/26 115/27/27 118/28/28
f 168/29/29 211/30/30 20/31/31 112/32/32
f 122/33/8 192/34/7 171/35/33 113/36/34
f 116/37/35 208/38/36 195/39/37 120/40/38
f 21/41/39 216/42/40 155/43/41 18/44/42
f 211/30/30 216/42/40 21/41/39 20/31/31
f 24/45/43 144/46/44 123/47/45 16/48/46
f 16/48/46 123/47/45 128/49/47 17/50/48
f 113/36/34 171/35/33 176/22/22 114/21/21
f 18/44/42 155/43/41 160/12/12 19/11/11
f 179/19/19 184/25/25 118/28/28 117/20/20
f 111/24/24 163/23/23 168/29/29 112/32/32
f 120/40/38 195/39/37 200/10/10 119/9/9
f 203/26/26 208/38/36 116/37/35 115/27/27
f 25/4/4 139/3/3 144/46/44 24/45/43
f 23/14/14 147/13/13 152/2/2 22/1/1
f 1/51/49 67/52/50 48/53/51
f 72/54/52 71/55/53 2/56/54 5/57/55
f 232/58/56 277/59/57 276/60/58 233/61/59
f 13/62/60 36/63/61 79/64/62 10/65/63
f 78/66/64 77/67/65 8/68/66 11/69/67
f 74/70/68 73/71/69 4/72/70 7/73/71
f 116/37/35 275/74/72 278/75/73 115/27/27
f 107/76/74 33/77/74 180/78/75 135/79/76
f 298/80/77 293/81/78 254/82/79 247/83/80
f 248/84/81 40/85/82 41/86/83 249/87/84
f 48/53/51 67/52/50 42/88/85 44/89/86
f 53/90/87 68/91/88 47/92/89 50/93/90
f 300/94/91 295/95/92 250/96/93 245/97/94
f 46/98/95 49/99/96 45/100/97 51/101/98
f 244/102/99 301/103/100 300/94/91 245/97/94
f 66/104/101 65/105/102 40/85/82 43/106/103
f 85/107/104 83/108/105 80/109/74
f 86/110/106 61/111/107 30/112/108 32/113/109
f 2/56/54 222/114/110 223/115/111 5/57/55
f 96/116/74 212/117/112 167/118/113 26/119/74
f 290/120/114 283/121/115 224/122/116 221/123/117
f 7/73/71 227/124/118 230/125/119 6/126/120
f 262/127/121 52/128/122 53/90/87 259/129/123
f 100/130/124 97/131/125 59/132/126 56/133/124
f 274/134/127 285/135/128 14/17/17 117/20/20
f 224/122/116 283/121/115 286/136/129 225/137/130
f 76/138/131 75/139/132 6/126/120 9/140/133
f 12/141/134 238/142/135 243/143/136 39/144/137
f 34/145/138 37/146/139 12/141/134 39/144/137
f 122/8/8 303/147/140 306/148/141 121/5/5
f 280/149/142 120/40/38 119/9/9 281/150/143
f 22/1/1 307/151/144 310/152/145 23/14/14
f 228/153/146 273/154/147 272/155/148 229/156/149
f 280/149/142 275/74/72 116/37/35 120/40/38
f 25/4/4 270/157/150 307/151/144 22/1/1
f 70/158/151 69/159/152 52/128/122 3/160/153
f 17/50/48 289/161/154 288/162/155 16/48/46
f 94/163/156 92/164/157 91/165/158 93/166/159
f 80/109/74 56/133/160 59/132/161
f 86/110/162 80/109/74 61/111/163
f 80/109/74 58/167/164 29/168/165
f 28/169/166 60/170/167 80/109/74
f 106/171/168 103/172/169 88/173/169 81/174/170
f 282/175/171 305/176/172 236/177/173 241/178/174
f 291/179/175 21/41/39 18/44/42 312/180/176
f 308/181/177 269/182/178 260/183/179 265/184/180
f 1/51/49 47/92/89 68/91/88
f 19/11/11 313/185/181 312/180/176 18/44/42
f 288/162/155 267/186/182 24/45/43 16/48/46
f 43/106/103 253/187/183 252/188/184 42/88/85
f 238/142/135 12/141/134 13/62/60 235/189/185
f 11/69/67 239/190/186 242/191/187 10/65/63
f 1/51/49 35/192/188 64/193/189
f 108/194/190 105/195/191 82/196/192 84/197/193
f 80/109/74 63/198/194 54/199/195
f 91/165/158 95/200/196 62/201/197 93/166/159
f 96/116/198 26/119/199 54/199/200 63/198/201
f 80/109/74 87/202/202 89/203/203
f 85/107/204 33/77/205 107/76/206 83/108/207
f 90/204/208 94/163/209 80/109/74
f 1/51/49 65/105/102 66/104/101
f 80/109/74 84/197/210 82/196/211
f 110/205/212 31/206/213 60/170/214 28/169/215
f 286/136/129 273/154/147 228/153/146 225/137/130
f 1/51/49 37/146/139 34/145/138
f 237/207/216 304/208/217 301/103/100 244/102/99
f 89/203/218 87/202/219 104/209/220 101/210/221
f 80/109/74 93/166/222 62/201/223
f 100/130/74 172/211/224 191/212/225 97/131/74
f 102/213/226 92/164/157 94/163/156 90/204/227
f 98/214/228 109/215/229 29/168/230 58/167/231
f 294/216/232 297/217/233 112/32/32 20/31/31
f 80/109/74 55/218/234 57/219/235
f 140/220/236 151/221/237 101/210/74 104/209/74
f 102/213/74 148/222/238 159/223/239 92/164/74
f 110/205/74 196/224/240 207/225/241 31/206/74
f 156/226/242 215/227/243 95/200/74 91/165/74
f 188/228/244 199/229/245 109/215/74 98/214/74
f 108/194/74 132/230/246 127/231/247 105/195/74
f 164/232/248 175/233/249 99/234/74 27/235/74
f 204/236/250 183/237/251 32/113/74 30/112/74
f 314/238/252 309/239/253 264/240/254 257/241/255
f 1/51/49 73/71/69 74/70/68
f 1/51/49 49/99/96 46/98/95
f 1/51/49 71/55/53 72/54/52
f 81/174/256 88/173/257 80/109/74
f 51/101/98 263/242/258 266/243/259 50/93/90
f 1/51/49 79/64/62 36/63/61
f 1/51/49 69/159/152 70/158/151
f 64/193/189 35/192/188 38/244/260 41/86/83
f 1/51/49 75/139/132 76/138/131
f 1/51/49 77/67/65 78/66/64
f 250/96/93 295/95/92 298/80/77 247/83/80
f 34/145/138 35/192/188 1/51/49
f 36/63/61 37/146/139 1/51/49
f 46/98/95 47/92/89 1/51/49
f 48/53/51 49/99/96 1/51/49
f 64/193/189 65/105/102 1/51/49
f 66/104/101 67/52/50 1/51/49
f 68/91/88 69/159/152 1/51/49
f 70/158/151 71/55/53 1/51/49
f 72/54/52 73/71/69 1/51/49
f 74/70/68 75/139/132 1/51/49
f 76/138/131 77/67/65 1/51/49
f 78/66/64 79/64/62 1/51/49
f 106/171/74 124/245/261 143/246/262 103/172/74
f 235/189/185 13/62/60 10/65/63 242/191/187
f 302/247/263 303/248/140 122/33/8 113/36/34
f 236/177/173 305/176/172 304/208/217 237/207/216
f 112/32/32 297/217/233 296/249/264 111/24/24
f 21/41/39 291/179/175 294/216/232 20/31/31
f 98/214/74 97/131/74 191/212/225 188/228/244
f 19/11/11 23/14/14 310/152/145 313/185/181
f 4/72/70 226/250/265 227/124/118 7/73/71
f 45/100/97 49/99/96 48/53/51 44/89/86
f 40/85/82 248/84/81 253/187/183 43/106/103
f 46/98/95 51/101/98 50/93/90 47/92/89
f 8/68/66 234/251/266 239/190/186 11/69/67
f 226/250/265 4/72/70 5/57/55 223/115/111
f 91/165/74 92/164/74 159/223/239 156/226/242
f 111/24/24 296/249/264 299/252/267 114/21/21
f 96/116/74 95/200/74 215/227/243 212/117/112
f 292/253/268 311/254/269 256/255/270 251/256/271
f 29/168/230 109/215/229 110/205/212 28/169/215
f 260/183/179 269/182/178 268/257/272 261/258/273
f 254/82/79 293/81/78 292/253/268 251/256/271
f 33/77/74 32/113/74 183/237/251 180/78/75
f 27/235/74 26/119/74 167/118/113 164/232/248
f 220/259/274 287/260/275 290/120/114 221/123/117
f 115/27/27 278/75/73 271/261/276 118/28/28
f 102/213/74 101/210/74 151/221/237 148/222/238
f 259/129/123 53/90/87 50/93/90 266/243/259
f 272/155/148 277/59/57 232/58/56 229/156/149
f 42/88/85 252/188/184 255/262/277 44/89/86
f 45/100/97 258/263/278 263/242/258 51/101/98
f 264/240/254 309/239/253 308/181/177 265/184/180
f 302/247/263 113/36/34 114/21/21 299/252/267
f 121/5/5 306/148/141 281/150/143 119/9/9
f 34/145/138 39/144/137 38/244/260 35/192/188
f 39/144/137 243/143/136 246/264/279 38/244/260
f 78/66/64 11/69/67 10/65/63 79/64/62
f 82/196/192 105/195/191 106/171/168 81/174/170
f 100/130/74 99/234/74 175/233/249 172/211/224
f 59/132/126 97/131/125 98/214/228 58/167/231
f 57/219/280 99/234/281 100/130/124 56/133/124
f 38/244/260 246/264/279 249/87/84 41/86/83
f 81/174/256 80/109/74 82/196/211
f 80/109/74 59/132/161 58/167/164
f 88/173/169 103/172/169 104/209/220 87/202/219
f 96/116/198 63/198/201 62/201/197 95/200/196
f 36/63/61 13/62/60 12/141/134 37/146/139
f 86/110/106 32/113/109 33/77/205 85/107/204
f 89/203/218 101/210/221 102/213/226 90/204/227
f 14/17/17 285/135/128 284/265/282 15/18/18
f 8/68/66 77/67/65 76/138/131 9/140/133
f 80/109/74 60/170/167 61/111/163
f 261/258/273 268/257/272 287/260/275 220/259/274
f 15/18/18 284/265/282 289/161/154 17/50/48
f 80/109/74 83/108/105 84/197/210
f 56/133/160 80/109/74 57/219/235
f 118/28/28 271/261/276 274/134/127 117/20/20
f 90/204/208 80/109/74 89/203/203
f 66/104/101 43/106/103 42/88/85 67/52/50
f 40/85/82 65/105/102 64/193/189 41/86/83
f 240/266/283 279/267/284 282/175/171 241/178/174
f 80/109/74 54/199/195 55/218/234
f 80/109/74 88/173/257 87/202/202
f 80/109/74 86/110/162 85/107/104
f 74/70/68 7/73/71 6/126/120 75/139/132
f 4/72/70 73/71/69 72/54/52 5/57/55
f 258/263/278 45/100/97 44/89/86 255/262/277
f 106/171/74 105/195/74 127/231/247 124/245/261
f 108/194/74 107/76/74 135/79/76 132/230/246
f 63/198/194 80/109/74 62/201/223
f 108/194/190 84/197/193 83/108/207 107/76/206
f 27/235/285 55/218/286 54/199/200 26/119/199
f 256/255/270 311/254/269 314/238/252 257/241/255
f 276/60/58 279/267/284 240/266/283 233/61/59
f 80/109/74 94/163/209 93/166/222
f 60/170/214 31/206/213 30/112/108 61/111/107
f 68/91/88 53/90/87 52/128/122 69/159/152
f 30/112/74 31/206/74 207/225/241 204/236/250
f 28/169/166 80/109/74 29/168/165
f 110/205/74 109/215/74 199/229/245 196/224/240
f 6/126/120 230/125/119 231/268/287 9/140/133
f 234/251/266 8/68/66 9/140/133 231/268/287
f 70/158/151 3/160/153 2/56/54 71/55/53
f 27/235/285 99/234/281 57/219/280 55/218/286
f 52/128/122 262/127/121 219/269/288 3/160/153
f 204/236/250 207/225/241 209/270/289 206/271/290
f 206/271/290 209/270/289 210/272/291 205/273/292
f 205/273/292 210/272/291 208/274/36 203/275/26
f 140/220/236 143/246/262 145/276/293 142/277/294
f 142/277/294 145/276/293 146/278/295 141/279/296
f 141/279/296 146/278/295 144/280/44 139/281/3
f 132/230/246 135/79/76 137/282/297 134/283/298
f 134/283/298 137/282/297 138/284/299 133/285/300
f 133/285/300 138/284/299 136/286/16 131/287/15
f 188/228/244 191/212/225 193/288/301 190/289/302
f 190/289/302 193/288/301 194/290/303 189/291/304
f 189/291/304 194/290/303 192/292/7 187/293/6
f 124/245/261 127/231/247 129/294/305 126/295/306
f 126/295/306 129/294/305 130/296/307 125/297/308
f 125/297/308 130/296/307 128/298/47 123/299/45
f 196/224/240 199/229/245 201/300/309 198/301/310
f 198/301/310 201/300/309 202/302/311 197/303/312
f 197/303/312 202/302/311 200/304/10 195/305/37
f 212/117/112 215/227/243 217/306/313 214/307/314
f 214/307/314 217/306/313 218/308/315 213/309/316
f 213/309/316 218/308/315 216/310/40 211/311/30
f 164/232/248 167/118/113 169/312/317 166/313/318
f 166/313/318 169/312/317 170/314/319 165/315/320
f 165/315/320 170/314/319 168/316/29 163/317/23
f 172/211/224 175/233/249 177/318/321 174/319/322
f 174/319/322 177/318/321 178/320/323 173/321/324
f 173/321/324 178/320/323 176/322/22 171/323/33
f 180/78/75 183/237/251 185/324/325 182/325/326
f 182/325/326 185/324/325 186/326/327 181/327/328
f 181/327/328 186/326/327 184/328/25 179/329/19
f 156/226/242 159/223/239 161/330/329 158/331/330
f 158/331/330 161/330/329 162/332/331 157/333/332
f 157/333/332 162/332/331 160/334/12 155/335/41
f 148/222/238 151/221/237 153/336/333 150/337/334
f 150/337/334 153/336/333 154/338/335 149/339/336
f 149/339/336 154/338/335 152/340/2 147/341/13
f 123/299/45 144/280/44 146/278/295 125/297/308
f 125/297/308 146/278/295 145/276/293 126/295/306
f 126/295/306 145/276/293 143/246/262 124/245/261
f 127/231/247 132/230/246 134/283/298 129/294/305
f 129/294/305 134/283/298 133/285/300 130/296/307
f 130/296/307 133/285/300 131/287/15 128/298/47
f 135/79/76 180/78/75 182/325/326 137/282/297
f 137/282/297 182/325/326 181/327/328 138/284/299
f 138/284/299 181/327/328 179/329/19 136/286/16
f 151/221/237 140/220/236 142/277/294 153/336/333
f 153/336/333 142/277/294 141/279/296 154/338/335
f 154/338/335 141/279/296 139/281/3 152/340/2
f 147/341/13 160/334/12 162/332/331 149/339/336
f 149/339/336 162/332/331 161/330/329 150/337/334
f 150/337/334 161/330/329 159/223/239 148/222/238
f 155/335/41 216/310/40 218/308/315 157/333/332
f 157/333/332 218/308/315 217/306/313 158/331/330
f 158/331/330 217/306/313 215/227/243 156/226/242
f 163/317/23 176/322/22 178/320/323 165/315/320
f 165/315/320 178/320/323 177/318/321 166/313/318
f 166/313/318 177/318/321 175/233/249 164/232/248
f 167/118/113 212/117/112 214/307/314 169/312/317
f 169/312/317 214/307/314 213/309/316 170/314/319
f 170/314/319 213/309/316 211/311/30 168/316/29
f 171/323/33 192/292/7 194/290/303 173/321/324
f 173/321/324 194/290/303 193/288/301 174/319/322
f 174/319/322 193/288/301 191/212/225 172/211/224
f 183/237/251 204/236/250 206/271/290 185/324/325
f 185/324/325 206/271/290 205/273/292 186/326/327
f 186/326/327 205/273/292 203/275/26 184/328/25
f 187/293/6 200/304/10 202/302/311 189/291/304
f 189/291/304 202/302/311 201/300/309 190/289/302
f 190/289/302 201/300/309 199/229/245 188/228/244
f 207/225/241 196/224/240 198/301/310 209/270/289
f 209/270/289 198/301/310 197/303/312 210/272/291
f 210/272/291 197/303/312 195/305/37 208/274/36
f 236/177/173 237/207/216 238/142/135 235/189/185
f 248/84/81 249/87/84 250/96/93 247/83/80
f 220/259/274 221/123/117 222/114/110 219/269/288
f 264/240/254 265/184/180 266/243/259 263/242/258
f 224/122/116 225/137/130 226/250/265 223/115/111
f 232/58/56 233/61/59 234/251/266 231/268/287
f 252/188/184 253/187/183 254/82/79 251/256/271
f 228/153/146 229/156/149 230/125/119 227/124/118
f 260/183/179 261/258/273 262/127/121 259/129/123
f 256/255/270 257/241/255 258/263/278 255/262/277
f 244/102/99 245/97/94 246/264/279 243/143/136
f 240/266/283 241/178/174 242/191/187 239/190/186
f 219/269/288 262/127/121 261/258/273 220/259/274
f 259/129/123 266/243/259 265/184/180 260/183/179
f 227/124/118 226/250/265 225/137/130 228/153/146
f 231/268/287 230/125/119 229/156/149 232/58/56
f 239/190/186 234/251/266 233/61/59 240/266/283
f 221/123/117 224/122/116 223/115/111 222/114/110
f 241/178/174 236/177/173 235/189/185 242/191/187
f 237/207/216 244/102/99 243/143/136 238/142/135
f 245/97/94 250/96/93 249/87/84 246/264/279
f 253/187/183 248/84/81 247/83/80 254/82/79
f 251/256/271 256/255/270 255/262/277 252/188/184
f 263/242/258 258/263/278 257/241/255 264/240/254
f 3/160/153 219/269/288 222/114/110 2/56/54
f 300/94/91 301/103/100 302/342/263 299/343/267
f 304/208/217 305/176/172 306/344/141 303/345/140
f 296/346/264 297/347/233 298/80/77 295/95/92
f 284/348/282 285/349/128 286/136/129 283/121/115
f 292/253/268 293/81/78 294/350/232 291/351/175
f 288/352/155 289/353/154 290/120/114 287/260/275
f 272/155/148 273/154/147 274/354/127 271/355/276
f 308/181/177 309/239/253 310/356/145 307/357/144
f 280/358/142 281/359/143 282/175/171 279/267/284
f 268/257/272 269/182/178 270/360/150 267/361/182
f 312/362/176 313/363/181 314/238/252 311/254/269
f 276/60/58 277/59/57 278/364/73 275/365/72
f 267/361/182 288/352/155 287/260/275 268/257/272
f 307/357/144 270/360/150 269/182/178 308/181/177
f 277/59/57 272/155/148 271/355/276 278/364/73
f 273/154/147 286/136/129 285/349/128 274/354/127
f 275/365/72 280/358/142 279/267/284 276/60/58
f 289/353/154 284/348/282 283/121/115 290/120/114
f 303/345/140 302/342/263 301/103/100 304/208/217
f 281/359/143 306/344/141 305/176/172 282/175/171
f 309/239/253 314/238/252 313/363/181 310/356/145
f 311/254/269 292/253/268 291/351/175 312/362/176
f 293/81/78 298/80/77 297/347/233 294/350/232
f 299/343/267 296/346/264 295/95/92 300/94/91
f 24/45/43 267/186/182 270/157/150 25/4/4
f 104/209/74 103/172/74 143/246/262 140/220/236
f 128/49/47 131/15/15 15/18/18 17/50/48
