# Blender 5.2.0 LTS
# www.blender.org
mtllib tip_184.mtl
o tool_jaw.001
v 0.001332 0.000118 0.010969
v 0.002643 0.000358 0.010969
v 0.003919 0.000755 0.010969
v 0.005135 0.001302 0.010969
v 0.006277 0.001993 0.010969
v 0.007327 0.002816 0.010969
v 0.008271 0.003759 0.010969
v 0.009094 0.004810 0.010969
v 0.009783 0.005950 0.010969
v 0.010325 0.007150 0.010969
v 0.010729 0.008443 0.010969
v 0.010969 0.009756 0.010969
v 0.011050 0.011087 0.010969
v 0.001292 0.000441 0.010023
v 0.002565 0.000674 0.010024
v 0.003803 0.001060 0.010023
v 0.004983 0.001591 0.010024
v 0.006092 0.002261 0.010024
v 0.007111 0.003060 0.010024
v 0.008027 0.003975 0.010024
v 0.008826 0.004995 0.010024
v 0.009495 0.006103 0.010024
v 0.010027 0.007285 0.010024
v 0.010412 0.008520 0.010024
v 0.010645 0.009795 0.010024
v 0.010725 0.011087 0.010026
v 0.001204 0.001172 0.009347
v 0.002401 0.001395 0.009347
v 0.003542 0.001748 0.009347
v 0.004669 0.002261 0.009347
v 0.005673 0.002867 0.009347
v 0.006625 0.003617 0.009347
v 0.007476 0.004464 0.009347
v 0.008223 0.005424 0.009347
v 0.008843 0.006445 0.009347
v 0.009332 0.007536 0.009347
v 0.009697 0.008697 0.009347
v 0.009911 0.009883 0.009347
v 0.009989 0.011087 0.009348
v 0.001087 0.002134 0.009102
v 0.002175 0.002336 0.009102
v 0.003198 0.002655 0.009102
v 0.004187 0.003102 0.009102
v 0.005124 0.003664 0.009102
v 0.005976 0.004336 0.009102
v 0.006750 0.005107 0.009102
v 0.007424 0.005969 0.009102
v 0.007986 0.006895 0.009102
v 0.008432 0.007897 0.009102
v 0.008756 0.008928 0.009102
v 0.008950 0.010006 0.009102
v 0.009018 0.011087 0.009102
v 0.009018 0.037854 0.009102
v 0.009990 0.037854 0.009348
v 0.010727 0.037854 0.010029
v 0.008699 0.039378 0.008953
v 0.011050 0.037854 0.010969
v 0.004509 0.037854 0.009102
v 0.009720 0.039310 0.009242
v 0.010380 0.039310 0.009842
v 0.010759 0.039340 0.010850
v 0.004210 0.039343 0.008915
v 0.008045 0.040582 0.008649
v 0.008993 0.040588 0.008942
v 0.009656 0.040587 0.009541
v 0.010127 0.040571 0.010593
v 0.003849 0.040521 0.008540
v 0.007205 0.041692 0.008258
v 0.008080 0.041719 0.008565
v 0.008746 0.041719 0.009163
v 0.009312 0.041709 0.010262
v 0.003396 0.041644 0.008046
v 0.006259 0.042778 0.007817
v 0.007095 0.042779 0.008159
v 0.007765 0.042779 0.008756
v 0.008433 0.042777 0.009905
v 0.002929 0.042715 0.007537
v 0.005335 0.043819 0.007387
v 0.006101 0.043829 0.007749
v 0.006775 0.043829 0.008344
v 0.007546 0.043837 0.009544
v 0.002431 0.043823 0.006941
v 0.004434 0.044934 0.006967
v 0.005155 0.044929 0.007359
v 0.005832 0.044929 0.007953
v 0.006702 0.044944 0.009200
v 0.001961 0.044932 0.006415
v 0.003674 0.046156 0.006613
v 0.004347 0.046150 0.007025
v 0.005027 0.046150 0.007619
v 0.005981 0.046166 0.008907
v 0.001512 0.046324 0.005914
v 0.003321 0.047069 0.006449
v 0.003973 0.047065 0.006870
v 0.004654 0.047065 0.007464
v 0.005647 0.047076 0.008771
v 0.001373 0.047051 0.005757
v 0.003187 0.048052 0.006387
v 0.003829 0.048052 0.006812
v 0.004512 0.048052 0.007405
v 0.005519 0.048052 0.008719
v 0.001293 0.048052 0.005665
v 0.003187 0.078420 0.006387
v 0.003829 0.078420 0.006812
v 0.004512 0.078420 0.007405
v 0.005519 0.078420 0.008719
v 0.001293 0.078420 0.005665
v 0.011578 0.078420 0.009603
v 0.010907 0.078420 0.007388
v 0.009816 0.078420 0.005347
v 0.008348 0.078420 0.003558
v 0.006559 0.078420 0.002090
v 0.004518 0.078420 0.000999
v 0.002303 0.078420 0.000328
v 0.016572 0.084338 0.008610
v 0.015610 0.084338 0.005440
v 0.014049 0.084338 0.002519
v 0.011947 0.084338 -0.000041
v 0.009387 0.084338 -0.002143
v 0.006466 0.084338 -0.003704
v 0.003296 0.084338 -0.004665
v 0.016634 0.085240 0.008597
v 0.015669 0.085240 0.005416
v 0.014101 0.085240 0.002484
v 0.011992 0.085240 -0.000086
v 0.009422 0.085240 -0.002195
v 0.006490 0.085240 -0.003763
v 0.003309 0.085240 -0.004728
v 0.016634 0.136417 0.008597
v 0.015669 0.136417 0.005416
v 0.014101 0.136417 0.002484
v 0.011992 0.136417 -0.000086
v 0.009422 0.136417 -0.002195
v 0.006490 0.136417 -0.003763
v 0.003309 0.136417 -0.004728
v 0.011089 0.011087 0.011906
v 0.001332 0.000118 0.012843
v 0.011006 0.009749 0.011906
v 0.002643 0.000358 0.012843
v 0.010761 0.008417 0.011906
v 0.003919 0.000755 0.012843
v 0.010362 0.007137 0.011906
v 0.005135 0.001302 0.012843
v 0.009808 0.005918 0.011906
v 0.006277 0.001993 0.012843
v 0.009121 0.004783 0.011906
v 0.007327 0.002816 0.012843
v 0.008311 0.003747 0.011906
v 0.008271 0.003759 0.012843
v 0.007355 0.002791 0.011906
v 0.009094 0.004810 0.012843
v 0.006293 0.001958 0.011906
v 0.009783 0.005950 0.012843
v 0.005156 0.001270 0.011906
v 0.010325 0.007150 0.012843
v 0.003942 0.000725 0.011906
v 0.010729 0.008443 0.012843
v 0.002642 0.000319 0.011906
v 0.010969 0.009756 0.012843
v 0.001339 0.000080 0.011906
v 0.011050 0.011087 0.012843
v 0.001292 0.000441 0.013789
v 0.002565 0.000674 0.013788
v 0.003803 0.001060 0.013789
v 0.004983 0.001591 0.013788
v 0.006092 0.002261 0.013788
v 0.007111 0.003060 0.013788
v 0.008027 0.003975 0.013788
v 0.008826 0.004995 0.013788
v 0.009495 0.006103 0.013788
v 0.010027 0.007285 0.013788
v 0.010412 0.008520 0.013788
v 0.010645 0.009795 0.013788
v 0.010725 0.011087 0.013786
v 0.001204 0.001172 0.014465
v 0.002401 0.001395 0.014465
v 0.003542 0.001748 0.014465
v 0.004669 0.002261 0.014465
v 0.005673 0.002867 0.014465
v 0.006625 0.003617 0.014465
v 0.007476 0.004464 0.014465
v 0.008223 0.005424 0.014465
v 0.008843 0.006445 0.014465
v 0.009332 0.007536 0.014465
v 0.009697 0.008697 0.014465
v 0.009911 0.009883 0.014465
v 0.009989 0.011087 0.014464
v 0.001087 0.002134 0.014710
v 0.002175 0.002336 0.014710
v 0.003198 0.002655 0.014710
v 0.004187 0.003102 0.014710
v 0.005124 0.003664 0.014710
v 0.005976 0.004336 0.014710
v 0.006750 0.005107 0.014710
v 0.007424 0.005969 0.014710
v 0.007986 0.006895 0.014710
v 0.008432 0.007897 0.014710
v 0.008756 0.008928 0.014710
v 0.008950 0.010006 0.014710
v 0.009018 0.011087 0.014710
v 0.009018 0.037854 0.014710
v 0.009990 0.037854 0.014464
v 0.010727 0.037854 0.013783
v 0.008699 0.039378 0.014859
v 0.011050 0.037854 0.012843
v 0.004509 0.037854 0.014710
v 0.011089 0.037854 0.011906
v 0.009720 0.039310 0.014570
v 0.010380 0.039310 0.013970
v 0.010759 0.039340 0.012962
v 0.004210 0.039343 0.014897
v 0.010840 0.039317 0.011906
v 0.008045 0.040582 0.015164
v 0.008993 0.040588 0.014870
v 0.009656 0.040587 0.014271
v 0.010127 0.040571 0.013219
v 0.003849 0.040521 0.015272
v 0.010326 0.040492 0.011906
v 0.007205 0.041692 0.015554
v 0.008080 0.041719 0.015247
v 0.008746 0.041719 0.014649
v 0.009312 0.041709 0.013550
v 0.003396 0.041644 0.015766
v 0.009601 0.041694 0.011906
v 0.006259 0.042778 0.015995
v 0.007095 0.042779 0.015653
v 0.007765 0.042779 0.015056
v 0.008433 0.042777 0.013907
v 0.002929 0.042715 0.016275
v 0.008870 0.042750 0.011906
v 0.005335 0.043819 0.016425
v 0.006101 0.043829 0.016063
v 0.006775 0.043829 0.015468
v 0.007546 0.043837 0.014268
v 0.002431 0.043823 0.016871
v 0.008116 0.043828 0.011906
v 0.004434 0.044934 0.016845
v 0.005155 0.044929 0.016453
v 0.005832 0.044929 0.015859
v 0.006702 0.044944 0.014612
v 0.001961 0.044932 0.017397
v 0.007369 0.044994 0.011906
v 0.003674 0.046156 0.017199
v 0.004347 0.046150 0.016787
v 0.005027 0.046150 0.016193
v 0.005981 0.046166 0.014905
v 0.001512 0.046324 0.017898
v 0.006755 0.046232 0.011906
v 0.003321 0.047069 0.017363
v 0.003973 0.047065 0.016942
v 0.004654 0.047065 0.016348
v 0.005647 0.047076 0.015041
v 0.001373 0.047051 0.018055
v 0.006488 0.047067 0.011906
v 0.003187 0.048052 0.017426
v 0.003829 0.048052 0.017001
v 0.004512 0.048052 0.016407
v 0.005519 0.048052 0.015093
v 0.001293 0.048052 0.018147
v 0.006373 0.048052 0.011906
v 0.003187 0.078420 0.017426
v 0.003829 0.078420 0.017001
v 0.004512 0.078420 0.016407
v 0.005519 0.078420 0.015093
v 0.001293 0.078420 0.018147
v 0.006373 0.078420 0.011906
v 0.011805 0.078420 0.011906
v 0.011578 0.078420 0.014209
v 0.010907 0.078420 0.016424
v 0.009816 0.078420 0.018465
v 0.008348 0.078420 0.020254
v 0.006559 0.078420 0.021722
v 0.004518 0.078420 0.022813
v 0.002303 0.078420 0.023484
v 0.016896 0.084338 0.011906
v 0.016572 0.084338 0.015202
v 0.015610 0.084338 0.018372
v 0.014049 0.084338 0.021293
v 0.011947 0.084338 0.023853
v 0.009387 0.084338 0.025955
v 0.006466 0.084338 0.027516
v 0.003296 0.084338 0.028478
v 0.016960 0.085240 0.011906
v 0.016634 0.085240 0.015215
v 0.015669 0.085240 0.018396
v 0.014101 0.085240 0.021328
v 0.011992 0.085240 0.023898
v 0.009422 0.085240 0.026007
v 0.006490 0.085240 0.027575
v 0.003309 0.085240 0.028540
v 0.016960 0.136417 0.011906
v 0.016634 0.136417 0.015215
v 0.015669 0.136417 0.018396
v 0.014101 0.136417 0.021328
v 0.011992 0.136417 0.023898
v 0.009422 0.136417 0.026007
v 0.006490 0.136417 0.027575
v 0.003309 0.136417 0.028540
v -0.001332 0.000118 0.010969
v -0.002643 0.000358 0.010969
v -0.003919 0.000755 0.010969
v -0.005135 0.001302 0.010969
v -0.006277 0.001993 0.010969
v -0.007327 0.002816 0.010969
v -0.008271 0.003759 0.010969
v -0.009094 0.004810 0.010969
v -0.009783 0.005950 0.010969
v -0.010325 0.007150 0.010969
v -0.010729 0.008443 0.010969
v -0.010969 0.009756 0.010969
v -0.011050 0.011087 0.010969
v -0.001292 0.000441 0.010023
v -0.002565 0.000674 0.010024
v -0.003803 0.001060 0.010023
v -0.004983 0.001591 0.010024
v -0.006092 0.002261 0.010024
v -0.007111 0.003060 0.010024
v -0.008027 0.003975 0.010024
v -0.008826 0.004995 0.010024
v -0.009495 0.006103 0.010024
v -0.010027 0.007285 0.010024
v -0.010412 0.008520 0.010024
v -0.010645 0.009795 0.010024
v -0.010725 0.011087 0.010026
v -0.001204 0.001172 0.009347
v -0.002401 0.001395 0.009347
v -0.003542 0.001748 0.009347
v -0.004669 0.002261 0.009347
v -0.005673 0.002867 0.009347
v -0.006625 0.003617 0.009347
v -0.007476 0.004464 0.009347
v -0.008223 0.005424 0.009347
v -0.008843 0.006445 0.009347
v -0.009332 0.007536 0.009347
v -0.009697 0.008697 0.009347
v -0.009911 0.009883 0.009347
v -0.009989 0.011087 0.009348
v -0.001087 0.002134 0.009102
v -0.002175 0.002336 0.009102
v -0.003198 0.002655 0.009102
v -0.004187 0.003102 0.009102
v -0.005124 0.003664 0.009102
v -0.005976 0.004336 0.009102
v -0.006750 0.005107 0.009102
v -0.007424 0.005969 0.009102
v -0.007986 0.006895 0.009102
v -0.008432 0.007897 0.009102
v -0.008756 0.008928 0.009102
v -0.008950 0.010006 0.009102
v -0.009018 0.011087 0.009102
v -0.009018 0.037854 0.009102
v -0.009990 0.037854 0.009348
v -0.010727 0.037854 0.010029
v -0.008699 0.039378 0.008953
v -0.011050 0.037854 0.010969
v -0.004509 0.037854 0.009102
v -0.009720 0.039310 0.009242
v -0.010380 0.039310 0.009842
v -0.010759 0.039340 0.010850
v -0.004210 0.039343 0.008915
v -0.008045 0.040582 0.008649
v -0.008993 0.040588 0.008942
v -0.009656 0.040587 0.009541
v -0.010127 0.040571 0.010593
v -0.003849 0.040521 0.008540
v -0.007205 0.041692 0.008258
v -0.008080 0.041719 0.008565
v -0.008746 0.041719 0.009163
v -0.009312 0.041709 0.010262
v -0.003396 0.041644 0.008046
v -0.006259 0.042778 0.007817
v -0.007095 0.042779 0.008159
v -0.007765 0.042779 0.008756
v -0.008433 0.042777 0.009905
v -0.002929 0.042715 0.007537
v -0.005335 0.043819 0.007387
v -0.006101 0.043829 0.007749
v -0.006775 0.043829 0.008344
v -0.007546 0.043837 0.009544
v -0.002431 0.043823 0.006941
v -0.004434 0.044934 0.006967
v -0.005155 0.044929 0.007359
v -0.005832 0.044929 0.007953
v -0.006702 0.044944 0.009200
v -0.001961 0.044932 0.006415
v -0.003674 0.046156 0.006613
v -0.004347 0.046150 0.007025
v -0.005027 0.046150 0.007619
v -0.005981 0.046166 0.008907
v -0.001512 0.046324 0.005914
v -0.003321 0.047069 0.006449
v -0.003973 0.047065 0.006870
v -0.004654 0.047065 0.007464
v -0.005647 0.047076 0.008771
v -0.001373 0.047051 0.005757
v -0.003187 0.048052 0.006387
v -0.003829 0.048052 0.006812
v -0.004512 0.048052 0.007405
v -0.005519 0.048052 0.008719
v -0.001293 0.048052 0.005665
v -0.003187 0.078420 0.006387
v -0.003829 0.078420 0.006812
v -0.004512 0.078420 0.007405
v -0.005519 0.078420 0.008719
v -0.001293 0.078420 0.005665
v -0.011578 0.078420 0.009603
v -0.010907 0.078420 0.007388
v -0.009816 0.078420 0.005347
v -0.008348 0.078420 0.003558
v -0.006559 0.078420 0.002090
v -0.004518 0.078420 0.000999
v -0.002303 0.078420 0.000328
v -0.016572 0.084338 0.008610
v -0.015610 0.084338 0.005440
v -0.014049 0.084338 0.002519
v -0.011947 0.084338 -0.000041
v -0.009387 0.084338 -0.002143
v -0.006466 0.084338 -0.003704
v -0.003296 0.084338 -0.004665
v -0.016634 0.085240 0.008597
v -0.015669 0.085240 0.005416
v -0.014101 0.085240 0.002484
v -0.011992 0.085240 -0.000086
v -0.009422 0.085240 -0.002195
v -0.006490 0.085240 -0.003763
v -0.003309 0.085240 -0.004728
v -0.016634 0.136417 0.008597
v -0.015669 0.136417 0.005416
v -0.014101 0.136417 0.002484
v -0.011992 0.136417 -0.000086
v -0.009422 0.136417 -0.002195
v -0.006490 0.136417 -0.003763
v -0.003309 0.136417 -0.004728
v 0.000000 0.000040 0.010969
v 0.000000 0.000364 0.010024
v 0.000000 0.001102 0.009347
v 0.000000 0.011015 0.009102
v 0.000000 0.002070 0.009102
v 0.000000 0.037854 0.009102
v 0.000000 0.039327 0.008907
v 0.000000 0.040508 0.008512
v 0.000000 0.041633 0.008005
v 0.000000 0.042731 0.007437
v 0.000000 0.043831 0.006857
v 0.000000 0.044951 0.006315
v 0.000000 0.046331 0.005799
v 0.000000 0.047064 0.005626
v 0.000000 0.048052 0.005533
v 0.000000 0.078420 0.005533
v 0.000000 0.078420 0.000101
v 0.000000 0.084338 -0.004990
v 0.000000 0.085240 -0.005054
v 0.000000 0.136417 -0.005054
v -0.011089 0.011087 0.011906
v -0.001332 0.000118 0.012843
v -0.011006 0.009749 0.011906
v -0.002643 0.000358 0.012843
v -0.010761 0.008417 0.011906
v -0.003919 0.000755 0.012843
v -0.010362 0.007137 0.011906
v -0.005135 0.001302 0.012843
v -0.009808 0.005918 0.011906
v -0.006277 0.001993 0.012843
v -0.009121 0.004783 0.011906
v -0.007327 0.002816 0.012843
v -0.008311 0.003747 0.011906
v -0.008271 0.003759 0.012843
v -0.007355 0.002791 0.011906
v -0.009094 0.004810 0.012843
v -0.006293 0.001958 0.011906
v -0.009783 0.005950 0.012843
v -0.005156 0.001270 0.011906
v -0.010325 0.007150 0.012843
v -0.003942 0.000725 0.011906
v -0.010729 0.008443 0.012843
v -0.002642 0.000319 0.011906
v -0.010969 0.009756 0.012843
v -0.001339 0.000080 0.011906
v -0.011050 0.011087 0.012843
v -0.001292 0.000441 0.013789
v -0.002565 0.000674 0.013788
v -0.003803 0.001060 0.013789
v -0.004983 0.001591 0.013788
v -0.006092 0.002261 0.013788
v -0.007111 0.003060 0.013788
v -0.008027 0.003975 0.013788
v -0.008826 0.004995 0.013788
v -0.009495 0.006103 0.013788
v -0.010027 0.007285 0.013788
v -0.010412 0.008520 0.013788
v -0.010645 0.009795 0.013788
v -0.010725 0.011087 0.013786
v -0.001204 0.001172 0.014465
v -0.002401 0.001395 0.014465
v -0.003542 0.001748 0.014465
v -0.004669 0.002261 0.014465
v -0.005673 0.002867 0.014465
v -0.006625 0.003617 0.014465
v -0.007476 0.004464 0.014465
v -0.008223 0.005424 0.014465
v -0.008843 0.006445 0.014465
v -0.009332 0.007536 0.014465
v -0.009697 0.008697 0.014465
v -0.009911 0.009883 0.014465
v -0.009989 0.011087 0.014464
v -0.001087 0.002134 0.014710
v -0.002175 0.002336 0.014710
v -0.003198 0.002655 0.014710
v -0.004187 0.003102 0.014710
v -0.005124 0.003664 0.014710
v -0.005976 0.004336 0.014710
v -0.006750 0.005107 0.014710
v -0.007424 0.005969 0.014710
v -0.007986 0.006895 0.014710
v -0.008432 0.007897 0.014710
v -0.008756 0.008928 0.014710
v -0.008950 0.010006 0.014710
v -0.009018 0.011087 0.014710
v -0.009018 0.037854 0.014710
v -0.009990 0.037854 0.014464
v -0.010727 0.037854 0.013783
v -0.008699 0.039378 0.014859
v -0.011050 0.037854 0.012843
v -0.004509 0.037854 0.014710
v -0.011089 0.037854 0.011906
v -0.009720 0.039310 0.014570
v -0.010380 0.039310 0.013970
v -0.010759 0.039340 0.012962
v -0.004210 0.039343 0.014897
v -0.010840 0.039317 0.011906
v -0.008045 0.040582 0.015164
v -0.008993 0.040588 0.014870
v -0.009656 0.040587 0.014271
v -0.010127 0.040571 0.013219
v -0.003849 0.040521 0.015272
v -0.010326 0.040492 0.011906
v -0.007205 0.041692 0.015554
v -0.008080 0.041719 0.015247
v -0.008746 0.041719 0.014649
v -0.009312 0.041709 0.013550
v -0.003396 0.041644 0.015766
v -0.009601 0.041694 0.011906
v -0.006259 0.042778 0.015995
v -0.007095 0.042779 0.015653
v -0.007765 0.042779 0.015056
v -0.008433 0.042777 0.013907
v -0.002929 0.042715 0.016275
v -0.008870 0.042750 0.011906
v -0.005335 0.043819 0.016425
v -0.006101 0.043829 0.016063
v -0.006775 0.043829 0.015468
v -0.007546 0.043837 0.014268
v -0.002431 0.043823 0.016871
v -0.008116 0.043828 0.011906
v -0.004434 0.044934 0.016845
v -0.005155 0.044929 0.016453
v -0.005832 0.044929 0.015859
v -0.006702 0.044944 0.014612
v -0.001961 0.044932 0.017397
v -0.007369 0.044994 0.011906
v -0.003674 0.046156 0.017199
v -0.004347 0.046150 0.016787
v -0.005027 0.046150 0.016193
v -0.005981 0.046166 0.014905
v -0.001512 0.046324 0.017898
v -0.006755 0.046232 0.011906
v -0.003321 0.047069 0.017363
v -0.003973 0.047065 0.016942
v -0.004654 0.047065 0.016348
v -0.005647 0.047076 0.015041
v -0.001373 0.047051 0.018055
v -0.006488 0.047067 0.011906
v -0.003187 0.048052 0.017426
v -0.003829 0.048052 0.017001
v -0.004512 0.048052 0.016407
v -0.005519 0.048052 0.015093
v -0.001293 0.048052 0.018147
v -0.006373 0.048052 0.011906
v -0.003187 0.078420 0.017426
v -0.003829 0.078420 0.017001
v -0.004512 0.078420 0.016407
v -0.005519 0.078420 0.015093
v -0.001293 0.078420 0.018147
v -0.006373 0.078420 0.011906
v -0.011805 0.078420 0.011906
v -0.011578 0.078420 0.014209
v -0.010907 0.078420 0.016424
v -0.009816 0.078420 0.018465
v -0.008348 0.078420 0.020254
v -0.006559 0.078420 0.021722
v -0.004518 0.078420 0.022813
v -0.002303 0.078420 0.023484
v -0.016896 0.084338 0.011906
v -0.016572 0.084338 0.015202
v -0.015610 0.084338 0.018372
v -0.014049 0.084338 0.021293
v -0.011947 0.084338 0.023853
v -0.009387 0.084338 0.025955
v -0.006466 0.084338 0.027516
v -0.003296 0.084338 0.028478
v -0.016960 0.085240 0.011906
v -0.016634 0.085240 0.015215
v -0.015669 0.085240 0.018396
v -0.014101 0.085240 0.021328
v -0.011992 0.085240 0.023898
v -0.009422 0.085240 0.026007
v -0.006490 0.085240 0.027575
v -0.003309 0.085240 0.028540
v -0.016960 0.136417 0.011906
v -0.016634 0.136417 0.015215
v -0.015669 0.136417 0.018396
v -0.014101 0.136417 0.021328
v -0.011992 0.136417 0.023898
v -0.009422 0.136417 0.026007
v -0.006490 0.136417 0.027575
v -0.003309 0.136417 0.028540
v 0.000000 0.000040 0.012843
v 0.000000 0.000339 0.011906
v 0.000000 0.000364 0.013788
v 0.000000 0.001102 0.014465
v 0.000000 0.011015 0.014710
v 0.000000 0.002070 0.014710
v 0.000000 0.037854 0.014710
v 0.000000 0.039327 0.014905
v 0.000000 0.040508 0.015301
v 0.000000 0.041633 0.015807
v 0.000000 0.042731 0.016375
v 0.000000 0.043831 0.016955
v 0.000000 0.044951 0.017497
v 0.000000 0.046331 0.018013
v 0.000000 0.047064 0.018186
v 0.000000 0.048052 0.018279
v 0.000000 0.078420 0.018279
v 0.000000 0.078420 0.023711
v 0.000000 0.084338 0.028802
v 0.000000 0.085240 0.028866
v 0.000000 0.136417 0.028866
vn 0.4567 -0.8703 -0.1845
vn 0.5585 -0.8088 -0.1842
vn 0.5681 -0.8230 -0.0000
vn 0.4649 -0.8854 -0.0000
vn 0.8701 -0.4572 -0.1842
vn 0.9185 -0.3497 -0.1844
vn 0.9346 -0.3558 -0.0000
vn 0.8845 -0.4665 -0.0000
vn 0.9544 -0.2351 -0.1840
vn 0.9757 -0.1188 -0.1840
vn 0.9926 -0.1213 -0.0000
vn 0.9707 -0.2403 -0.0000
vn 0.6517 -0.7359 -0.1838
vn 0.7355 -0.6520 -0.1842
vn 0.7492 -0.6624 -0.0000
vn 0.6632 -0.7484 -0.0000
vn 0.0866 -0.9863 -0.1404
vn 0.2355 -0.9543 -0.1840
vn 0.2390 -0.9710 -0.0000
vn 0.0577 -0.9983 -0.0000
vn 0.8090 -0.5581 -0.1843
vn 0.8229 -0.5681 -0.0000
vn 0.3483 -0.9191 -0.1839
vn 0.3550 -0.9349 -0.0000
vn -0.0000 -0.9954 -0.0961
vn -0.0000 -1.0000 -0.0000
vn 0.9823 -0.0299 -0.1849
vn 0.9995 -0.0306 -0.0000
vn 0.2007 -0.8147 -0.5441
vn 0.2977 -0.7844 -0.5442
vn 0.6280 -0.5563 -0.5442
vn 0.6905 -0.4766 -0.5442
vn 0.8329 -0.1011 -0.5441
vn 0.8381 -0.0255 -0.5449
vn -0.0000 -0.8393 -0.5436
vn 0.1007 -0.8331 -0.5439
vn 0.4767 -0.6905 -0.5440
vn 0.5563 -0.6281 -0.5441
vn 0.7845 -0.2973 -0.5442
vn 0.8146 -0.2009 -0.5441
vn 0.3898 -0.7430 -0.5441
vn 0.7428 -0.3899 -0.5443
vn 0.4786 -0.0580 -0.8761
vn 0.4797 -0.0148 -0.8773
vn 0.2743 -0.3971 -0.8758
vn 0.3198 -0.3607 -0.8762
vn 0.3612 -0.3199 -0.8759
vn 0.3969 -0.2735 -0.8761
vn -0.0000 -0.4823 -0.8760
vn 0.0582 -0.4791 -0.8758
vn 0.4273 -0.2242 -0.8759
vn 0.1157 -0.4679 -0.8762
vn 0.4505 -0.1712 -0.8762
vn 0.1714 -0.4510 -0.8759
vn 0.4685 -0.1155 -0.8759
vn 0.2249 -0.4264 -0.8761
vn 0.0961 -0.0852 -0.9917
vn 0.1056 -0.0729 -0.9917
vn 0.0156 -0.1276 -0.9917
vn 0.0308 -0.1245 -0.9917
vn 0.1139 -0.0597 -0.9917
vn -0.0000 -0.1282 -0.9918
vn 0.1198 -0.0453 -0.9918
vn 0.0456 -0.1200 -0.9917
vn 0.1248 -0.0307 -0.9917
vn 0.0595 -0.1135 -0.9918
vn 0.1272 -0.0153 -0.9918
vn 0.0731 -0.1058 -0.9917
vn 0.1262 -0.0040 -0.9920
vn 0.0850 -0.0959 -0.9918
vn -0.0000 -0.0000 -1.0000
vn 0.9784 0.0867 -0.1879
vn 0.9960 0.0891 -0.0000
vn -0.0000 -0.0640 -0.9979
vn 0.0016 -0.0589 -0.9983
vn 0.4914 0.0126 -0.8709
vn 0.8421 0.0636 -0.5355
vn 0.1370 -0.0331 -0.9900
vn -0.0000 -0.2194 -0.9756
vn 0.0081 -0.2027 -0.9792
vn 0.9340 0.2919 -0.2060
vn 0.9542 0.2991 -0.0000
vn 0.5032 0.0638 -0.8618
vn 0.8104 0.2175 -0.5440
vn 0.1553 -0.1110 -0.9816
vn 0.8565 0.4599 -0.2343
vn 0.8793 0.4763 -0.0000
vn 0.4963 0.1008 -0.8623
vn 0.7564 0.3504 -0.5523
vn 0.0204 -0.3311 -0.9434
vn 0.1740 -0.1832 -0.9676
vn -0.0000 -0.3578 -0.9338
vn 0.2044 -0.2059 -0.9570
vn 0.5020 0.1257 -0.8557
vn 0.8038 0.5328 -0.2647
vn 0.8278 0.5610 -0.0000
vn 0.7186 0.4058 -0.5647
vn 0.0367 -0.3881 -0.9209
vn -0.0000 -0.4233 -0.9060
vn 0.7808 0.5480 -0.2999
vn 0.8086 0.5883 -0.0000
vn 0.5148 0.1450 -0.8449
vn 0.6990 0.4134 -0.5835
vn 0.0594 -0.4087 -0.9107
vn 0.2431 -0.1929 -0.9506
vn -0.0000 -0.4535 -0.8913
vn 0.7842 0.5204 -0.3380
vn 0.8199 0.5726 -0.0000
vn 0.5331 0.1561 -0.8315
vn 0.6941 0.3843 -0.6087
vn 0.0915 -0.3869 -0.9176
vn 0.2905 -0.1626 -0.9430
vn -0.0000 -0.4453 -0.8954
vn 0.8103 0.4468 -0.3792
vn 0.8615 0.5078 -0.0000
vn 0.5550 0.1482 -0.8185
vn 0.7003 0.3185 -0.6389
vn 0.1312 -0.3155 -0.9398
vn 0.3444 -0.1059 -0.9328
vn -0.0000 -0.3807 -0.9247
vn 0.5777 0.1176 -0.8077
vn 0.7113 0.2236 -0.6663
vn 0.1762 -0.2124 -0.9612
vn 0.3947 -0.0543 -0.9172
vn 0.8479 0.3273 -0.4170
vn -0.0000 -0.2744 -0.9616
vn 0.9224 0.3863 -0.0000
vn 0.2078 -0.1112 -0.9718
vn 0.4300 -0.0175 -0.9027
vn 0.7202 0.1161 -0.6840
vn 0.8794 0.1756 -0.4425
vn -0.0000 -0.1503 -0.9886
vn 0.5932 0.0658 -0.8023
vn 0.9763 0.2165 -0.0000
vn 0.7255 0.0309 -0.6875
vn 0.8933 0.0474 -0.4470
vn -0.0000 -0.0443 -0.9990
vn 0.2233 -0.0320 -0.9742
vn 0.4481 -0.0040 -0.8940
vn 0.6015 0.0183 -0.7987
vn 0.9983 0.0586 -0.0000
vn 0.7286 -0.0000 -0.6850
vn 0.8970 -0.0000 -0.4420
vn 0.2309 -0.0000 -0.9730
vn 0.4565 -0.0000 -0.8897
vn 0.6051 -0.0000 -0.7961
vn 1.0000 -0.0000 -0.0000
vn 0.4212 -0.6521 -0.6304
vn 0.5153 -0.3738 -0.7712
vn 0.6559 -0.3738 -0.6559
vn 0.5361 -0.6521 -0.5361
vn 0.6304 -0.6521 -0.4212
vn 0.7712 -0.3738 -0.5153
vn 0.8569 -0.3738 -0.3550
vn 0.7004 -0.6521 -0.2901
vn 0.7436 -0.6521 -0.1479
vn 0.9097 -0.3738 -0.1809
vn 0.9275 -0.3738 -0.0000
vn 0.7581 -0.6521 -0.0000
vn -0.0000 -0.6521 -0.7581
vn -0.0000 -0.3738 -0.9275
vn 0.1810 -0.3738 -0.9097
vn 0.1479 -0.6521 -0.7436
vn 0.2901 -0.6521 -0.7004
vn 0.3549 -0.3738 -0.8569
vn -0.0000 -0.0351 -0.9994
vn 0.1950 -0.0351 -0.9802
vn 0.3824 -0.0351 -0.9233
vn 0.5552 -0.0351 -0.8310
vn 0.7067 -0.0351 -0.7067
vn 0.8310 -0.0351 -0.5552
vn 0.9233 -0.0351 -0.3825
vn 0.9802 -0.0351 -0.1950
vn 0.9994 -0.0351 -0.0000
vn 0.9239 -0.0000 -0.3827
vn 0.9808 -0.0000 -0.1951
vn 0.1951 -0.0000 -0.9808
vn 0.3827 -0.0000 -0.9239
vn 0.5556 -0.0000 -0.8315
vn 0.7071 -0.0000 -0.7071
vn 0.8315 -0.0000 -0.5556
vn 0.4567 -0.8703 0.1845
vn 0.5585 -0.8088 0.1842
vn 0.8701 -0.4572 0.1842
vn 0.9185 -0.3497 0.1844
vn 0.9544 -0.2351 0.1840
vn 0.9757 -0.1188 0.1840
vn 0.6517 -0.7359 0.1838
vn 0.7355 -0.6520 0.1842
vn 0.0866 -0.9863 0.1404
vn 0.2355 -0.9543 0.1840
vn 0.8090 -0.5581 0.1843
vn 0.3483 -0.9191 0.1839
vn -0.0000 -0.9954 0.0961
vn 0.9823 -0.0299 0.1849
vn 0.2977 -0.7844 0.5442
vn 0.2007 -0.8147 0.5441
vn 0.6905 -0.4766 0.5442
vn 0.6280 -0.5563 0.5442
vn 0.8381 -0.0255 0.5449
vn 0.8329 -0.1011 0.5441
vn 0.1007 -0.8331 0.5439
vn -0.0000 -0.8393 0.5436
vn 0.5563 -0.6281 0.5441
vn 0.4767 -0.6905 0.5440
vn 0.8146 -0.2009 0.5441
vn 0.7845 -0.2973 0.5442
vn 0.3898 -0.7430 0.5441
vn 0.7428 -0.3899 0.5443
vn 0.4797 -0.0148 0.8773
vn 0.4786 -0.0580 0.8761
vn 0.3198 -0.3607 0.8762
vn 0.2743 -0.3971 0.8758
vn 0.3612 -0.3199 0.8759
vn 0.3969 -0.2735 0.8761
vn 0.0582 -0.4791 0.8758
vn -0.0000 -0.4823 0.8760
vn 0.4273 -0.2242 0.8759
vn 0.1157 -0.4679 0.8762
vn 0.4505 -0.1712 0.8762
vn 0.1714 -0.4510 0.8759
vn 0.4685 -0.1155 0.8759
vn 0.2249 -0.4264 0.8761
vn 0.1056 -0.0729 0.9917
vn 0.0961 -0.0852 0.9917
vn 0.0308 -0.1245 0.9917
vn 0.0156 -0.1276 0.9917
vn 0.1139 -0.0597 0.9917
vn -0.0000 -0.1282 0.9918
vn 0.1198 -0.0453 0.9918
vn 0.0456 -0.1200 0.9917
vn 0.1248 -0.0307 0.9917
vn 0.0595 -0.1135 0.9918
vn 0.1272 -0.0153 0.9918
vn 0.0731 -0.1058 0.9917
vn 0.1262 -0.0040 0.9920
vn 0.0850 -0.0959 0.9918
vn -0.0000 -0.0000 1.0000
vn 0.9784 0.0867 0.1879
vn 0.0016 -0.0589 0.9983
vn -0.0000 -0.0640 0.9979
vn 0.8421 0.0636 0.5355
vn 0.4914 0.0126 0.8709
vn 0.1370 -0.0331 0.9900
vn 0.0081 -0.2027 0.9792
vn -0.0000 -0.2194 0.9756
vn 0.9340 0.2919 0.2060
vn 0.8104 0.2175 0.5440
vn 0.5032 0.0638 0.8618
vn 0.1553 -0.1110 0.9816
vn 0.8565 0.4599 0.2343
vn 0.7564 0.3504 0.5523
vn 0.4963 0.1008 0.8623
vn 0.1740 -0.1832 0.9676
vn 0.0204 -0.3311 0.9434
vn -0.0000 -0.3578 0.9338
vn 0.5020 0.1257 0.8557
vn 0.2044 -0.2059 0.9570
vn 0.8038 0.5328 0.2647
vn 0.7186 0.4058 0.5647
vn 0.0367 -0.3881 0.9209
vn -0.0000 -0.4233 0.9060
vn 0.7808 0.5480 0.2999
vn 0.6990 0.4134 0.5835
vn 0.5148 0.1450 0.8449
vn 0.2431 -0.1929 0.9506
vn 0.0594 -0.4087 0.9107
vn -0.0000 -0.4535 0.8913
vn 0.7842 0.5204 0.3380
vn 0.6941 0.3843 0.6087
vn 0.5331 0.1561 0.8315
vn 0.2905 -0.1626 0.9430
vn 0.0915 -0.3869 0.9176
vn -0.0000 -0.4453 0.8954
vn 0.8103 0.4468 0.3792
vn 0.7003 0.3185 0.6389
vn 0.5550 0.1482 0.8185
vn 0.3444 -0.1059 0.9328
vn 0.1312 -0.3155 0.9398
vn -0.0000 -0.3807 0.9247
vn 0.7113 0.2236 0.6663
vn 0.5777 0.1176 0.8077
vn 0.3947 -0.0543 0.9172
vn 0.1762 -0.2124 0.9612
vn 0.8479 0.3273 0.4170
vn -0.0000 -0.2744 0.9616
vn 0.4300 -0.0175 0.9027
vn 0.2078 -0.1112 0.9718
vn 0.8794 0.1756 0.4425
vn 0.7202 0.1161 0.6840
vn -0.0000 -0.1503 0.9886
vn 0.5932 0.0658 0.8023
vn 0.8933 0.0474 0.4470
vn 0.7255 0.0309 0.6875
vn 0.2233 -0.0320 0.9742
vn -0.0000 -0.0443 0.9990
vn 0.6015 0.0183 0.7987
vn 0.4481 -0.0040 0.8940
vn 0.8970 -0.0000 0.4420
vn 0.7286 -0.0000 0.6850
vn 0.2309 -0.0000 0.9730
vn 0.6051 -0.0000 0.7961
vn 0.4565 -0.0000 0.8897
vn 0.4212 -0.6521 0.6304
vn 0.5361 -0.6521 0.5361
vn 0.6559 -0.3738 0.6559
vn 0.5153 -0.3738 0.7712
vn 0.6304 -0.6521 0.4212
vn 0.7004 -0.6521 0.2901
vn 0.8569 -0.3738 0.3550
vn 0.7712 -0.3738 0.5153
vn 0.7436 -0.6521 0.1479
vn 0.9097 -0.3738 0.1809
vn -0.0000 -0.6521 0.7581
vn 0.1479 -0.6521 0.7436
vn 0.1810 -0.3738 0.9097
vn -0.0000 -0.3738 0.9275
vn 0.2901 -0.6521 0.7004
vn 0.3549 -0.3738 0.8569
vn 0.1950 -0.0351 0.9802
vn -0.0000 -0.0351 0.9994
vn 0.5552 -0.0351 0.8310
vn 0.3824 -0.0351 0.9233
vn 0.8310 -0.0351 0.5552
vn 0.7067 -0.0351 0.7067
vn 0.9802 -0.0351 0.1950
vn 0.9233 -0.0351 0.3825
vn 0.9808 -0.0000 0.1951
vn 0.9239 -0.0000 0.3827
vn 0.3827 -0.0000 0.9239
vn 0.1951 -0.0000 0.9808
vn 0.7071 -0.0000 0.7071
vn 0.5556 -0.0000 0.8315
vn 0.8315 -0.0000 0.5556
vn -0.4567 -0.8703 -0.1845
vn -0.4649 -0.8854 -0.0000
vn -0.5681 -0.8230 -0.0000
vn -0.5585 -0.8088 -0.1842
vn -0.8701 -0.4572 -0.1842
vn -0.8845 -0.4665 -0.0000
vn -0.9346 -0.3558 -0.0000
vn -0.9185 -0.3497 -0.1844
vn -0.9544 -0.2351 -0.1840
vn -0.9707 -0.2403 -0.0000
vn -0.9926 -0.1213 -0.0000
vn -0.9757 -0.1188 -0.1840
vn -0.6517 -0.7359 -0.1838
vn -0.6632 -0.7484 -0.0000
vn -0.7492 -0.6624 -0.0000
vn -0.7355 -0.6520 -0.1842
vn -0.0866 -0.9863 -0.1404
vn -0.0577 -0.9983 -0.0000
vn -0.2390 -0.9710 -0.0000
vn -0.2355 -0.9543 -0.1840
vn -0.8090 -0.5581 -0.1843
vn -0.8229 -0.5681 -0.0000
vn -0.3483 -0.9191 -0.1839
vn -0.3550 -0.9349 -0.0000
vn -0.9995 -0.0306 -0.0000
vn -0.9823 -0.0299 -0.1849
vn -0.2977 -0.7844 -0.5442
vn -0.2007 -0.8147 -0.5441
vn -0.6905 -0.4766 -0.5442
vn -0.6280 -0.5563 -0.5442
vn -0.8381 -0.0255 -0.5449
vn -0.8329 -0.1011 -0.5441
vn -0.1007 -0.8331 -0.5439
vn -0.5563 -0.6281 -0.5441
vn -0.4767 -0.6905 -0.5440
vn -0.8146 -0.2009 -0.5441
vn -0.7845 -0.2973 -0.5442
vn -0.3898 -0.7430 -0.5441
vn -0.7428 -0.3899 -0.5443
vn -0.4797 -0.0148 -0.8773
vn -0.4786 -0.0580 -0.8761
vn -0.3198 -0.3607 -0.8762
vn -0.2743 -0.3971 -0.8758
vn -0.3612 -0.3199 -0.8759
vn -0.3969 -0.2735 -0.8761
vn -0.0582 -0.4791 -0.8758
vn -0.4273 -0.2242 -0.8759
vn -0.1157 -0.4679 -0.8762
vn -0.4505 -0.1712 -0.8762
vn -0.1714 -0.4510 -0.8759
vn -0.4685 -0.1155 -0.8759
vn -0.2249 -0.4264 -0.8761
vn -0.1056 -0.0729 -0.9917
vn -0.0961 -0.0852 -0.9917
vn -0.0308 -0.1245 -0.9917
vn -0.0156 -0.1276 -0.9917
vn -0.1139 -0.0597 -0.9917
vn -0.1198 -0.0453 -0.9918
vn -0.0456 -0.1200 -0.9917
vn -0.1248 -0.0307 -0.9917
vn -0.0595 -0.1135 -0.9918
vn -0.1272 -0.0153 -0.9918
vn -0.0731 -0.1058 -0.9917
vn -0.1262 -0.0040 -0.9920
vn -0.0850 -0.0959 -0.9918
vn -0.9960 0.0891 -0.0000
vn -0.9784 0.0867 -0.1879
vn -0.0016 -0.0589 -0.9983
vn -0.8421 0.0636 -0.5355
vn -0.4914 0.0126 -0.8709
vn -0.1370 -0.0331 -0.9900
vn -0.0081 -0.2027 -0.9792
vn -0.9542 0.2991 -0.0000
vn -0.9340 0.2919 -0.2060
vn -0.8104 0.2175 -0.5440
vn -0.5032 0.0638 -0.8618
vn -0.1553 -0.1110 -0.9816
vn -0.8793 0.4763 -0.0000
vn -0.8565 0.4599 -0.2343
vn -0.7564 0.3504 -0.5523
vn -0.4963 0.1008 -0.8623
vn -0.1740 -0.1832 -0.9676
vn -0.0204 -0.3311 -0.9434
vn -0.5020 0.1257 -0.8557
vn -0.2044 -0.2059 -0.9570
vn -0.8278 0.5610 -0.0000
vn -0.8038 0.5328 -0.2647
vn -0.7186 0.4058 -0.5647
vn -0.0367 -0.3881 -0.9209
vn -0.8086 0.5883 -0.0000
vn -0.7808 0.5480 -0.2999
vn -0.6990 0.4134 -0.5835
vn -0.5148 0.1450 -0.8449
vn -0.2431 -0.1929 -0.9506
vn -0.0594 -0.4087 -0.9107
vn -0.8199 0.5726 -0.0000
vn -0.7842 0.5204 -0.3380
vn -0.6941 0.3843 -0.6087
vn -0.5331 0.1561 -0.8315
vn -0.2905 -0.1626 -0.9430
vn -0.0915 -0.3869 -0.9176
vn -0.8615 0.5078 -0.0000
vn -0.8103 0.4468 -0.3792
vn -0.7003 0.3185 -0.6389
vn -0.5550 0.1482 -0.8185
vn -0.3444 -0.1059 -0.9328
vn -0.1312 -0.3155 -0.9398
vn -0.7113 0.2236 -0.6663
vn -0.5777 0.1176 -0.8077
vn -0.3947 -0.0543 -0.9172
vn -0.1762 -0.2124 -0.9612
vn -0.8479 0.3273 -0.4170
vn -0.9224 0.3863 -0.0000
vn -0.4300 -0.0175 -0.9027
vn -0.2078 -0.1112 -0.9718
vn -0.8794 0.1756 -0.4425
vn -0.7202 0.1161 -0.6840
vn -0.5932 0.0658 -0.8023
vn -0.9763 0.2165 -0.0000
vn -0.8933 0.0474 -0.4470
vn -0.7255 0.0309 -0.6875
vn -0.2233 -0.0320 -0.9742
vn -0.6015 0.0183 -0.7987
vn -0.4481 -0.0040 -0.8940
vn -0.9983 0.0586 -0.0000
vn -0.8970 -0.0000 -0.4420
vn -0.7286 -0.0000 -0.6850
vn -0.2309 -0.0000 -0.9730
vn -0.6051 -0.0000 -0.7961
vn -0.4565 -0.0000 -0.8897
vn -1.0000 -0.0000 -0.0000
vn -0.4212 -0.6521 -0.6304
vn -0.5361 -0.6521 -0.5361
vn -0.6559 -0.3738 -0.6559
vn -0.5153 -0.3738 -0.7712
vn -0.6304 -0.6521 -0.4212
vn -0.7004 -0.6521 -0.2901
vn -0.8569 -0.3738 -0.3550
vn -0.7712 -0.3738 -0.5153
vn -0.7436 -0.6521 -0.1479
vn -0.7581 -0.6521 -0.0000
vn -0.9275 -0.3738 -0.0000
vn -0.9097 -0.3738 -0.1809
vn -0.1479 -0.6521 -0.7436
vn -0.1810 -0.3738 -0.9097
vn -0.2901 -0.6521 -0.7004
vn -0.3549 -0.3738 -0.8569
vn -0.1950 -0.0351 -0.9802
vn -0.5552 -0.0351 -0.8310
vn -0.3824 -0.0351 -0.9233
vn -0.8310 -0.0351 -0.5552
vn -0.7067 -0.0351 -0.7067
vn -0.9802 -0.0351 -0.1950
vn -0.9233 -0.0351 -0.3825
vn -0.9994 -0.0351 -0.0000
vn -0.9808 -0.0000 -0.1951
vn -0.9239 -0.0000 -0.3827
vn -0.3827 -0.0000 -0.9239
vn -0.1951 -0.0000 -0.9808
vn -0.7071 -0.0000 -0.7071
vn -0.5556 -0.0000 -0.8315
vn -0.8315 -0.0000 -0.5556
vn -0.4567 -0.8703 0.1845
vn -0.5585 -0.8088 0.1842
vn -0.8701 -0.4572 0.1842
vn -0.9185 -0.3497 0.1844
vn -0.9544 -0.2351 0.1840
vn -0.9757 -0.1188 0.1840
vn -0.6517 -0.7359 0.1838
vn -0.7355 -0.6520 0.1842
vn -0.0866 -0.9863 0.1404
vn -0.2355 -0.9543 0.1840
vn -0.8090 -0.5581 0.1843
vn -0.3483 -0.9191 0.1839
vn -0.9823 -0.0299 0.1849
vn -0.2007 -0.8147 0.5441
vn -0.2977 -0.7844 0.5442
vn -0.6280 -0.5563 0.5442
vn -0.6905 -0.4766 0.5442
vn -0.8329 -0.1011 0.5441
vn -0.8381 -0.0255 0.5449
vn -0.1007 -0.8331 0.5439
vn -0.4767 -0.6905 0.5440
vn -0.5563 -0.6281 0.5441
vn -0.7845 -0.2973 0.5442
vn -0.8146 -0.2009 0.5441
vn -0.3898 -0.7430 0.5441
vn -0.7428 -0.3899 0.5443
vn -0.4786 -0.0580 0.8761
vn -0.4797 -0.0148 0.8773
vn -0.2743 -0.3971 0.8758
vn -0.3198 -0.3607 0.8762
vn -0.3612 -0.3199 0.8759
vn -0.3969 -0.2735 0.8761
vn -0.0582 -0.4791 0.8758
vn -0.4273 -0.2242 0.8759
vn -0.1157 -0.4679 0.8762
vn -0.4505 -0.1712 0.8762
vn -0.1714 -0.4510 0.8759
vn -0.4685 -0.1155 0.8759
vn -0.2249 -0.4264 0.8761
vn -0.0961 -0.0852 0.9917
vn -0.1056 -0.0729 0.9917
vn -0.0156 -0.1276 0.9917
vn -0.0308 -0.1245 0.9917
vn -0.1139 -0.0597 0.9917
vn -0.1198 -0.0453 0.9918
vn -0.0456 -0.1200 0.9917
vn -0.1248 -0.0307 0.9917
vn -0.0595 -0.1135 0.9918
vn -0.1272 -0.0153 0.9918
vn -0.0731 -0.1058 0.9917
vn -0.1262 -0.0040 0.9920
vn -0.0850 -0.0959 0.9918
vn -0.9784 0.0867 0.1879
vn -0.0016 -0.0589 0.9983
vn -0.4914 0.0126 0.8709
vn -0.8421 0.0636 0.5355
vn -0.1370 -0.0331 0.9900
vn -0.0081 -0.2027 0.9792
vn -0.9340 0.2919 0.2060
vn -0.5032 0.0638 0.8618
vn -0.8104 0.2175 0.5440
vn -0.1553 -0.1110 0.9816
vn -0.8565 0.4599 0.2343
vn -0.4963 0.1008 0.8623
vn -0.7564 0.3504 0.5523
vn -0.0204 -0.3311 0.9434
vn -0.1740 -0.1832 0.9676
vn -0.2044 -0.2059 0.9570
vn -0.5020 0.1257 0.8557
vn -0.8038 0.5328 0.2647
vn -0.7186 0.4058 0.5647
vn -0.0367 -0.3881 0.9209
vn -0.7808 0.5480 0.2999
vn -0.5148 0.1450 0.8449
vn -0.6990 0.4134 0.5835
vn -0.0594 -0.4087 0.9107
vn -0.2431 -0.1929 0.9506
vn -0.7842 0.5204 0.3380
vn -0.5331 0.1561 0.8315
vn -0.6941 0.3843 0.6087
vn -0.0915 -0.3869 0.9176
vn -0.2905 -0.1626 0.9430
vn -0.8103 0.4468 0.3792
vn -0.5550 0.1482 0.8185
vn -0.7003 0.3185 0.6389
vn -0.1312 -0.3155 0.9398
vn -0.3444 -0.1059 0.9328
vn -0.5777 0.1176 0.8077
vn -0.7113 0.2236 0.6663
vn -0.1762 -0.2124 0.9612
vn -0.3947 -0.0543 0.9172
vn -0.8479 0.3273 0.4170
vn -0.2078 -0.1112 0.9718
vn -0.4300 -0.0175 0.9027
vn -0.7202 0.1161 0.6840
vn -0.8794 0.1756 0.4425
vn -0.5932 0.0658 0.8023
vn -0.7255 0.0309 0.6875
vn -0.8933 0.0474 0.4470
vn -0.2233 -0.0320 0.9742
vn -0.4481 -0.0040 0.8940
vn -0.6015 0.0183 0.7987
vn -0.7286 -0.0000 0.6850
vn -0.8970 -0.0000 0.4420
vn -0.2309 -0.0000 0.9730
vn -0.4565 -0.0000 0.8897
vn -0.6051 -0.0000 0.7961
vn -0.4212 -0.6521 0.6304
vn -0.5153 -0.3738 0.7712
vn -0.6559 -0.3738 0.6559
vn -0.5361 -0.6521 0.5361
vn -0.6304 -0.6521 0.4212
vn -0.7712 -0.3738 0.5153
vn -0.8569 -0.3738 0.3550
vn -0.7004 -0.6521 0.2901
vn -0.7436 -0.6521 0.1479
vn -0.9097 -0.3738 0.1809
vn -0.1810 -0.3738 0.9097
vn -0.1479 -0.6521 0.7436
vn -0.2901 -0.6521 0.7004
vn -0.3549 -0.3738 0.8569
vn -0.1950 -0.0351 0.9802
vn -0.3824 -0.0351 0.9233
vn -0.5552 -0.0351 0.8310
vn -0.7067 -0.0351 0.7067
vn -0.8310 -0.0351 0.5552
vn -0.9233 -0.0351 0.3825
vn -0.9802 -0.0351 0.1950
vn -0.9239 -0.0000 0.3827
vn -0.9808 -0.0000 0.1951
vn -0.1951 -0.0000 0.9808
vn -0.3827 -0.0000 0.9239
vn -0.5556 -0.0000 0.8315
vn -0.7071 -0.0000 0.7071
vn -0.8315 -0.0000 0.5556
vt 0.686987 0.107216
vt 0.682733 0.109765
vt 0.680717 0.106735
vt 0.685311 0.104040
vt 0.669607 0.124304
vt 0.667494 0.128687
vt 0.664164 0.127296
vt 0.666500 0.122499
vt 0.665833 0.133420
vt 0.664730 0.138248
vt 0.661197 0.137606
vt 0.662385 0.132352
vt 0.678816 0.112828
vt 0.675292 0.116303
vt 0.672534 0.113952
vt 0.676364 0.110059
vt 0.701162 0.102782
vt 0.696273 0.103716
vt 0.695418 0.100106
vt 0.700711 0.099178
vt 0.672209 0.120142
vt 0.669321 0.118070
vt 0.691510 0.105183
vt 0.690154 0.101803
vt 0.706152 0.102497
vt 0.706152 0.098788
vt 0.664087 0.143152
vt 0.660563 0.142830
vt 0.697139 0.107209
vt 0.692805 0.108587
vt 0.677954 0.118696
vt 0.675137 0.122233
vt 0.668304 0.138865
vt 0.667728 0.143447
vt 0.706152 0.106153
vt 0.701613 0.106399
vt 0.684786 0.112770
vt 0.681198 0.115530
vt 0.670794 0.130145
vt 0.669326 0.134421
vt 0.688658 0.110416
vt 0.672744 0.126063
vt 0.671784 0.139437
vt 0.671327 0.143648
vt 0.686719 0.115625
vt 0.683450 0.118164
vt 0.680519 0.121028
vt 0.677934 0.124277
vt 0.706152 0.109623
vt 0.702024 0.109842
vt 0.675776 0.127728
vt 0.697921 0.110609
vt 0.674024 0.131416
vt 0.694017 0.111825
vt 0.672660 0.135365
vt 0.690156 0.113562
vt 0.683055 0.123313
vt 0.680727 0.126227
vt 0.702434 0.113242
vt 0.698717 0.113933
vt 0.678765 0.129366
vt 0.706152 0.113034
vt 0.677173 0.132767
vt 0.695223 0.115018
vt 0.675981 0.136285
vt 0.691842 0.116532
vt 0.675216 0.139994
vt 0.688641 0.118434
vt 0.674892 0.143754
vt 0.685717 0.120709
vt 0.706152 0.143786
vt 0.661780 0.240427
vt 0.658335 0.240555
vt 0.706153 0.241505
vt 0.689337 0.241322
vt 0.668991 0.240520
vt 0.665369 0.240397
vt 0.672634 0.240694
vt 0.706153 0.247071
vt 0.690312 0.246955
vt 0.662694 0.245832
vt 0.658773 0.246175
vt 0.669701 0.245804
vt 0.666534 0.245600
vt 0.673518 0.246389
vt 0.664594 0.250572
vt 0.659618 0.251034
vt 0.672031 0.250717
vt 0.668788 0.250438
vt 0.691562 0.251650
vt 0.675681 0.251138
vt 0.706153 0.251775
vt 0.678596 0.255747
vt 0.675103 0.255379
vt 0.667161 0.255215
vt 0.660932 0.256278
vt 0.671764 0.255065
vt 0.693199 0.256353
vt 0.706153 0.256457
vt 0.670040 0.259761
vt 0.662320 0.260999
vt 0.678550 0.259955
vt 0.675114 0.259639
vt 0.694937 0.260922
vt 0.682011 0.260424
vt 0.706153 0.261163
vt 0.673039 0.264369
vt 0.663779 0.265795
vt 0.682144 0.264582
vt 0.678620 0.264289
vt 0.696851 0.265758
vt 0.685454 0.264945
vt 0.706153 0.265901
vt 0.675975 0.269203
vt 0.665230 0.270852
vt 0.685645 0.269397
vt 0.682058 0.269152
vt 0.698686 0.270440
vt 0.688876 0.269737
vt 0.706153 0.270626
vt 0.688648 0.274568
vt 0.685042 0.274391
vt 0.700440 0.276025
vt 0.691753 0.274813
vt 0.678556 0.274443
vt 0.706153 0.276168
vt 0.666450 0.275956
vt 0.700961 0.278841
vt 0.693040 0.278467
vt 0.686413 0.278166
vt 0.679794 0.278205
vt 0.706153 0.278997
vt 0.690003 0.278297
vt 0.667035 0.279262
vt 0.686892 0.282121
vt 0.680341 0.282111
vt 0.706153 0.282723
vt 0.701207 0.282651
vt 0.693437 0.282299
vt 0.690441 0.282205
vt 0.667454 0.283026
vt 0.686726 0.428780
vt 0.680317 0.428779
vt 0.706153 0.428784
vt 0.701102 0.428783
vt 0.693223 0.428785
vt 0.690233 0.428783
vt 0.667629 0.428787
vt 0.822365 0.299587
vt 0.824677 0.302396
vt 0.817715 0.307055
vt 0.816003 0.303859
vt 0.808922 0.306789
vt 0.809980 0.310270
vt 0.801761 0.311906
vt 0.801408 0.308294
vt 0.793751 0.308301
vt 0.793398 0.311904
vt 0.785189 0.310282
vt 0.786241 0.306805
vt 0.834951 0.280718
vt 0.838413 0.281764
vt 0.835226 0.289490
vt 0.832025 0.287789
vt 0.827779 0.294162
vt 0.830591 0.296457
vt 0.820522 0.608426
vt 0.816845 0.608392
vt 0.816771 0.599858
vt 0.820480 0.599840
vt 0.820411 0.591279
vt 0.816729 0.591334
vt 0.816693 0.582826
vt 0.820349 0.582801
vt 0.820303 0.574323
vt 0.816633 0.574336
vt 0.816630 0.565864
vt 0.820270 0.565854
vt 0.820243 0.557437
vt 0.816606 0.557408
vt 0.816609 0.548968
vt 0.820235 0.549024
vt 0.816787 0.540517
vt 0.820415 0.540733
vt 0.802968 0.292579
vt 0.808757 0.290400
vt 0.811617 0.288602
vt 0.813831 0.286763
vt 0.818454 0.280775
vt 0.820324 0.276296
vt 0.790663 0.292186
vt 0.645886 0.554356
vt 0.646219 0.545698
vt 0.644477 0.597869
vt 0.644727 0.589128
vt 0.645000 0.580407
vt 0.645275 0.571709
vt 0.645580 0.563027
vt 0.646598 0.537158
vt 0.644221 0.606621
vt 0.629681 0.107215
vt 0.631357 0.104040
vt 0.635951 0.106735
vt 0.633935 0.109764
vt 0.647061 0.124304
vt 0.650168 0.122498
vt 0.652505 0.127295
vt 0.649174 0.128687
vt 0.650836 0.133419
vt 0.654283 0.132352
vt 0.655472 0.137606
vt 0.651938 0.138247
vt 0.637852 0.112827
vt 0.640304 0.110058
vt 0.644134 0.113952
vt 0.641376 0.116303
vt 0.615506 0.102782
vt 0.615957 0.099178
vt 0.621249 0.100106
vt 0.620395 0.103716
vt 0.644459 0.120142
vt 0.647347 0.118069
vt 0.625158 0.105183
vt 0.626514 0.101803
vt 0.610516 0.102497
vt 0.610516 0.098788
vt 0.656105 0.142829
vt 0.652582 0.143151
vt 0.623863 0.108587
vt 0.619529 0.107209
vt 0.641532 0.122233
vt 0.638714 0.118696
vt 0.648941 0.143447
vt 0.648364 0.138864
vt 0.615055 0.106399
vt 0.610516 0.106153
vt 0.635470 0.115530
vt 0.631882 0.112770
vt 0.647342 0.134420
vt 0.645874 0.130144
vt 0.628010 0.110415
vt 0.643924 0.126062
vt 0.645341 0.143648
vt 0.644884 0.139436
vt 0.633219 0.118163
vt 0.629949 0.115625
vt 0.636149 0.121028
vt 0.638734 0.124277
vt 0.614644 0.109842
vt 0.610516 0.109623
vt 0.640893 0.127727
vt 0.618747 0.110608
vt 0.642644 0.131415
vt 0.622651 0.111825
vt 0.644008 0.135364
vt 0.626512 0.113562
vt 0.635941 0.126227
vt 0.633613 0.123312
vt 0.617952 0.113933
vt 0.614234 0.113242
vt 0.637904 0.129365
vt 0.610516 0.113034
vt 0.639495 0.132767
vt 0.621446 0.115018
vt 0.640688 0.136285
vt 0.624826 0.116532
vt 0.641452 0.139993
vt 0.628028 0.118434
vt 0.641777 0.143753
vt 0.630952 0.120709
vt 0.610516 0.143786
vt 0.658335 0.240554
vt 0.654890 0.240427
vt 0.627333 0.241322
vt 0.610517 0.241505
vt 0.651301 0.240397
vt 0.647679 0.240520
vt 0.644036 0.240694
vt 0.626358 0.246955
vt 0.610517 0.247071
vt 0.657898 0.246174
vt 0.653976 0.245832
vt 0.650136 0.245600
vt 0.646969 0.245804
vt 0.643152 0.246389
vt 0.657053 0.251033
vt 0.652076 0.250571
vt 0.647882 0.250438
vt 0.644639 0.250716
vt 0.640989 0.251137
vt 0.625108 0.251649
vt 0.610517 0.251775
vt 0.641567 0.255378
vt 0.638075 0.255747
vt 0.655738 0.256277
vt 0.649509 0.255215
vt 0.644907 0.255065
vt 0.623471 0.256353
vt 0.610517 0.256457
vt 0.654351 0.260998
vt 0.646631 0.259761
vt 0.641557 0.259639
vt 0.638121 0.259955
vt 0.634659 0.260423
vt 0.621733 0.260922
vt 0.610517 0.261163
vt 0.652891 0.265795
vt 0.643632 0.264369
vt 0.638050 0.264289
vt 0.634526 0.264582
vt 0.631217 0.264945
vt 0.619819 0.265758
vt 0.610517 0.265901
vt 0.651441 0.270852
vt 0.640695 0.269203
vt 0.634612 0.269152
vt 0.631025 0.269397
vt 0.627794 0.269737
vt 0.617985 0.270440
vt 0.610517 0.270626
vt 0.631628 0.274391
vt 0.628023 0.274568
vt 0.624917 0.274813
vt 0.616230 0.276025
vt 0.638115 0.274443
vt 0.610517 0.276168
vt 0.650221 0.275956
vt 0.623630 0.278467
vt 0.615709 0.278841
vt 0.636877 0.278205
vt 0.630258 0.278166
vt 0.610517 0.278997
vt 0.626667 0.278297
vt 0.649636 0.279262
vt 0.636330 0.282112
vt 0.629779 0.282121
vt 0.615463 0.282651
vt 0.610517 0.282723
vt 0.626230 0.282205
vt 0.623233 0.282299
vt 0.649217 0.283026
vt 0.636353 0.428779
vt 0.629944 0.428780
vt 0.615569 0.428783
vt 0.610517 0.428784
vt 0.626437 0.428782
vt 0.623448 0.428785
vt 0.649041 0.428787
vt 0.760174 0.280779
vt 0.763102 0.287860
vt 0.759906 0.289571
vt 0.756693 0.281836
vt 0.767371 0.294222
vt 0.772792 0.299639
vt 0.770496 0.302449
vt 0.764562 0.296533
vt 0.779161 0.303888
vt 0.777458 0.307083
vt 0.760152 0.258100
vt 0.758670 0.265606
vt 0.755063 0.265249
vt 0.756691 0.257054
vt 0.758673 0.273263
vt 0.755061 0.273616
vt 0.820542 0.744093
vt 0.820502 0.752688
vt 0.816792 0.752664
vt 0.816865 0.744131
vt 0.820430 0.761246
vt 0.820373 0.769721
vt 0.816717 0.769700
vt 0.816751 0.761191
vt 0.820329 0.778207
vt 0.820297 0.786670
vt 0.816658 0.786664
vt 0.816658 0.778190
vt 0.820275 0.795092
vt 0.820269 0.803506
vt 0.816641 0.803562
vt 0.816636 0.795121
vt 0.820471 0.811793
vt 0.816845 0.812018
vt 0.780203 0.285693
vt 0.776591 0.280671
vt 0.775207 0.277589
vt 0.774382 0.274832
vt 0.773852 0.267287
vt 0.774776 0.262523
vt 0.646226 0.806783
vt 0.645892 0.798124
vt 0.644731 0.763347
vt 0.644479 0.754602
vt 0.645281 0.780769
vt 0.645006 0.772068
vt 0.645585 0.789451
vt 0.646576 0.815324
vt 0.644221 0.745851
vt 0.725317 0.107215
vt 0.726993 0.104040
vt 0.731587 0.106734
vt 0.729571 0.109764
vt 0.742697 0.124304
vt 0.745804 0.122498
vt 0.748141 0.127295
vt 0.744810 0.128687
vt 0.746472 0.133419
vt 0.749920 0.132352
vt 0.751108 0.137606
vt 0.747575 0.138247
vt 0.733488 0.112827
vt 0.735940 0.110058
vt 0.739770 0.113952
vt 0.737012 0.116303
vt 0.711142 0.102782
vt 0.711594 0.099178
vt 0.716886 0.100106
vt 0.716031 0.103716
vt 0.740095 0.120142
vt 0.742983 0.118069
vt 0.720794 0.105183
vt 0.722151 0.101803
vt 0.751742 0.142829
vt 0.748218 0.143151
vt 0.719499 0.108587
vt 0.715165 0.107209
vt 0.737168 0.122233
vt 0.734351 0.118696
vt 0.744577 0.143447
vt 0.744001 0.138864
vt 0.710692 0.106399
vt 0.731106 0.115530
vt 0.727518 0.112770
vt 0.742978 0.134420
vt 0.741510 0.130144
vt 0.723647 0.110415
vt 0.739560 0.126062
vt 0.740978 0.143648
vt 0.740521 0.139436
vt 0.728855 0.118163
vt 0.725585 0.115625
vt 0.731785 0.121028
vt 0.734370 0.124277
vt 0.710280 0.109842
vt 0.736529 0.127727
vt 0.714383 0.110608
vt 0.738280 0.131415
vt 0.718288 0.111825
vt 0.739644 0.135364
vt 0.722149 0.113562
vt 0.731578 0.126227
vt 0.729250 0.123312
vt 0.713588 0.113933
vt 0.709870 0.113242
vt 0.733540 0.129365
vt 0.735132 0.132767
vt 0.717082 0.115018
vt 0.736324 0.136285
vt 0.720462 0.116532
vt 0.737089 0.139993
vt 0.723664 0.118434
vt 0.737413 0.143753
vt 0.726588 0.120709
vt 0.753972 0.240554
vt 0.750526 0.240427
vt 0.722969 0.241322
vt 0.746937 0.240397
vt 0.743315 0.240520
vt 0.739672 0.240694
vt 0.721995 0.246955
vt 0.753534 0.246174
vt 0.749613 0.245832
vt 0.745773 0.245600
vt 0.742606 0.245804
vt 0.738788 0.246389
vt 0.752689 0.251033
vt 0.747712 0.250571
vt 0.743518 0.250438
vt 0.740276 0.250716
vt 0.736626 0.251137
vt 0.720745 0.251649
vt 0.737204 0.255379
vt 0.733711 0.255747
vt 0.751374 0.256277
vt 0.745146 0.255215
vt 0.740543 0.255065
vt 0.719108 0.256353
vt 0.749987 0.260998
vt 0.742267 0.259761
vt 0.737193 0.259639
vt 0.733757 0.259955
vt 0.730296 0.260423
vt 0.717369 0.260922
vt 0.748528 0.265795
vt 0.739268 0.264369
vt 0.733687 0.264289
vt 0.730163 0.264582
vt 0.726853 0.264945
vt 0.715455 0.265758
vt 0.747077 0.270852
vt 0.736331 0.269203
vt 0.730249 0.269152
vt 0.726661 0.269397
vt 0.723431 0.269737
vt 0.713621 0.270440
vt 0.727265 0.274391
vt 0.723659 0.274568
vt 0.720554 0.274813
vt 0.711866 0.276025
vt 0.733751 0.274443
vt 0.745857 0.275956
vt 0.719267 0.278467
vt 0.711346 0.278841
vt 0.732513 0.278205
vt 0.725894 0.278166
vt 0.722304 0.278297
vt 0.745272 0.279262
vt 0.731966 0.282112
vt 0.725415 0.282121
vt 0.711100 0.282651
vt 0.721866 0.282205
vt 0.718869 0.282299
vt 0.744853 0.283026
vt 0.731989 0.428779
vt 0.725580 0.428780
vt 0.711205 0.428783
vt 0.722073 0.428783
vt 0.719084 0.428785
vt 0.744677 0.428787
vt 0.834926 0.258036
vt 0.831997 0.250954
vt 0.835192 0.249243
vt 0.838407 0.256978
vt 0.827726 0.244593
vt 0.822304 0.239177
vt 0.824599 0.236367
vt 0.830535 0.242281
vt 0.815934 0.234930
vt 0.808854 0.232015
vt 0.809905 0.228538
vt 0.817637 0.231735
vt 0.836432 0.273211
vt 0.840040 0.273568
vt 0.836428 0.265552
vt 0.840041 0.265199
vt 0.820312 0.617018
vt 0.816604 0.616921
vt 0.820072 0.625573
vt 0.819848 0.634044
vt 0.816193 0.633951
vt 0.816394 0.625444
vt 0.819637 0.642528
vt 0.819441 0.650989
vt 0.815799 0.650913
vt 0.815967 0.642439
vt 0.819258 0.659418
vt 0.819082 0.667876
vt 0.815432 0.667816
vt 0.815609 0.659372
vt 0.818957 0.676253
vt 0.815318 0.676258
vt 0.814896 0.253123
vt 0.818507 0.258145
vt 0.819891 0.261227
vt 0.820716 0.263985
vt 0.821248 0.271532
vt 0.804436 0.246633
vt 0.644952 0.667578
vt 0.644809 0.658916
vt 0.644369 0.624122
vt 0.644297 0.615375
vt 0.644557 0.641552
vt 0.644463 0.632848
vt 0.644682 0.650240
vt 0.645058 0.676233
vt 0.591351 0.107216
vt 0.587097 0.109765
vt 0.585081 0.106735
vt 0.589674 0.104040
vt 0.573971 0.124304
vt 0.571858 0.128687
vt 0.568527 0.127296
vt 0.570864 0.122499
vt 0.570196 0.133420
vt 0.569094 0.138248
vt 0.565560 0.137606
vt 0.566748 0.132352
vt 0.583180 0.112828
vt 0.579656 0.116303
vt 0.576898 0.113952
vt 0.580728 0.110059
vt 0.605526 0.102782
vt 0.600637 0.103716
vt 0.599782 0.100106
vt 0.605074 0.099178
vt 0.576573 0.120142
vt 0.573685 0.118070
vt 0.595874 0.105183
vt 0.594517 0.101803
vt 0.568450 0.143152
vt 0.564927 0.142830
vt 0.601503 0.107209
vt 0.597169 0.108587
vt 0.582318 0.118696
vt 0.579500 0.122233
vt 0.572668 0.138865
vt 0.572091 0.143447
vt 0.605976 0.106399
vt 0.589150 0.112770
vt 0.585562 0.115530
vt 0.575158 0.130145
vt 0.573690 0.134421
vt 0.593021 0.110416
vt 0.577108 0.126063
vt 0.576148 0.139437
vt 0.575691 0.143648
vt 0.591083 0.115625
vt 0.587813 0.118164
vt 0.584883 0.121028
vt 0.582298 0.124277
vt 0.606388 0.109842
vt 0.580139 0.127728
vt 0.602285 0.110609
vt 0.578388 0.131416
vt 0.598380 0.111826
vt 0.577024 0.135365
vt 0.594519 0.113562
vt 0.587418 0.123313
vt 0.585091 0.126227
vt 0.606798 0.113242
vt 0.603080 0.113933
vt 0.583128 0.129366
vt 0.581537 0.132767
vt 0.599586 0.115018
vt 0.580344 0.136285
vt 0.596206 0.116532
vt 0.579580 0.139994
vt 0.593004 0.118434
vt 0.579256 0.143754
vt 0.590080 0.120709
vt 0.566144 0.240427
vt 0.562699 0.240554
vt 0.593701 0.241322
vt 0.573355 0.240520
vt 0.569733 0.240397
vt 0.576998 0.240694
vt 0.594675 0.246955
vt 0.567058 0.245832
vt 0.563136 0.246175
vt 0.574065 0.245804
vt 0.570898 0.245600
vt 0.577882 0.246389
vt 0.568958 0.250571
vt 0.563981 0.251034
vt 0.576394 0.250717
vt 0.573152 0.250438
vt 0.595925 0.251650
vt 0.580045 0.251137
vt 0.582959 0.255747
vt 0.579467 0.255379
vt 0.571525 0.255215
vt 0.565296 0.256278
vt 0.576128 0.255065
vt 0.597563 0.256353
vt 0.574403 0.259761
vt 0.566683 0.260999
vt 0.582913 0.259955
vt 0.579477 0.259639
vt 0.599301 0.260922
vt 0.586375 0.260424
vt 0.577402 0.264369
vt 0.568143 0.265795
vt 0.586508 0.264582
vt 0.582984 0.264289
vt 0.601215 0.265758
vt 0.589817 0.264945
vt 0.580339 0.269203
vt 0.569593 0.270852
vt 0.590009 0.269397
vt 0.586422 0.269152
vt 0.603049 0.270440
vt 0.593240 0.269737
vt 0.593011 0.274568
vt 0.589406 0.274391
vt 0.604804 0.276025
vt 0.596117 0.274813
vt 0.582919 0.274443
vt 0.570814 0.275956
vt 0.605324 0.278841
vt 0.597404 0.278466
vt 0.590776 0.278166
vt 0.584158 0.278205
vt 0.594367 0.278297
vt 0.571399 0.279262
vt 0.591256 0.282121
vt 0.584705 0.282111
vt 0.605570 0.282651
vt 0.597801 0.282299
vt 0.594804 0.282205
vt 0.571818 0.283026
vt 0.591090 0.428780
vt 0.584681 0.428779
vt 0.605465 0.428783
vt 0.597586 0.428785
vt 0.594597 0.428783
vt 0.571992 0.428787
vt 0.772737 0.239236
vt 0.770425 0.236427
vt 0.777386 0.231770
vt 0.779098 0.234964
vt 0.786177 0.232034
vt 0.785118 0.228554
vt 0.793335 0.226918
vt 0.793689 0.230529
vt 0.801345 0.230521
vt 0.801697 0.226918
vt 0.759877 0.249330
vt 0.763078 0.251031
vt 0.767324 0.244660
vt 0.764512 0.242365
vt 0.816623 0.735600
vt 0.820332 0.735509
vt 0.820094 0.726948
vt 0.816413 0.727076
vt 0.816209 0.718569
vt 0.819864 0.718472
vt 0.819652 0.709995
vt 0.815982 0.710080
vt 0.815813 0.701606
vt 0.819454 0.701525
vt 0.819268 0.693101
vt 0.815620 0.693145
vt 0.815441 0.684699
vt 0.819097 0.684642
vt 0.792131 0.246243
vt 0.786343 0.248422
vt 0.783484 0.250220
vt 0.781270 0.252059
vt 0.776647 0.258046
vt 0.644803 0.693552
vt 0.644945 0.684887
vt 0.644296 0.737095
vt 0.644365 0.728348
vt 0.644458 0.719622
vt 0.644552 0.710917
vt 0.644678 0.702229
s 1
usemtl tool_jaw_non_transparent
f 4/1/1 5/2/2 152/3/3 154/4/4
f 9/5/5 10/6/6 142/7/7 144/8/8
f 11/9/9 12/10/10 138/11/11 140/12/12
f 6/13/13 7/14/14 148/15/15 150/16/16
f 1/17/17 2/18/18 158/19/19 160/20/20
f 8/21/21 9/5/5 144/8/8 146/22/22
f 3/23/23 4/1/1 154/4/4 156/24/24
f 10/6/6 11/9/9 140/12/12 142/7/7
f 5/2/2 6/13/13 150/16/16 152/3/3
f 434/25/25 1/17/17 160/20/20 618/26/26
f 12/10/10 13/27/27 136/28/28 138/11/11
f 7/14/14 8/21/21 146/22/22 148/15/15
f 2/18/18 3/23/23 156/24/24 158/19/19
f 3/23/23 2/18/18 15/29/29 16/30/30
f 8/21/21 7/14/14 20/31/31 21/32/32
f 13/27/27 12/10/10 25/33/33 26/34/34
f 1/17/17 434/25/25 435/35/35 14/36/36
f 6/13/13 5/2/2 18/37/37 19/38/38
f 11/9/9 10/6/6 23/39/39 24/40/40
f 4/1/1 3/23/23 16/30/30 17/41/41
f 9/5/5 8/21/21 21/32/32 22/42/42
f 2/18/18 1/17/17 14/36/36 15/29/29
f 7/14/14 6/13/13 19/38/38 20/31/31
f 12/10/10 11/9/9 24/40/40 25/33/33
f 5/2/2 4/1/1 17/41/41 18/37/37
f 10/6/6 9/5/5 22/42/42 23/39/39
f 26/34/34 25/33/33 38/43/43 39/44/44
f 19/38/38 18/37/37 31/45/45 32/46/46
f 20/31/31 19/38/38 32/46/46 33/47/47
f 21/32/32 20/31/31 33/47/47 34/48/48
f 14/36/36 435/35/35 436/49/49 27/50/50
f 22/42/42 21/32/32 34/48/48 35/51/51
f 15/29/29 14/36/36 27/50/50 28/52/52
f 23/39/39 22/42/42 35/51/51 36/53/53
f 16/30/30 15/29/29 28/52/52 29/54/54
f 24/40/40 23/39/39 36/53/53 37/55/55
f 17/41/41 16/30/30 29/54/54 30/56/56
f 25/33/33 24/40/40 37/55/55 38/43/43
f 18/37/37 17/41/41 30/56/56 31/45/45
f 34/48/48 33/47/47 46/57/57 47/58/58
f 27/50/50 40/59/59 41/60/60 28/52/52
f 35/51/51 34/48/48 47/58/58 48/61/61
f 438/62/62 40/59/59 27/50/50 436/49/49
f 36/53/53 35/51/51 48/61/61 49/63/63
f 29/54/54 28/52/52 41/60/60 42/64/64
f 37/55/55 36/53/53 49/63/63 50/65/65
f 30/56/56 29/54/54 42/64/64 43/66/66
f 38/43/43 37/55/55 50/65/65 51/67/67
f 31/45/45 30/56/56 43/66/66 44/68/68
f 39/44/44 38/43/43 51/67/67 52/69/69
f 32/46/46 31/45/45 44/68/68 45/70/70
f 33/47/47 32/46/46 45/70/70 46/57/57
f 42/64/64 41/60/60 437/71/71
f 50/65/65 49/63/63 437/71/71
f 43/66/66 42/64/64 437/71/71
f 51/67/67 50/65/65 437/71/71
f 44/68/68 43/66/66 437/71/71
f 52/69/69 51/67/67 437/71/71
f 45/70/70 44/68/68 437/71/71
f 46/57/57 45/70/70 437/71/71
f 47/58/58 46/57/57 437/71/71
f 48/61/61 47/58/58 437/71/71
f 40/59/59 438/62/62 437/71/71
f 41/60/60 40/59/59 437/71/71
f 49/63/63 48/61/61 437/71/71
f 136/28/28 13/27/27 57/72/72 207/73/73
f 52/69/69 437/71/71 439/74/74 58/75/75
f 26/34/34 39/44/44 54/76/76 55/77/77
f 39/44/44 52/69/69 53/78/78 54/76/76
f 13/27/27 26/34/34 55/77/77 57/72/72
f 52/69/69 58/75/75 53/78/78
f 58/75/75 439/74/74 440/79/79 62/80/80
f 207/73/73 57/72/72 61/81/81 212/82/82
f 55/77/77 54/76/76 59/83/83 60/84/84
f 53/78/78 58/75/75 62/80/80 56/85/85
f 57/72/72 55/77/77 60/84/84 61/81/81
f 54/76/76 53/78/78 56/85/85 59/83/83
f 212/82/82 61/81/81 66/86/86 218/87/87
f 60/84/84 59/83/83 64/88/88 65/89/89
f 56/85/85 62/80/80 67/90/90 63/91/91
f 59/83/83 56/85/85 63/91/91 64/88/88
f 62/80/80 440/79/79 441/92/92 67/90/90
f 61/81/81 60/84/84 65/89/89 66/86/86
f 64/88/88 63/91/91 68/93/93 69/94/94
f 218/87/87 66/86/86 71/95/95 224/96/96
f 65/89/89 64/88/88 69/94/94 70/97/97
f 63/91/91 67/90/90 72/98/98 68/93/93
f 66/86/86 65/89/89 70/97/97 71/95/95
f 67/90/90 441/92/92 442/99/99 72/98/98
f 224/96/96 71/95/95 76/100/100 230/101/101
f 70/97/97 69/94/94 74/102/102 75/103/103
f 68/93/93 72/98/98 77/104/104 73/105/105
f 71/95/95 70/97/97 75/103/103 76/100/100
f 72/98/98 442/99/99 443/106/106 77/104/104
f 69/94/94 68/93/93 73/105/105 74/102/102
f 230/101/101 76/100/100 81/107/107 236/108/108
f 75/103/103 74/102/102 79/109/109 80/110/110
f 73/105/105 77/104/104 82/111/111 78/112/112
f 76/100/100 75/103/103 80/110/110 81/107/107
f 77/104/104 443/106/106 444/113/113 82/111/111
f 74/102/102 73/105/105 78/112/112 79/109/109
f 236/108/108 81/107/107 86/114/114 242/115/115
f 80/110/110 79/109/109 84/116/116 85/117/117
f 78/112/112 82/111/111 87/118/118 83/119/119
f 81/107/107 80/110/110 85/117/117 86/114/114
f 82/111/111 444/113/113 445/120/120 87/118/118
f 79/109/109 78/112/112 83/119/119 84/116/116
f 85/117/117 84/116/116 89/121/121 90/122/122
f 83/119/119 87/118/118 92/123/123 88/124/124
f 86/114/114 85/117/117 90/122/122 91/125/125
f 87/118/118 445/120/120 446/126/126 92/123/123
f 84/116/116 83/119/119 88/124/124 89/121/121
f 242/115/115 86/114/114 91/125/125 248/127/127
f 88/124/124 92/123/123 97/128/128 93/129/129
f 91/125/125 90/122/122 95/130/130 96/131/131
f 92/123/123 446/126/126 447/132/132 97/128/128
f 89/121/121 88/124/124 93/129/129 94/133/133
f 248/127/127 91/125/125 96/131/131 254/134/134
f 90/122/122 89/121/121 94/133/133 95/130/130
f 96/131/131 95/130/130 100/135/135 101/136/136
f 97/128/128 447/132/132 448/137/137 102/138/138
f 94/133/133 93/129/129 98/139/139 99/140/140
f 254/134/134 96/131/131 101/136/136 260/141/141
f 95/130/130 94/133/133 99/140/140 100/135/135
f 93/129/129 97/128/128 102/138/138 98/139/139
f 101/136/136 100/135/135 105/142/142 106/143/143
f 102/138/138 448/137/137 449/144/71 107/145/144
f 99/140/140 98/139/139 103/146/145 104/147/146
f 260/141/141 101/136/136 106/143/143 266/148/147
f 100/135/135 99/140/140 104/147/146 105/142/142
f 98/139/139 102/138/138 107/145/144 103/146/145
f 112/149/148 119/150/149 118/151/150 111/152/151
f 110/153/152 117/154/153 116/155/154 109/156/155
f 108/157/156 115/158/157 275/159/158 267/160/159
f 450/161/160 451/162/161 121/163/162 114/164/163
f 113/165/164 120/166/165 119/150/149 112/149/148
f 111/152/151 118/151/150 117/154/153 110/153/152
f 109/156/155 116/155/154 115/158/157 108/157/156
f 114/164/163 121/163/162 120/166/165 113/165/164
f 451/167/161 452/168/166 128/169/167 121/170/162
f 120/171/165 127/172/168 126/173/169 119/174/149
f 118/175/150 125/176/170 124/177/171 117/178/153
f 116/179/154 123/180/172 122/181/173 115/182/157
f 121/170/162 128/169/167 127/172/168 120/171/165
f 119/174/149 126/173/169 125/176/170 118/175/150
f 117/178/153 124/177/171 123/180/172 116/179/154
f 115/182/157 122/181/173 283/183/174 275/184/158
f 109/156/26 106/185/26 110/153/26
f 106/185/26 105/186/26 111/152/26 110/153/26
f 105/186/26 104/187/26 112/149/26 111/152/26
f 104/187/26 103/188/26 113/165/26 112/149/26
f 103/188/26 107/189/26 114/164/26 113/165/26
f 107/189/26 449/190/26 450/161/26 114/164/26
f 267/160/26 266/191/26 108/157/26
f 108/157/26 266/191/26 106/185/26 109/156/26
f 123/180/172 130/192/175 129/193/176 122/181/173
f 128/169/167 135/194/177 134/195/178 127/172/168
f 126/173/169 133/196/179 132/197/180 125/176/170
f 124/177/171 131/198/181 130/192/175 123/180/172
f 122/181/173 129/193/176 291/199/147 283/183/174
f 452/168/166 453/200/71 135/194/177 128/169/167
f 127/172/168 134/195/178 133/196/179 126/173/169
f 125/176/170 132/197/180 131/198/181 124/177/171
f 143/201/182 154/202/4 152/203/3 145/204/183
f 153/205/184 144/206/8 142/207/7 155/208/185
f 157/209/186 140/210/12 138/211/11 159/212/187
f 147/213/188 150/214/16 148/215/15 149/216/189
f 137/217/190 160/218/20 158/219/19 139/220/191
f 151/221/192 146/222/22 144/206/8 153/205/184
f 141/223/193 156/224/24 154/202/4 143/201/182
f 155/208/185 142/207/7 140/210/12 157/209/186
f 145/204/183 152/203/3 150/214/16 147/213/188
f 617/225/194 618/226/26 160/218/20 137/217/190
f 159/212/187 138/211/11 136/227/28 161/228/195
f 149/216/189 148/215/15 146/222/22 151/221/192
f 139/220/191 158/219/19 156/224/24 141/223/193
f 141/223/193 164/229/196 163/230/197 139/220/191
f 151/221/192 169/231/198 168/232/199 149/216/189
f 161/228/195 174/233/200 173/234/201 159/212/187
f 137/217/190 162/235/202 619/236/203 617/225/194
f 147/213/188 167/237/204 166/238/205 145/204/183
f 157/209/186 172/239/206 171/240/207 155/208/185
f 143/201/182 165/241/208 164/229/196 141/223/193
f 153/205/184 170/242/209 169/231/198 151/221/192
f 139/220/191 163/230/197 162/235/202 137/217/190
f 149/216/189 168/232/199 167/237/204 147/213/188
f 159/212/187 173/234/201 172/239/206 157/209/186
f 145/204/183 166/238/205 165/241/208 143/201/182
f 155/208/185 171/240/207 170/242/209 153/205/184
f 174/233/200 187/243/210 186/244/211 173/234/201
f 167/237/204 180/245/212 179/246/213 166/238/205
f 168/232/199 181/247/214 180/245/212 167/237/204
f 169/231/198 182/248/215 181/247/214 168/232/199
f 162/235/202 175/249/216 620/250/217 619/236/203
f 170/242/209 183/251/218 182/248/215 169/231/198
f 163/230/197 176/252/219 175/249/216 162/235/202
f 171/240/207 184/253/220 183/251/218 170/242/209
f 164/229/196 177/254/221 176/252/219 163/230/197
f 172/239/206 185/255/222 184/253/220 171/240/207
f 165/241/208 178/256/223 177/254/221 164/229/196
f 173/234/201 186/244/211 185/255/222 172/239/206
f 166/238/205 179/246/213 178/256/223 165/241/208
f 182/248/215 195/257/224 194/258/225 181/247/214
f 175/249/216 176/252/219 189/259/226 188/260/227
f 183/251/218 196/261/228 195/257/224 182/248/215
f 622/262/229 620/250/217 175/249/216 188/260/227
f 184/253/220 197/263/230 196/261/228 183/251/218
f 177/254/221 190/264/231 189/259/226 176/252/219
f 185/255/222 198/265/232 197/263/230 184/253/220
f 178/256/223 191/266/233 190/264/231 177/254/221
f 186/244/211 199/267/234 198/265/232 185/255/222
f 179/246/213 192/268/235 191/266/233 178/256/223
f 187/243/210 200/269/236 199/267/234 186/244/211
f 180/245/212 193/270/237 192/268/235 179/246/213
f 181/247/214 194/258/225 193/270/237 180/245/212
f 190/264/231 621/271/238 189/259/226
f 198/265/232 621/271/238 197/263/230
f 191/266/233 621/271/238 190/264/231
f 199/267/234 621/271/238 198/265/232
f 192/268/235 621/271/238 191/266/233
f 200/269/236 621/271/238 199/267/234
f 193/270/237 621/271/238 192/268/235
f 194/258/225 621/271/238 193/270/237
f 195/257/224 621/271/238 194/258/225
f 196/261/228 621/271/238 195/257/224
f 188/260/227 621/271/238 622/262/229
f 189/259/226 621/271/238 188/260/227
f 197/263/230 621/271/238 196/261/228
f 136/227/28 207/272/73 205/273/239 161/228/195
f 200/269/236 206/274/240 623/275/241 621/271/238
f 174/233/200 203/276/242 202/277/243 187/243/210
f 187/243/210 202/277/243 201/278/244 200/269/236
f 161/228/195 205/273/239 203/276/242 174/233/200
f 200/269/236 201/278/244 206/274/240
f 206/274/240 211/279/245 624/280/246 623/275/241
f 207/272/73 212/281/82 210/282/247 205/273/239
f 203/276/242 209/283/248 208/284/249 202/277/243
f 201/278/244 204/285/250 211/279/245 206/274/240
f 205/273/239 210/282/247 209/283/248 203/276/242
f 202/277/243 208/284/249 204/285/250 201/278/244
f 212/281/82 218/286/87 216/287/251 210/282/247
f 209/283/248 215/288/252 214/289/253 208/284/249
f 204/285/250 213/290/254 217/291/255 211/279/245
f 208/284/249 214/289/253 213/290/254 204/285/250
f 211/279/245 217/291/255 625/292/256 624/280/246
f 210/282/247 216/287/251 215/288/252 209/283/248
f 214/289/253 220/293/257 219/294/258 213/290/254
f 218/286/87 224/295/96 222/296/259 216/287/251
f 215/288/252 221/297/260 220/293/257 214/289/253
f 213/290/254 219/294/258 223/298/261 217/291/255
f 216/287/251 222/296/259 221/297/260 215/288/252
f 217/291/255 223/298/261 626/299/262 625/292/256
f 224/295/96 230/300/101 228/301/263 222/296/259
f 221/297/260 227/302/264 226/303/265 220/293/257
f 219/294/258 225/304/266 229/305/267 223/298/261
f 222/296/259 228/301/263 227/302/264 221/297/260
f 223/298/261 229/305/267 627/306/268 626/299/262
f 220/293/257 226/303/265 225/304/266 219/294/258
f 230/300/101 236/307/108 234/308/269 228/301/263
f 227/302/264 233/309/270 232/310/271 226/303/265
f 225/304/266 231/311/272 235/312/273 229/305/267
f 228/301/263 234/308/269 233/309/270 227/302/264
f 229/305/267 235/312/273 628/313/274 627/306/268
f 226/303/265 232/310/271 231/311/272 225/304/266
f 236/307/108 242/314/115 240/315/275 234/308/269
f 233/309/270 239/316/276 238/317/277 232/310/271
f 231/311/272 237/318/278 241/319/279 235/312/273
f 234/308/269 240/315/275 239/316/276 233/309/270
f 235/312/273 241/319/279 629/320/280 628/313/274
f 232/310/271 238/317/277 237/318/278 231/311/272
f 239/316/276 245/321/281 244/322/282 238/317/277
f 237/318/278 243/323/283 247/324/284 241/319/279
f 240/315/275 246/325/285 245/321/281 239/316/276
f 241/319/279 247/324/284 630/326/286 629/320/280
f 238/317/277 244/322/282 243/323/283 237/318/278
f 242/314/115 248/327/127 246/325/285 240/315/275
f 243/323/283 249/328/287 253/329/288 247/324/284
f 246/325/285 252/330/289 251/331/290 245/321/281
f 247/324/284 253/329/288 631/332/291 630/326/286
f 244/322/282 250/333/292 249/328/287 243/323/283
f 248/327/127 254/334/134 252/330/289 246/325/285
f 245/321/281 251/331/290 250/333/292 244/322/282
f 252/330/289 258/335/293 257/336/294 251/331/290
f 253/329/288 259/337/295 632/338/296 631/332/291
f 250/333/292 256/339/297 255/340/298 249/328/287
f 254/334/134 260/341/141 258/335/293 252/330/289
f 251/331/290 257/336/294 256/339/297 250/333/292
f 249/328/287 255/340/298 259/337/295 253/329/288
f 258/335/293 264/342/299 263/343/300 257/336/294
f 259/337/295 265/344/301 633/345/238 632/338/296
f 256/339/297 262/346/302 261/347/303 255/340/298
f 260/341/141 266/348/147 264/342/299 258/335/293
f 257/336/294 263/343/300 262/346/302 256/339/297
f 255/340/298 261/347/303 265/344/301 259/337/295
f 272/349/304 271/350/305 279/351/306 280/352/307
f 270/353/308 269/354/309 277/355/310 278/356/311
f 268/357/312 267/160/159 275/159/158 276/358/313
f 634/359/314 274/360/315 282/361/316 635/362/317
f 273/363/318 272/349/304 280/352/307 281/364/319
f 271/350/305 270/353/308 278/356/311 279/351/306
f 269/354/309 268/357/312 276/358/313 277/355/310
f 274/360/315 273/363/318 281/364/319 282/361/316
f 635/365/317 282/366/316 290/367/320 636/368/321
f 281/369/319 280/370/307 288/371/322 289/372/323
f 279/373/306 278/374/311 286/375/324 287/376/325
f 277/377/310 276/378/313 284/379/326 285/380/327
f 282/366/316 281/369/319 289/372/323 290/367/320
f 280/370/307 279/373/306 287/376/325 288/371/322
f 278/374/311 277/377/310 285/380/327 286/375/324
f 276/378/313 275/381/158 283/382/174 284/379/326
f 269/354/26 270/353/26 264/383/26
f 264/383/26 270/353/26 271/350/26 263/384/26
f 263/384/26 271/350/26 272/349/26 262/385/26
f 262/385/26 272/349/26 273/363/26 261/386/26
f 261/386/26 273/363/26 274/360/26 265/387/26
f 265/387/26 274/360/26 634/359/26 633/388/26
f 267/160/26 268/357/26 266/191/26
f 268/357/26 269/354/26 264/383/26 266/191/26
f 285/380/327 284/379/326 292/389/328 293/390/329
f 290/367/320 289/372/323 297/391/330 298/392/331
f 288/371/322 287/376/325 295/393/332 296/394/333
f 286/375/324 285/380/327 293/390/329 294/395/334
f 284/379/326 283/382/174 291/396/147 292/389/328
f 636/368/321 290/367/320 298/392/331 637/397/238
f 289/372/323 288/371/322 296/394/333 297/391/330
f 287/376/325 286/375/324 294/395/334 295/393/332
f 302/398/335 472/399/336 470/400/337 303/401/338
f 307/402/339 462/403/340 460/404/341 308/405/342
f 309/406/343 458/407/344 456/408/345 310/409/346
f 304/410/347 468/411/348 466/412/349 305/413/350
f 299/414/351 478/415/352 476/416/353 300/417/354
f 306/418/355 464/419/356 462/403/340 307/402/339
f 301/420/357 474/421/358 472/399/336 302/398/335
f 308/405/342 460/404/341 458/407/344 309/406/343
f 303/401/338 470/400/337 468/411/348 304/410/347
f 434/25/25 618/26/26 478/415/352 299/414/351
f 310/409/346 456/408/345 454/422/359 311/423/360
f 305/413/350 466/412/349 464/419/356 306/418/355
f 300/417/354 476/416/353 474/421/358 301/420/357
f 301/420/357 314/424/361 313/425/362 300/417/354
f 306/418/355 319/426/363 318/427/364 305/413/350
f 311/423/360 324/428/365 323/429/366 310/409/346
f 299/414/351 312/430/367 435/35/35 434/25/25
f 304/410/347 317/431/368 316/432/369 303/401/338
f 309/406/343 322/433/370 321/434/371 308/405/342
f 302/398/335 315/435/372 314/424/361 301/420/357
f 307/402/339 320/436/373 319/426/363 306/418/355
f 300/417/354 313/425/362 312/430/367 299/414/351
f 305/413/350 318/427/364 317/431/368 304/410/347
f 310/409/346 323/429/366 322/433/370 309/406/343
f 303/401/338 316/432/369 315/435/372 302/398/335
f 308/405/342 321/434/371 320/436/373 307/402/339
f 324/428/365 337/437/374 336/438/375 323/429/366
f 317/431/368 330/439/376 329/440/377 316/432/369
f 318/427/364 331/441/378 330/439/376 317/431/368
f 319/426/363 332/442/379 331/441/378 318/427/364
f 312/430/367 325/443/380 436/49/49 435/35/35
f 320/436/373 333/444/381 332/442/379 319/426/363
f 313/425/362 326/445/382 325/443/380 312/430/367
f 321/434/371 334/446/383 333/444/381 320/436/373
f 314/424/361 327/447/384 326/445/382 313/425/362
f 322/433/370 335/448/385 334/446/383 321/434/371
f 315/435/372 328/449/386 327/447/384 314/424/361
f 323/429/366 336/438/375 335/448/385 322/433/370
f 316/432/369 329/440/377 328/449/386 315/435/372
f 332/442/379 345/450/387 344/451/388 331/441/378
f 325/443/380 326/445/382 339/452/389 338/453/390
f 333/444/381 346/454/391 345/450/387 332/442/379
f 438/62/62 436/49/49 325/443/380 338/453/390
f 334/446/383 347/455/392 346/454/391 333/444/381
f 327/447/384 340/456/393 339/452/389 326/445/382
f 335/448/385 348/457/394 347/455/392 334/446/383
f 328/449/386 341/458/395 340/456/393 327/447/384
f 336/438/375 349/459/396 348/457/394 335/448/385
f 329/440/377 342/460/397 341/458/395 328/449/386
f 337/437/374 350/461/398 349/459/396 336/438/375
f 330/439/376 343/462/399 342/460/397 329/440/377
f 331/441/378 344/451/388 343/462/399 330/439/376
f 340/456/393 437/71/71 339/452/389
f 348/457/394 437/71/71 347/455/392
f 341/458/395 437/71/71 340/456/393
f 349/459/396 437/71/71 348/457/394
f 342/460/397 437/71/71 341/458/395
f 350/461/398 437/71/71 349/459/396
f 343/462/399 437/71/71 342/460/397
f 344/451/388 437/71/71 343/462/399
f 345/450/387 437/71/71 344/451/388
f 346/454/391 437/71/71 345/450/387
f 338/453/390 437/71/71 438/62/62
f 339/452/389 437/71/71 338/453/390
f 347/455/392 437/71/71 346/454/391
f 454/422/359 525/463/400 355/464/401 311/423/360
f 350/461/398 356/465/402 439/74/74 437/71/71
f 324/428/365 353/466/403 352/467/404 337/437/374
f 337/437/374 352/467/404 351/468/405 350/461/398
f 311/423/360 355/464/401 353/466/403 324/428/365
f 350/461/398 351/468/405 356/465/402
f 356/465/402 360/469/406 440/79/79 439/74/74
f 525/463/400 530/470/407 359/471/408 355/464/401
f 353/466/403 358/472/409 357/473/410 352/467/404
f 351/468/405 354/474/411 360/469/406 356/465/402
f 355/464/401 359/471/408 358/472/409 353/466/403
f 352/467/404 357/473/410 354/474/411 351/468/405
f 530/470/407 536/475/412 364/476/413 359/471/408
f 358/472/409 363/477/414 362/478/415 357/473/410
f 354/474/411 361/479/416 365/480/417 360/469/406
f 357/473/410 362/478/415 361/479/416 354/474/411
f 360/469/406 365/480/417 441/92/92 440/79/79
f 359/471/408 364/476/413 363/477/414 358/472/409
f 362/478/415 367/481/418 366/482/419 361/479/416
f 536/475/412 542/483/420 369/484/421 364/476/413
f 363/477/414 368/485/422 367/481/418 362/478/415
f 361/479/416 366/482/419 370/486/423 365/480/417
f 364/476/413 369/484/421 368/485/422 363/477/414
f 365/480/417 370/486/423 442/99/99 441/92/92
f 542/483/420 548/487/424 374/488/425 369/484/421
f 368/485/422 373/489/426 372/490/427 367/481/418
f 366/482/419 371/491/428 375/492/429 370/486/423
f 369/484/421 374/488/425 373/489/426 368/485/422
f 370/486/423 375/492/429 443/106/106 442/99/99
f 367/481/418 372/490/427 371/491/428 366/482/419
f 548/487/424 554/493/430 379/494/431 374/488/425
f 373/489/426 378/495/432 377/496/433 372/490/427
f 371/491/428 376/497/434 380/498/435 375/492/429
f 374/488/425 379/494/431 378/495/432 373/489/426
f 375/492/429 380/498/435 444/113/113 443/106/106
f 372/490/427 377/496/433 376/497/434 371/491/428
f 554/493/430 560/499/436 384/500/437 379/494/431
f 378/495/432 383/501/438 382/502/439 377/496/433
f 376/497/434 381/503/440 385/504/441 380/498/435
f 379/494/431 384/500/437 383/501/438 378/495/432
f 380/498/435 385/504/441 445/120/120 444/113/113
f 377/496/433 382/502/439 381/503/440 376/497/434
f 383/501/438 388/505/442 387/506/443 382/502/439
f 381/503/440 386/507/444 390/508/445 385/504/441
f 384/500/437 389/509/446 388/505/442 383/501/438
f 385/504/441 390/508/445 446/126/126 445/120/120
f 382/502/439 387/506/443 386/507/444 381/503/440
f 560/499/436 566/510/447 389/509/446 384/500/437
f 386/507/444 391/511/448 395/512/449 390/508/445
f 389/509/446 394/513/450 393/514/451 388/505/442
f 390/508/445 395/512/449 447/132/132 446/126/126
f 387/506/443 392/515/452 391/511/448 386/507/444
f 566/510/447 572/516/453 394/513/450 389/509/446
f 388/505/442 393/514/451 392/515/452 387/506/443
f 394/513/450 399/517/454 398/518/455 393/514/451
f 395/512/449 400/519/456 448/137/137 447/132/132
f 392/515/452 397/520/457 396/521/458 391/511/448
f 572/516/453 578/522/459 399/517/454 394/513/450
f 393/514/451 398/518/455 397/520/457 392/515/452
f 391/511/448 396/521/458 400/519/456 395/512/449
f 399/517/454 404/523/460 403/524/461 398/518/455
f 400/519/456 405/525/462 449/144/71 448/137/137
f 397/520/457 402/526/463 401/527/464 396/521/458
f 578/522/459 584/528/465 404/523/460 399/517/454
f 398/518/455 403/524/461 402/526/463 397/520/457
f 396/521/458 401/527/464 405/525/462 400/519/456
f 410/529/466 409/530/467 416/531/468 417/532/469
f 408/533/470 407/534/471 414/535/472 415/536/473
f 406/537/474 585/538/475 593/539/476 413/540/477
f 450/161/160 412/541/478 419/542/479 451/162/161
f 411/543/480 410/529/466 417/532/469 418/544/481
f 409/530/467 408/533/470 415/536/473 416/531/468
f 407/534/471 406/537/474 413/540/477 414/535/472
f 412/541/478 411/543/480 418/544/481 419/542/479
f 451/167/161 419/545/479 426/546/482 452/168/166
f 418/547/481 417/548/469 424/549/483 425/550/484
f 416/551/468 415/552/473 422/553/485 423/554/486
f 414/555/472 413/556/477 420/557/487 421/558/488
f 419/545/479 418/547/481 425/550/484 426/546/482
f 417/548/469 416/551/468 423/554/486 424/549/483
f 415/552/473 414/555/472 421/558/488 422/553/485
f 413/556/477 593/559/476 601/560/489 420/557/487
f 407/534/26 408/533/26 404/561/26
f 404/561/26 408/533/26 409/530/26 403/562/26
f 403/562/26 409/530/26 410/529/26 402/563/26
f 402/563/26 410/529/26 411/543/26 401/564/26
f 401/564/26 411/543/26 412/541/26 405/565/26
f 405/565/26 412/541/26 450/161/26 449/190/26
f 585/538/26 406/537/26 584/566/26
f 406/537/26 407/534/26 404/561/26 584/566/26
f 421/558/488 420/557/487 427/567/490 428/568/491
f 426/546/482 425/550/484 432/569/492 433/570/493
f 424/549/483 423/554/486 430/571/494 431/572/495
f 422/553/485 421/558/488 428/568/491 429/573/496
f 420/557/487 601/560/489 609/574/465 427/567/490
f 452/168/166 426/546/482 433/570/493 453/200/71
f 425/550/484 424/549/483 431/572/495 432/569/492
f 423/554/486 422/553/485 429/573/496 430/571/494
f 461/575/497 463/576/498 470/577/337 472/578/336
f 471/579/499 473/580/500 460/581/341 462/582/340
f 475/583/501 477/584/502 456/585/345 458/586/344
f 465/587/503 467/588/504 466/589/349 468/590/348
f 455/591/505 457/592/506 476/593/353 478/594/352
f 469/595/507 471/579/499 462/582/340 464/596/356
f 459/597/508 461/575/497 472/578/336 474/598/358
f 473/580/500 475/583/501 458/586/344 460/581/341
f 463/576/498 465/587/503 468/590/348 470/577/337
f 617/225/194 455/591/505 478/594/352 618/226/26
f 477/584/502 479/599/509 454/600/359 456/585/345
f 467/588/504 469/595/507 464/596/356 466/589/349
f 457/592/506 459/597/508 474/598/358 476/593/353
f 459/597/508 457/592/506 481/601/510 482/602/511
f 469/595/507 467/588/504 486/603/512 487/604/513
f 479/599/509 477/584/502 491/605/514 492/606/515
f 455/591/505 617/225/194 619/236/203 480/607/516
f 465/587/503 463/576/498 484/608/517 485/609/518
f 475/583/501 473/580/500 489/610/519 490/611/520
f 461/575/497 459/597/508 482/602/511 483/612/521
f 471/579/499 469/595/507 487/604/513 488/613/522
f 457/592/506 455/591/505 480/607/516 481/601/510
f 467/588/504 465/587/503 485/609/518 486/603/512
f 477/584/502 475/583/501 490/611/520 491/605/514
f 463/576/498 461/575/497 483/612/521 484/608/517
f 473/580/500 471/579/499 488/613/522 489/610/519
f 492/606/515 491/605/514 504/614/523 505/615/524
f 485/609/518 484/608/517 497/616/525 498/617/526
f 486/603/512 485/609/518 498/617/526 499/618/527
f 487/604/513 486/603/512 499/618/527 500/619/528
f 480/607/516 619/236/203 620/250/217 493/620/529
f 488/613/522 487/604/513 500/619/528 501/621/530
f 481/601/510 480/607/516 493/620/529 494/622/531
f 489/610/519 488/613/522 501/621/530 502/623/532
f 482/602/511 481/601/510 494/622/531 495/624/533
f 490/611/520 489/610/519 502/623/532 503/625/534
f 483/612/521 482/602/511 495/624/533 496/626/535
f 491/605/514 490/611/520 503/625/534 504/614/523
f 484/608/517 483/612/521 496/626/535 497/616/525
f 500/619/528 499/618/527 512/627/536 513/628/537
f 493/620/529 506/629/538 507/630/539 494/622/531
f 501/621/530 500/619/528 513/628/537 514/631/540
f 622/262/229 506/629/538 493/620/529 620/250/217
f 502/623/532 501/621/530 514/631/540 515/632/541
f 495/624/533 494/622/531 507/630/539 508/633/542
f 503/625/534 502/623/532 515/632/541 516/634/543
f 496/626/535 495/624/533 508/633/542 509/635/544
f 504/614/523 503/625/534 516/634/543 517/636/545
f 497/616/525 496/626/535 509/635/544 510/637/546
f 505/615/524 504/614/523 517/636/545 518/638/547
f 498/617/526 497/616/525 510/637/546 511/639/548
f 499/618/527 498/617/526 511/639/548 512/627/536
f 508/633/542 507/630/539 621/271/238
f 516/634/543 515/632/541 621/271/238
f 509/635/544 508/633/542 621/271/238
f 517/636/545 516/634/543 621/271/238
f 510/637/546 509/635/544 621/271/238
f 518/638/547 517/636/545 621/271/238
f 511/639/548 510/637/546 621/271/238
f 512/627/536 511/639/548 621/271/238
f 513/628/537 512/627/536 621/271/238
f 514/631/540 513/628/537 621/271/238
f 506/629/538 622/262/229 621/271/238
f 507/630/539 506/629/538 621/271/238
f 515/632/541 514/631/540 621/271/238
f 454/600/359 479/599/509 523/640/549 525/641/400
f 518/638/547 621/271/238 623/275/241 524/642/550
f 492/606/515 505/615/524 520/643/551 521/644/552
f 505/615/524 518/638/547 519/645/553 520/643/551
f 479/599/509 492/606/515 521/644/552 523/640/549
f 518/638/547 524/642/550 519/645/553
f 524/642/550 623/275/241 624/280/246 529/646/554
f 525/641/400 523/640/549 528/647/555 530/648/407
f 521/644/552 520/643/551 526/649/556 527/650/557
f 519/645/553 524/642/550 529/646/554 522/651/558
f 523/640/549 521/644/552 527/650/557 528/647/555
f 520/643/551 519/645/553 522/651/558 526/649/556
f 530/648/407 528/647/555 534/652/559 536/653/412
f 527/650/557 526/649/556 532/654/560 533/655/561
f 522/651/558 529/646/554 535/656/562 531/657/563
f 526/649/556 522/651/558 531/657/563 532/654/560
f 529/646/554 624/280/246 625/292/256 535/656/562
f 528/647/555 527/650/557 533/655/561 534/652/559
f 532/654/560 531/657/563 537/658/564 538/659/565
f 536/653/412 534/652/559 540/660/566 542/661/420
f 533/655/561 532/654/560 538/659/565 539/662/567
f 531/657/563 535/656/562 541/663/568 537/658/564
f 534/652/559 533/655/561 539/662/567 540/660/566
f 535/656/562 625/292/256 626/299/262 541/663/568
f 542/661/420 540/660/566 546/664/569 548/665/424
f 539/662/567 538/659/565 544/666/570 545/667/571
f 537/658/564 541/663/568 547/668/572 543/669/573
f 540/660/566 539/662/567 545/667/571 546/664/569
f 541/663/568 626/299/262 627/306/268 547/668/572
f 538/659/565 537/658/564 543/669/573 544/666/570
f 548/665/424 546/664/569 552/670/574 554/671/430
f 545/667/571 544/666/570 550/672/575 551/673/576
f 543/669/573 547/668/572 553/674/577 549/675/578
f 546/664/569 545/667/571 551/673/576 552/670/574
f 547/668/572 627/306/268 628/313/274 553/674/577
f 544/666/570 543/669/573 549/675/578 550/672/575
f 554/671/430 552/670/574 558/676/579 560/677/436
f 551/673/576 550/672/575 556/678/580 557/679/581
f 549/675/578 553/674/577 559/680/582 555/681/583
f 552/670/574 551/673/576 557/679/581 558/676/579
f 553/674/577 628/313/274 629/320/280 559/680/582
f 550/672/575 549/675/578 555/681/583 556/678/580
f 557/679/581 556/678/580 562/682/584 563/683/585
f 555/681/583 559/680/582 565/684/586 561/685/587
f 558/676/579 557/679/581 563/683/585 564/686/588
f 559/680/582 629/320/280 630/326/286 565/684/586
f 556/678/580 555/681/583 561/685/587 562/682/584
f 560/677/436 558/676/579 564/686/588 566/687/447
f 561/685/587 565/684/586 571/688/589 567/689/590
f 564/686/588 563/683/585 569/690/591 570/691/592
f 565/684/586 630/326/286 631/332/291 571/688/589
f 562/682/584 561/685/587 567/689/590 568/692/593
f 566/687/447 564/686/588 570/691/592 572/693/453
f 563/683/585 562/682/584 568/692/593 569/690/591
f 570/691/592 569/690/591 575/694/594 576/695/595
f 571/688/589 631/332/291 632/338/296 577/696/596
f 568/692/593 567/689/590 573/697/597 574/698/598
f 572/693/453 570/691/592 576/695/595 578/699/459
f 569/690/591 568/692/593 574/698/598 575/694/594
f 567/689/590 571/688/589 577/696/596 573/697/597
f 576/695/595 575/694/594 581/700/599 582/701/600
f 577/696/596 632/338/296 633/345/238 583/702/601
f 574/698/598 573/697/597 579/703/602 580/704/603
f 578/699/459 576/695/595 582/701/600 584/705/465
f 575/694/594 574/698/598 580/704/603 581/700/599
f 573/697/597 577/696/596 583/702/601 579/703/602
f 590/706/604 598/707/605 597/708/606 589/709/607
f 588/710/608 596/711/609 595/712/610 587/713/611
f 586/714/612 594/715/613 593/539/476 585/538/475
f 634/359/314 635/362/317 600/716/614 592/717/615
f 591/718/616 599/719/617 598/707/605 590/706/604
f 589/709/607 597/708/606 596/711/609 588/710/608
f 587/713/611 595/712/610 594/715/613 586/714/612
f 592/717/615 600/716/614 599/719/617 591/718/616
f 635/365/317 636/368/321 608/720/618 600/721/614
f 599/722/617 607/723/619 606/724/620 598/725/605
f 597/726/606 605/727/621 604/728/622 596/729/609
f 595/730/610 603/731/623 602/732/624 594/733/613
f 600/721/614 608/720/618 607/723/619 599/722/617
f 598/725/605 606/724/620 605/727/621 597/726/606
f 596/729/609 604/728/622 603/731/623 595/730/610
f 594/733/613 602/732/624 601/560/489 593/559/476
f 587/713/26 582/734/26 588/710/26
f 582/734/26 581/735/26 589/709/26 588/710/26
f 581/735/26 580/736/26 590/706/26 589/709/26
f 580/736/26 579/737/26 591/718/26 590/706/26
f 579/737/26 583/738/26 592/717/26 591/718/26
f 583/738/26 633/388/26 634/359/26 592/717/26
f 585/538/26 584/566/26 586/714/26
f 586/714/26 584/566/26 582/734/26 587/713/26
f 603/731/623 611/739/625 610/740/626 602/732/624
f 608/720/618 616/741/627 615/742/628 607/723/619
f 606/724/620 614/743/629 613/744/630 605/727/621
f 604/728/622 612/745/631 611/739/625 603/731/623
f 602/732/624 610/740/626 609/574/465 601/560/489
f 636/368/321 637/397/238 616/741/627 608/720/618
f 607/723/619 615/742/628 614/743/629 606/724/620
f 605/727/621 613/744/630 612/745/631 604/728/622
