# Blender 5.2.0 LTS
# www.blender.org
mtllib wrist_yaw_0100.mtl
o tool_wrist.001
v 0.001987 0.112767 -0.020353
v 0.003672 0.111641 -0.020353
v 0.004797 0.109957 -0.020353
v 0.005192 0.107969 -0.020353
v 0.004797 0.105982 -0.020353
v 0.003672 0.104298 -0.020353
v 0.001987 0.103172 -0.020353
v -0.000000 0.102777 -0.020353
v -0.001987 0.103172 -0.020353
v -0.003672 0.104298 -0.020353
v -0.004797 0.105982 -0.020353
v -0.005192 0.107969 -0.020353
v -0.004797 0.109957 -0.020353
v -0.003672 0.111641 -0.020353
v -0.001987 0.112767 -0.020353
v -0.000000 0.113162 -0.020353
v -0.003672 0.104298 0.020837
v -0.004797 0.105982 0.020837
v -0.000000 0.102777 0.020837
v -0.001987 0.103172 0.020837
v 0.003672 0.104298 0.020837
v 0.001987 0.103172 0.020837
v 0.005192 0.107969 0.020837
v 0.004797 0.105982 0.020837
v -0.001987 0.112767 0.020837
v -0.000000 0.113162 0.020837
v 0.003672 0.111641 0.020837
v 0.004797 0.109957 0.020837
v -0.004797 0.109957 0.020837
v -0.003672 0.111641 0.020837
v 0.001987 0.112767 0.020837
v -0.005192 0.107969 0.020837
vn -0.7071 -0.7071 -0.0000
vn -0.9239 -0.3827 -0.0000
vn -0.0000 -1.0000 -0.0000
vn -0.3827 -0.9239 -0.0000
vn 0.7071 -0.7071 -0.0000
vn 0.3827 -0.9239 -0.0000
vn 1.0000 -0.0000 -0.0000
vn 0.9239 -0.3827 -0.0000
vn -0.3827 0.9239 -0.0000
vn -0.0000 1.0000 -0.0000
vn 0.7071 0.7071 -0.0000
vn 0.9239 0.3827 -0.0000
vn -0.9239 0.3827 -0.0000
vn -0.7071 0.7071 -0.0000
vn 0.3827 0.9239 -0.0000
vn -1.0000 -0.0000 -0.0000
vt 0.684335 0.578779
vt 0.684335 0.571214
vt 0.838144 0.571214
vt 0.838144 0.578779
vt 0.684335 0.593910
vt 0.684335 0.586345
vt 0.838144 0.586345
vt 0.838144 0.593910
vt 0.684335 0.487996
vt 0.684335 0.480430
vt 0.838144 0.480430
vt 0.838144 0.487996
vt 0.684335 0.503126
vt 0.684335 0.495561
vt 0.838144 0.495561
vt 0.838144 0.503126
vt 0.684335 0.540953
vt 0.684335 0.533387
vt 0.838144 0.533388
vt 0.838144 0.540953
vt 0.684335 0.518257
vt 0.684335 0.510692
vt 0.838144 0.510692
vt 0.838144 0.518257
vt 0.684335 0.556083
vt 0.684335 0.548518
vt 0.838144 0.548518
vt 0.838144 0.556083
vt 0.684335 0.525822
vt 0.838144 0.525822
vt 0.684335 0.563649
vt 0.838144 0.563649
vt 0.684335 0.472865
vt 0.838144 0.472865
s 1
usemtl tool_wrist
f 17/1/1 18/2/2 11/3/2 10/4/1
f 19/5/3 20/6/4 9/7/4 8/8/3
f 21/9/5 22/10/6 7/11/6 6/12/5
f 23/13/7 24/14/8 5/15/8 4/16/7
f 25/17/9 26/18/10 16/19/10 15/20/9
f 27/21/11 28/22/12 3/23/12 2/24/11
f 29/25/13 30/26/14 14/27/14 13/28/13
f 26/18/10 31/29/15 1/30/15 16/19/10
f 18/2/2 32/31/16 12/32/16 11/3/2
f 20/6/4 17/1/1 10/4/1 9/7/4
f 22/10/6 19/33/3 8/34/3 7/11/6
f 24/14/8 21/9/5 6/12/5 5/15/8
f 28/22/12 23/13/7 4/16/7 3/23/12
f 30/26/14 25/17/9 15/20/9 14/27/14
f 31/29/15 27/21/11 2/24/11 1/30/15
f 32/31/16 29/25/13 13/28/13 12/32/16
